{"glyphs":{"0":{"ha":1015,"x_min":14,"x_max":989,"o":"m 989 529 q 931 351 989 441 q 779 185 873 260 q 583 60 687 110 q 395 -3 480 10 q 240 -17 290 -17 q 73 57 132 -17 q 14 241 14 131 q 47 427 14 327 q 142 614 82 526 q 271 757 202 703 q 443 866 351 821 q 616 911 534 911 q 754 879 683 911 q 883 798 826 847 q 926 757 916 768 q 989 529 989 677 m 875 507 q 862 597 875 546 q 830 672 850 650 q 803 704 817 688 q 772 736 788 720 q 718 779 739 770 q 669 760 702 760 q 643 774 664 760 q 604 790 622 790 q 524 781 564 790 q 459 757 482 773 q 374 690 422 732 q 211 496 277 604 q 145 277 145 389 q 156 190 145 231 q 194 131 167 147 q 324 96 252 96 q 505 147 395 96 q 644 231 575 182 q 692 268 667 248 q 743 311 717 288 q 835 412 795 359 q 875 507 875 466 z "},"1":{"ha":1015,"x_min":96,"x_max":935,"o":"m 935 201 q 925 170 935 175 q 844 142 888 151 q 752 126 799 133 q 658 112 705 120 q 571 86 612 104 q 572 66 571 79 q 574 46 574 54 q 485 11 574 11 q 470 19 477 12 q 458 34 464 26 q 446 48 452 42 q 433 53 440 54 q 359 35 423 53 q 307 20 327 26 q 279 11 288 14 q 164 -16 197 -16 q 119 0 136 -16 q 96 46 96 24 q 146 95 96 79 q 264 123 195 111 q 353 142 307 132 q 435 168 398 151 q 440 244 437 210 q 446 308 443 279 q 454 376 450 337 q 465 465 458 416 q 488 630 478 564 q 496 693 492 663 q 504 751 500 724 q 395 704 465 751 q 352 678 371 688 q 319 661 333 667 q 243 633 293 648 q 176 623 203 623 q 152 634 158 623 q 146 665 146 646 q 165 708 146 698 q 236 740 191 721 q 274 756 260 750 q 293 765 288 762 q 348 793 322 779 q 398 821 374 807 q 456 855 422 834 q 536 903 491 876 q 602 935 590 935 q 638 905 623 935 q 654 852 654 876 q 635 814 654 833 q 604 673 618 744 q 577 526 590 602 q 553 286 553 376 q 552 275 553 282 q 552 260 552 269 q 551 242 551 252 q 551 225 551 233 q 552 205 551 214 q 554 189 553 196 q 703 218 604 191 q 779 238 748 231 q 827 248 810 245 q 874 253 851 251 q 918 254 897 254 q 935 201 935 222 z "},"2":{"ha":1015,"x_min":16,"x_max":968,"o":"m 968 135 q 960 102 968 121 q 909 60 951 79 q 840 41 869 41 l 815 41 q 720 50 751 41 q 485 75 624 75 q 428 73 457 75 q 368 66 399 71 q 260 41 304 58 q 156 -16 177 9 q 115 -58 130 -47 q 68 -71 99 -71 q 16 -24 16 -71 q 39 60 16 28 q 129 146 77 111 q 190 183 155 163 q 270 227 225 203 q 336 261 302 243 q 396 306 369 280 q 446 351 420 328 q 498 398 471 374 q 584 490 551 447 q 641 577 618 535 q 664 663 664 620 q 637 728 664 694 q 572 785 612 762 q 503 808 535 808 q 395 766 465 808 q 333 726 360 745 q 285 688 305 707 q 270 673 277 681 q 254 656 262 665 q 239 642 247 648 q 223 632 232 635 q 202 627 214 629 q 174 625 190 625 q 145 655 161 625 q 131 701 131 684 q 140 726 131 718 q 173 750 152 736 q 216 779 193 764 q 278 822 249 803 q 332 857 307 842 q 384 885 357 873 q 438 905 410 897 q 557 918 481 918 q 685 864 625 918 q 785 737 745 810 q 810 682 810 688 q 765 555 810 629 q 716 481 743 517 q 659 410 690 446 q 547 298 597 341 q 368 172 452 216 q 412 174 386 174 q 475 175 439 175 q 689 167 547 175 q 728 164 708 165 q 770 162 749 163 q 839 160 814 160 q 884 171 856 160 q 926 182 913 182 q 953 165 938 182 q 968 135 968 147 z "},"3":{"ha":1015,"x_min":90,"x_max":911,"o":"m 911 361 q 885 283 911 335 q 861 239 872 258 q 841 207 850 220 q 781 144 820 179 q 715 94 743 111 q 630 55 676 73 q 528 22 583 37 q 326 -7 416 -7 q 284 -5 307 -7 q 235 0 262 -3 q 141 18 180 6 q 119 30 129 22 q 103 49 110 38 q 93 73 97 60 q 90 98 90 85 q 107 150 90 131 q 157 170 125 170 q 167 166 159 170 q 191 156 174 163 q 214 146 207 149 q 227 140 220 143 q 355 111 300 111 q 541 138 424 111 q 692 208 630 156 q 793 343 793 292 q 716 441 793 417 q 543 465 640 465 q 321 415 410 465 q 272 444 272 415 q 279 475 272 455 q 296 504 286 494 q 321 526 305 513 q 359 559 336 540 q 486 668 421 615 q 621 770 551 720 q 610 771 616 770 q 597 771 604 771 q 514 766 560 771 q 421 756 469 762 q 328 745 374 750 q 245 741 282 741 q 160 767 191 741 q 129 847 129 794 q 143 884 129 868 q 177 900 157 900 q 214 884 192 900 q 234 871 224 877 q 251 862 243 865 q 301 854 268 854 q 477 867 349 854 q 543 873 507 870 q 623 880 579 876 q 698 885 667 883 q 747 886 729 886 q 830 832 830 886 q 804 772 830 795 q 758 740 785 758 q 696 701 732 722 q 633 662 661 680 q 585 630 606 645 q 545 597 564 615 q 508 557 526 578 q 573 561 545 559 q 621 562 602 562 q 737 549 688 562 q 828 507 795 531 q 897 431 859 484 q 911 361 911 412 z "},"4":{"ha":1015,"x_min":22,"x_max":962,"o":"m 962 358 q 949 330 962 342 q 922 318 937 318 q 890 325 903 318 q 809 345 855 338 q 719 353 764 353 q 689 352 701 353 q 665 351 678 352 q 642 207 642 274 q 643 177 643 191 q 643 149 643 162 q 644 118 644 135 q 644 79 644 101 q 661 51 644 73 q 679 21 679 29 q 673 -1 679 11 q 657 -24 667 -13 q 636 -42 648 -35 q 614 -49 625 -49 q 568 -41 602 -49 q 535 -8 545 -36 q 526 50 526 22 q 527 85 526 64 q 531 134 528 106 q 537 216 536 189 q 553 343 540 282 q 533 345 545 345 q 505 346 521 346 q 271 322 360 346 q 95 296 174 296 q 57 310 78 296 q 22 342 37 324 q 68 409 26 363 q 114 456 90 432 q 166 506 138 480 q 215 550 195 532 q 250 581 236 569 q 353 664 285 610 q 415 713 388 691 q 465 754 443 736 q 484 771 473 761 q 509 793 495 781 q 535 817 524 806 q 557 837 547 827 q 578 854 568 846 q 600 871 588 863 q 631 895 612 881 q 675 928 650 909 q 739 965 725 965 q 774 958 757 965 q 793 937 793 952 q 787 912 791 929 q 777 876 782 896 q 765 834 771 856 q 755 796 760 813 q 729 694 741 741 q 709 610 718 648 q 693 535 701 573 q 680 458 686 497 q 840 441 725 441 l 852 441 l 887 441 q 947 422 932 441 q 962 358 962 406 m 644 779 q 587 730 617 754 q 528 683 557 706 q 471 636 498 659 q 422 590 443 613 q 333 508 385 551 q 223 422 281 464 q 235 412 223 412 q 320 427 263 422 q 434 435 341 429 q 516 443 481 438 q 576 454 551 448 q 581 485 578 470 q 587 515 583 500 q 595 552 590 531 q 608 601 601 573 q 629 682 623 656 q 644 779 644 751 z "},"5":{"ha":1015,"x_min":93,"x_max":1074,"o":"m 1074 852 q 1048 804 1074 831 q 1000 771 1023 776 q 859 760 948 760 q 825 761 849 760 q 761 763 801 762 q 689 765 722 764 q 632 766 657 766 q 476 747 533 766 q 453 723 464 735 q 432 699 441 711 q 411 670 422 686 q 385 632 399 653 q 361 598 370 611 q 349 581 352 586 q 392 563 366 570 q 457 548 418 555 q 495 542 477 545 q 532 536 514 539 q 565 532 551 534 q 587 528 578 530 q 770 456 708 506 q 832 293 832 407 q 821 234 833 264 q 789 176 809 203 q 743 124 768 148 q 692 85 718 101 q 536 8 610 33 q 368 -16 459 -16 q 243 0 298 -16 q 136 53 187 16 q 120 64 128 58 q 106 75 113 69 q 97 89 100 81 q 93 104 93 96 q 175 170 93 170 q 214 153 193 170 q 233 140 226 144 q 243 134 239 135 q 387 100 314 100 q 536 130 459 100 q 667 208 614 161 q 701 243 692 231 q 710 279 710 256 q 685 362 710 330 q 619 410 660 394 q 535 434 578 427 q 437 446 491 441 q 412 449 427 447 q 375 452 396 450 q 338 457 354 455 q 310 461 321 459 q 239 490 277 466 q 203 538 203 515 q 228 590 203 561 q 287 675 233 597 q 376 801 340 755 q 429 850 412 847 q 468 855 445 853 q 521 859 490 857 q 615 863 555 861 q 728 867 676 866 q 792 869 759 868 q 851 873 825 870 q 876 879 860 875 q 916 889 892 882 q 978 903 964 903 q 1051 878 1020 903 q 1062 871 1058 873 q 1069 866 1067 868 q 1073 860 1072 863 q 1074 852 1074 857 z "},"6":{"ha":1015,"x_min":108,"x_max":929,"o":"m 929 319 q 916 255 929 286 q 879 199 902 225 q 827 150 857 173 q 766 107 798 127 q 705 71 735 87 q 648 40 674 54 q 408 1 578 1 q 307 19 359 1 q 213 68 256 37 q 141 142 170 99 q 108 236 113 185 q 116 336 109 291 q 138 423 123 382 q 175 504 153 465 q 229 587 198 544 q 283 659 257 627 q 337 721 310 692 q 394 777 364 750 q 457 831 423 804 q 495 860 475 846 q 534 884 515 873 q 574 901 554 895 q 612 907 594 907 q 635 903 623 907 q 655 891 646 899 q 670 873 665 884 q 676 851 676 863 q 648 799 676 804 q 613 792 629 797 q 581 780 597 787 q 550 761 566 772 q 515 734 534 749 q 410 632 461 688 q 315 519 359 577 q 243 390 267 455 q 219 267 219 324 q 227 219 219 239 q 247 183 234 199 q 279 155 260 168 q 321 127 298 142 q 320 142 320 133 q 319 163 319 151 q 346 304 319 254 q 386 371 365 341 q 433 425 407 401 q 489 464 458 448 q 559 488 520 479 q 591 495 575 492 q 624 500 607 498 q 661 503 642 502 q 705 505 680 505 q 782 491 742 505 q 854 452 822 477 q 908 393 887 427 q 929 319 929 359 m 825 321 q 813 349 825 334 q 780 375 802 363 q 727 395 758 387 q 658 403 696 403 q 545 382 593 403 q 467 325 498 362 q 420 235 436 288 q 401 118 404 182 q 425 112 414 114 q 447 110 435 110 q 470 110 458 109 q 496 110 481 110 q 570 121 531 110 q 645 151 608 133 q 713 190 682 168 q 766 231 745 211 q 810 279 795 259 q 825 321 825 300 z "},"7":{"ha":1015,"x_min":178,"x_max":975,"o":"m 975 853 q 968 824 975 836 q 947 796 958 810 q 923 768 935 782 q 900 740 911 753 q 878 714 888 726 q 855 686 868 703 q 827 647 842 668 q 798 604 812 626 q 771 564 783 583 q 750 532 759 545 q 739 515 742 519 q 682 422 712 474 q 627 317 652 370 q 597 255 612 286 q 569 197 582 225 q 547 144 557 170 q 534 98 538 119 q 530 52 530 84 q 526 27 530 39 q 515 4 523 14 q 495 -13 507 -6 q 467 -20 484 -20 q 439 -11 451 -20 q 418 12 427 -2 q 406 41 410 25 q 401 71 401 57 q 436 169 401 92 q 485 270 460 221 q 535 366 509 319 q 588 459 561 413 q 647 553 616 506 q 669 586 654 564 q 701 632 684 608 q 734 679 718 656 q 762 714 751 702 q 789 744 774 727 q 816 777 804 761 l 803 787 q 751 784 780 785 q 691 781 722 782 q 629 778 661 779 q 567 776 597 777 q 469 773 523 774 q 364 771 415 772 q 273 769 313 770 q 218 768 233 768 q 201 773 208 768 q 189 786 194 778 q 181 803 184 793 q 178 821 178 812 q 183 842 178 831 q 196 862 188 852 q 213 877 203 871 q 233 882 223 882 q 281 881 252 882 q 348 877 311 879 q 429 872 385 874 q 522 871 473 871 q 572 871 544 871 q 630 873 600 872 q 693 876 661 874 q 758 880 726 878 q 805 885 783 882 q 848 889 827 887 q 890 892 869 891 q 934 894 911 894 q 963 883 951 894 q 975 853 975 873 z "},"8":{"ha":1015,"x_min":189,"x_max":852,"o":"m 852 693 q 821 633 852 675 q 793 597 806 613 q 770 571 781 582 q 729 533 747 546 q 703 514 720 526 q 661 485 686 503 q 618 454 635 467 q 591 431 601 440 q 635 409 612 422 q 682 376 658 395 q 727 336 706 357 q 765 292 747 315 q 800 203 800 245 q 798 171 800 187 q 793 136 796 154 q 770 81 786 100 q 686 31 748 54 q 559 -3 625 9 q 498 -13 526 -9 q 450 -16 471 -16 q 328 1 401 -16 q 227 43 255 18 q 189 144 189 76 q 201 201 189 177 q 219 229 208 212 q 245 265 229 245 q 287 308 262 288 q 334 344 311 328 q 381 376 358 360 q 429 411 404 391 q 393 431 416 418 q 347 457 370 444 q 307 482 323 471 q 275 507 291 493 q 230 566 255 526 q 206 631 206 606 q 226 704 205 672 q 281 762 248 736 q 356 809 315 787 q 436 854 397 831 q 581 892 496 892 q 621 885 595 892 q 672 866 646 878 q 720 842 699 854 q 747 818 741 829 q 766 753 759 801 q 772 715 770 729 q 775 699 774 702 q 783 709 779 703 q 793 724 787 715 q 808 747 803 741 q 838 726 824 743 q 852 693 852 708 m 684 668 q 675 718 684 695 q 650 756 666 740 q 611 781 633 772 q 562 790 589 790 q 482 770 530 790 q 393 722 436 751 q 335 667 353 694 q 324 643 324 651 q 345 592 324 616 q 399 545 366 568 q 434 524 416 534 q 471 502 452 513 q 503 484 491 491 q 521 473 515 477 q 552 499 535 485 q 589 532 569 514 q 626 567 609 549 q 656 602 644 585 q 676 636 669 620 q 684 668 684 653 m 693 197 q 662 264 693 227 q 588 332 630 302 q 514 372 545 361 q 376 260 444 326 q 307 143 307 196 q 345 98 307 115 q 416 82 384 82 q 460 83 435 82 q 516 87 486 85 q 571 95 547 90 q 612 104 595 99 q 627 112 618 107 q 648 123 636 116 q 680 147 670 138 q 693 183 693 161 l 693 197 z "},"9":{"ha":1015,"x_min":180,"x_max":880,"o":"m 880 747 q 864 689 880 726 q 827 596 842 637 q 802 524 811 555 q 771 419 789 484 q 729 265 753 355 q 719 223 724 244 q 711 187 714 203 q 704 150 707 172 q 701 106 701 127 q 655 4 701 4 q 608 26 621 4 q 590 67 597 43 q 583 110 583 91 q 600 197 583 133 q 618 263 609 230 q 637 331 628 296 q 656 393 648 366 q 669 440 664 420 l 657 449 q 603 418 631 433 q 547 389 576 404 q 456 354 492 361 q 333 342 385 342 q 269 372 307 342 q 206 442 233 401 q 180 507 180 482 q 215 635 180 576 q 296 732 250 692 q 352 778 320 753 q 427 833 385 803 q 496 864 447 848 q 545 879 520 873 q 593 891 569 886 q 669 901 642 901 q 717 895 696 901 q 756 878 738 889 q 791 850 774 866 q 831 815 809 834 q 855 797 846 804 q 867 786 864 789 q 880 747 872 779 m 762 733 q 718 778 751 764 q 646 791 683 791 q 532 775 579 791 q 433 718 486 759 q 387 678 410 701 q 340 628 363 656 q 294 529 294 574 q 323 460 294 484 q 397 436 352 436 q 522 471 447 436 q 654 545 598 507 q 704 587 696 574 q 724 633 718 612 q 741 684 732 656 q 762 733 751 712 z "}," ":{"ha":555,"x_min":0,"x_max":0,"o":""},"!":{"ha":450,"x_min":97,"x_max":361,"o":"m 361 964 q 351 903 361 949 q 340 856 345 880 q 328 804 334 831 q 286 620 307 710 q 254 439 266 529 q 253 409 253 422 q 252 383 253 395 q 248 360 251 371 q 239 338 245 349 q 219 339 231 338 q 191 343 207 340 q 151 357 161 349 q 150 371 151 362 q 150 392 150 380 q 154 466 149 427 q 168 546 159 505 q 185 629 176 587 q 202 712 195 671 q 215 792 210 753 q 220 867 220 831 q 226 916 220 883 q 239 961 232 949 q 251 977 243 968 q 271 993 259 985 q 309 1010 294 1010 q 343 996 326 1010 q 361 964 361 982 m 239 136 q 229 75 239 125 q 196 35 227 56 q 147 14 167 14 q 97 79 97 14 q 121 141 97 105 q 170 176 146 176 q 189 173 177 177 q 213 162 201 169 q 232 149 224 156 q 239 136 239 141 z "},"\"":{"ha":561,"x_min":89,"x_max":521,"o":"m 521 966 q 504 879 521 951 q 491 821 495 842 q 485 793 486 800 q 474 725 478 754 q 465 666 470 696 q 455 610 461 637 q 441 559 450 583 q 427 542 438 549 q 401 534 415 534 q 379 540 389 534 q 364 555 370 546 q 355 577 358 565 q 353 604 353 590 q 376 732 353 646 q 403 829 401 817 q 411 882 406 848 q 422 942 416 916 q 433 986 427 968 q 471 1013 442 1013 q 505 998 488 1013 q 521 966 521 985 m 241 958 q 241 943 241 951 q 239 924 240 935 q 236 902 237 914 q 232 876 235 890 q 229 853 230 863 q 227 838 227 843 q 212 781 224 819 q 197 725 199 744 q 192 668 195 692 q 188 631 190 645 q 183 603 186 616 q 175 575 180 589 q 159 555 171 564 q 135 546 148 546 q 100 568 111 546 q 89 616 89 590 q 94 653 89 631 q 106 696 100 674 q 112 726 109 710 q 117 759 114 741 q 125 810 121 793 q 143 903 136 866 q 153 960 150 941 q 157 979 153 970 q 166 996 161 989 q 179 1008 172 1004 q 196 1013 186 1013 q 227 994 212 1013 q 241 958 241 977 z "},"#":{"ha":1107,"x_min":29,"x_max":1061,"o":"m 1061 660 q 1055 637 1061 650 q 1042 624 1049 624 q 869 619 942 624 q 741 597 797 614 q 716 505 734 563 q 701 454 707 477 q 690 415 694 432 q 718 396 697 396 q 747 400 724 396 q 808 414 769 405 q 901 432 886 432 q 966 422 939 432 q 985 397 977 420 q 991 361 991 377 q 975 333 991 344 q 940 322 958 322 q 910 332 928 322 q 873 342 892 342 q 777 329 821 342 q 688 319 738 319 q 678 319 683 319 q 665 319 673 319 q 651 282 665 315 q 631 224 639 250 q 624 184 624 199 q 625 166 624 178 q 627 147 627 154 q 613 102 627 125 q 578 79 600 79 q 551 104 564 79 q 539 143 539 128 q 543 193 539 171 q 556 244 548 216 q 568 294 564 271 q 458 280 532 292 q 396 271 420 275 q 361 267 372 268 q 262 61 300 61 q 241 70 250 61 q 233 92 233 79 q 281 267 233 176 q 243 268 260 267 q 197 268 225 268 q 182 268 191 268 q 159 267 172 267 q 137 266 146 266 q 121 265 127 265 q 45 273 72 265 q 29 302 29 279 q 62 342 29 324 q 121 361 96 361 q 161 360 138 361 q 213 356 184 359 q 263 352 241 353 q 300 351 285 351 q 323 417 311 373 q 342 494 334 462 q 364 546 350 527 q 355 547 361 547 q 343 547 350 547 q 292 543 319 547 q 236 535 264 539 q 181 526 208 530 q 129 522 153 522 q 46 557 46 522 q 77 590 46 583 q 103 595 90 593 q 128 601 115 598 q 155 606 141 604 q 186 611 169 608 q 229 618 207 614 q 275 627 251 623 q 318 633 298 631 q 355 636 338 635 q 402 692 385 658 q 438 777 420 726 q 456 821 448 802 q 474 851 465 840 q 496 869 484 863 q 522 875 507 875 q 541 844 541 875 q 509 743 541 814 q 471 644 476 672 q 528 652 498 648 q 589 660 557 656 q 689 672 653 668 q 707 724 697 684 q 726 808 718 765 q 742 888 734 850 q 768 979 763 974 q 786 997 774 989 q 811 1004 798 1004 q 836 992 827 1004 q 846 962 846 979 q 826 882 846 931 q 802 819 806 836 q 793 792 798 808 q 783 754 789 776 q 772 715 777 732 q 762 682 767 697 q 792 686 774 684 q 836 691 810 688 q 882 697 861 694 q 920 702 903 701 q 955 704 937 703 q 993 705 973 705 q 1023 704 1010 705 q 1044 698 1036 703 q 1057 684 1053 693 q 1061 660 1061 675 m 661 590 q 579 582 625 587 q 505 572 534 576 q 472 566 489 569 q 437 557 456 562 q 380 361 404 478 q 455 366 425 364 q 500 368 485 368 q 553 376 521 368 q 604 396 585 385 q 611 417 607 404 q 623 452 616 431 q 633 483 628 469 q 641 506 637 496 q 653 548 648 526 q 661 590 659 570 z "},"$":{"ha":762,"x_min":18,"x_max":703,"o":"m 703 803 q 682 758 703 768 q 637 753 674 755 q 549 751 598 751 q 510 751 525 751 q 490 750 496 751 q 487 712 489 734 q 481 663 484 690 q 471 582 473 609 q 469 554 469 568 q 468 525 468 540 q 473 519 468 523 q 479 513 479 516 q 507 496 494 504 q 532 481 520 488 q 565 463 545 471 q 599 446 586 454 q 621 421 612 437 q 636 343 636 394 q 575 242 636 281 q 433 179 515 203 q 431 142 433 170 q 424 66 429 114 q 417 -7 419 19 q 415 -39 415 -33 q 422 -87 415 -54 q 429 -138 429 -123 q 425 -148 429 -143 q 414 -156 420 -153 q 399 -162 408 -159 q 383 -164 391 -164 q 338 -147 350 -164 q 325 -94 325 -130 l 325 -72 q 327 -37 325 -60 q 332 20 328 -14 q 337 82 335 55 q 339 131 339 110 q 320 125 332 127 q 294 121 308 123 q 264 116 279 119 q 233 111 248 114 q 210 105 223 109 q 182 98 197 102 q 128 86 151 91 q 92 81 105 81 q 44 90 68 81 q 18 115 18 99 q 26 148 18 134 q 47 173 34 162 q 77 191 60 184 q 114 201 94 198 q 142 205 125 203 q 183 208 159 207 q 238 213 216 211 q 274 217 261 215 q 347 241 299 222 q 350 261 348 245 q 356 308 352 277 q 363 362 361 338 q 368 404 366 387 q 370 441 369 422 q 371 481 371 460 q 286 519 357 492 q 234 540 263 527 q 192 562 203 553 q 140 617 157 589 q 122 681 122 644 q 176 747 122 715 q 299 800 232 779 q 403 822 367 821 q 407 873 407 847 l 407 1023 q 430 1055 407 1044 q 473 1067 453 1067 q 505 1048 492 1067 q 518 991 518 1030 q 507 915 518 967 q 497 842 497 862 q 517 843 505 843 q 546 844 530 844 q 573 845 562 845 q 591 846 585 845 q 602 847 595 846 q 620 851 608 848 q 657 856 641 856 q 703 803 703 856 m 396 733 q 236 663 258 705 q 296 614 239 646 q 382 574 353 584 l 396 733 m 553 347 q 519 399 553 368 q 460 446 484 432 q 447 340 451 385 q 443 267 443 296 q 465 279 454 273 q 488 292 476 285 q 510 305 499 298 q 532 319 522 312 q 553 347 553 334 z "},"%":{"ha":1014,"x_min":102,"x_max":943,"o":"m 942 250 q 932 187 942 223 q 905 138 924 154 q 798 63 846 87 q 685 40 752 40 q 589 82 612 40 q 564 170 564 130 q 591 273 564 218 q 657 367 618 329 q 728 404 695 404 q 803 395 764 405 q 872 366 842 385 q 923 318 903 347 q 942 250 943 289 m 785 860 q 746 811 785 831 q 715 758 730 783 q 684 706 700 732 q 650 653 667 680 q 613 597 632 627 q 573 536 594 568 q 530 468 553 505 q 488 401 507 432 q 456 345 470 370 q 425 283 442 319 q 387 202 408 248 q 351 122 367 156 q 323 64 335 87 q 302 41 320 57 q 279 25 285 25 q 244 72 244 25 q 260 136 244 85 q 294 229 275 182 q 337 320 314 275 q 385 408 359 366 q 437 488 410 450 q 466 527 451 507 q 495 572 480 548 q 530 626 511 595 q 572 696 549 657 q 613 764 596 736 q 642 810 630 792 q 594 821 614 817 q 562 827 574 825 q 486 832 538 832 q 452 832 467 832 q 428 831 437 831 q 441 765 441 800 q 404 640 441 704 q 311 547 366 576 q 276 531 292 538 q 247 519 260 524 q 195 510 223 510 q 121 551 140 510 q 102 654 102 591 q 118 726 102 676 q 133 771 126 752 q 146 802 140 789 q 185 863 163 836 q 235 910 208 890 q 293 941 262 930 q 361 951 325 951 q 424 916 389 951 q 509 905 460 910 q 619 897 557 901 q 720 889 681 892 q 775 885 758 886 q 785 860 785 874 m 361 737 q 339 850 361 770 q 329 849 335 850 q 316 847 323 848 q 303 845 309 846 q 293 844 297 844 q 245 808 270 843 q 202 728 219 772 q 184 659 184 683 q 184 649 184 653 q 184 640 184 645 q 196 606 184 612 q 252 590 225 590 q 327 640 293 590 q 361 737 361 692 m 857 244 q 843 276 857 261 q 812 296 829 292 q 800 301 808 297 q 781 311 792 304 q 749 325 758 325 q 718 314 734 325 q 690 283 703 303 q 668 236 677 263 q 660 176 660 209 q 675 123 660 138 q 710 127 692 127 q 724 126 715 127 q 739 125 734 125 q 791 146 753 125 q 821 165 810 157 q 836 178 832 173 q 857 244 857 203 z "},"&":{"ha":1283,"x_min":119,"x_max":1240,"o":"m 1240 515 q 1233 495 1240 504 q 1214 479 1225 486 q 1190 468 1203 473 q 1165 460 1177 463 q 1108 449 1137 454 q 1044 437 1079 444 q 1023 430 1034 436 q 1004 415 1011 425 q 980 375 991 397 q 957 329 968 352 q 935 283 946 305 q 913 244 924 260 q 873 187 890 212 q 857 158 857 163 q 909 120 857 142 q 1019 98 963 98 q 1044 101 1026 98 q 1081 106 1061 103 q 1119 112 1101 109 q 1143 114 1136 114 q 1183 107 1166 114 q 1199 75 1199 100 q 1187 58 1199 71 q 1153 30 1175 44 q 1099 4 1131 16 q 1029 -7 1068 -7 q 843 29 911 -7 q 822 44 837 35 q 790 61 806 53 q 762 76 774 70 l 749 82 q 738 76 748 82 q 711 60 727 69 q 677 39 695 50 q 643 18 659 27 q 616 1 627 8 l 606 -5 q 566 -20 588 -12 q 523 -35 545 -28 q 479 -46 500 -41 q 441 -50 458 -50 q 258 -12 342 -50 q 200 27 226 3 q 156 80 174 52 q 128 138 138 108 q 119 194 119 168 q 125 236 119 210 q 142 289 132 262 q 164 339 152 315 q 186 376 176 363 q 269 462 225 425 q 367 532 312 499 q 376 543 371 534 q 382 555 382 551 q 379 599 382 570 q 373 660 376 628 q 368 720 370 691 q 366 764 366 749 q 377 866 366 819 q 413 947 389 913 q 475 1001 437 982 q 567 1021 513 1021 q 633 1003 604 1021 q 680 959 661 986 q 709 897 699 931 q 718 829 718 863 q 705 754 718 788 q 672 691 692 720 q 624 635 651 661 q 569 584 597 609 q 516 537 527 547 q 505 521 505 527 q 511 494 505 511 q 526 459 517 477 q 544 425 534 441 q 558 400 553 408 q 605 337 582 366 q 651 283 627 309 q 700 237 674 258 q 755 198 725 216 q 775 206 766 198 q 793 227 785 214 q 810 256 802 240 q 827 290 818 273 q 842 322 833 303 q 858 360 850 340 q 874 398 867 380 q 886 429 882 416 q 854 431 873 429 q 817 435 835 433 q 787 439 799 437 l 774 440 q 746 449 756 446 q 729 459 735 452 q 721 477 723 465 q 717 511 718 489 q 726 529 717 522 q 748 542 735 537 q 773 550 760 547 q 793 553 785 553 q 821 548 808 553 q 849 537 833 543 q 884 527 864 532 q 932 522 903 522 q 967 524 946 522 q 1013 528 988 526 q 1064 533 1038 530 q 1113 539 1090 536 q 1155 543 1137 541 q 1183 545 1173 545 q 1224 538 1208 545 q 1240 515 1240 531 m 615 844 q 608 871 616 857 q 589 897 601 885 q 564 918 578 909 q 538 925 550 926 q 499 905 513 922 q 477 864 485 887 q 467 815 469 840 q 465 774 465 791 q 465 718 465 744 q 466 671 465 692 q 470 636 467 651 q 479 615 473 622 q 531 664 505 634 q 577 724 558 693 q 615 844 615 786 m 659 130 q 628 164 648 144 q 587 204 608 184 q 546 242 565 224 q 518 273 527 260 q 491 314 507 290 q 460 365 476 339 q 431 412 445 390 q 408 446 417 434 q 328 385 368 427 q 296 345 312 368 q 269 299 281 323 q 250 249 257 275 q 243 200 243 224 q 262 140 243 167 q 311 95 281 114 q 374 67 340 77 q 436 57 408 57 q 490 64 461 57 q 549 83 519 72 q 607 107 578 94 q 659 130 635 119 z "},"'":{"ha":321,"x_min":90,"x_max":265,"o":"m 265 951 q 250 899 265 934 q 238 871 242 882 q 232 854 233 860 q 226 831 231 848 q 213 786 221 814 q 193 703 196 728 q 191 677 192 692 q 190 641 190 662 q 189 605 190 620 q 187 579 189 589 q 174 534 183 551 q 142 518 165 518 q 105 547 120 518 q 90 602 90 576 q 91 617 90 610 q 92 631 91 625 q 94 650 93 639 q 98 677 96 662 q 105 729 102 709 q 111 765 109 748 q 126 831 116 794 q 153 913 136 867 q 222 1003 186 1003 q 254 988 242 1003 q 265 951 265 972 z "},"(":{"ha":558,"x_min":47,"x_max":534,"o":"m 533 1028 q 527 1010 534 1021 q 512 989 521 1000 q 493 969 503 979 q 476 952 483 959 q 435 911 467 942 q 380 857 403 881 q 340 810 357 833 q 290 739 315 776 q 243 662 266 702 q 203 581 222 623 q 170 496 184 540 q 140 330 140 409 q 146 262 140 308 q 154 213 150 239 q 164 154 159 186 q 174 102 170 123 q 179 71 178 81 q 233 -97 202 -43 q 251 -125 242 -112 q 270 -149 260 -138 q 294 -175 279 -161 q 329 -207 309 -190 q 385 -262 368 -241 q 401 -304 401 -283 q 379 -336 401 -328 q 335 -344 357 -344 q 250 -292 297 -344 q 202 -237 226 -267 q 154 -173 178 -208 q 136 -146 143 -158 q 125 -127 129 -135 q 104 -74 114 -105 q 85 -4 94 -43 q 70 76 77 35 q 58 157 63 116 q 47 288 47 239 l 47 311 q 48 370 47 344 q 52 416 50 397 q 61 463 55 437 q 78 520 67 488 q 243 866 136 689 q 329 950 251 879 q 392 1007 368 987 q 422 1033 415 1027 q 462 1053 436 1043 q 504 1063 489 1063 q 533 1028 533 1063 z "},")":{"ha":505,"x_min":17,"x_max":428,"o":"m 428 267 q 394 52 428 153 q 297 -147 359 -50 q 260 -196 289 -159 q 220 -257 232 -234 q 182 -321 199 -298 q 146 -345 166 -345 q 104 -330 123 -345 q 85 -300 85 -315 q 98 -262 85 -286 q 130 -218 113 -239 q 172 -163 146 -196 q 220 -90 192 -140 q 250 -24 233 -64 q 288 72 267 16 q 330 215 330 184 q 325 336 330 269 q 304 478 319 404 q 264 616 288 553 q 212 742 239 680 q 97 931 159 867 q 71 960 88 942 q 25 1004 53 978 q 17 1031 17 1012 q 37 1059 17 1042 q 77 1076 56 1076 q 210 947 127 1076 q 256 878 235 909 q 292 821 277 846 q 336 721 321 772 q 373 608 354 663 q 406 491 392 553 q 424 371 419 429 q 428 267 428 313 z "},"*":{"ha":714,"x_min":25,"x_max":689,"o":"m 689 778 q 665 753 689 758 q 567 743 642 747 q 504 740 530 741 q 464 737 478 739 q 415 724 436 735 q 434 698 420 715 q 470 655 448 681 q 538 573 515 604 q 562 528 562 542 q 550 495 562 509 q 522 481 538 481 q 502 489 513 481 q 491 500 496 494 q 478 514 485 506 q 468 527 471 523 q 464 532 465 531 q 449 550 458 538 q 424 581 439 562 q 375 644 395 618 q 335 689 355 670 q 309 656 328 685 q 282 602 303 647 q 253 545 267 572 q 222 494 238 518 q 179 447 193 447 q 173 449 177 447 q 165 453 169 451 q 157 458 161 456 q 151 461 153 460 q 135 477 142 465 q 129 501 129 489 q 159 551 129 509 q 190 595 174 572 q 223 641 205 617 q 264 700 258 688 q 252 701 259 701 q 235 701 244 701 q 202 701 214 701 q 174 700 189 701 q 150 696 165 700 q 104 684 134 692 q 79 676 89 680 q 62 672 69 673 q 50 670 55 671 q 40 669 45 669 q 31 683 36 669 q 25 704 25 698 q 31 721 25 711 q 40 733 36 730 q 57 741 45 736 q 87 750 69 745 q 142 760 123 760 q 281 774 249 760 q 269 793 277 782 q 249 817 260 804 q 231 838 237 831 q 224 847 224 846 q 172 940 172 915 q 180 958 172 948 q 195 968 187 968 q 336 823 233 968 q 379 870 351 838 q 447 950 406 901 q 453 958 448 952 q 465 974 458 964 q 493 1006 480 993 q 513 1013 500 1013 q 542 1003 529 1013 q 555 978 555 994 q 553 966 557 972 q 542 955 549 960 q 529 944 536 949 q 517 932 522 939 q 468 859 484 876 q 455 845 463 852 q 438 830 448 838 q 422 815 429 822 q 411 804 416 809 q 433 800 421 800 q 466 803 442 800 q 529 811 490 806 q 546 814 536 812 q 570 818 556 815 q 619 826 598 823 q 657 829 640 829 q 679 810 670 829 q 689 778 689 791 z "},"+":{"ha":793,"x_min":64,"x_max":733,"o":"m 733 343 q 671 325 719 325 q 647 327 665 325 q 608 330 629 328 q 570 333 588 332 q 546 335 552 335 q 509 335 523 335 q 485 335 496 335 q 460 334 473 334 q 426 334 448 334 q 411 241 411 304 q 411 218 411 229 q 412 191 412 207 q 409 145 412 168 q 406 98 406 122 q 399 65 406 75 q 369 56 391 56 q 331 67 340 56 q 321 107 321 78 q 325 145 321 119 q 333 214 328 171 q 338 265 336 235 q 344 334 341 295 q 315 335 333 334 q 276 337 297 336 q 231 337 254 337 q 186 338 208 338 q 146 331 172 338 q 111 325 119 325 q 78 339 93 325 q 64 371 64 353 q 66 384 64 376 q 73 399 68 392 q 83 410 77 406 q 96 415 89 415 q 114 414 102 415 q 140 410 127 412 q 166 407 154 408 q 184 406 178 406 q 196 406 187 406 q 217 407 205 406 q 242 408 229 407 q 267 409 256 408 q 310 411 290 410 q 348 412 330 412 q 356 465 356 437 q 355 495 356 475 q 353 539 354 516 q 350 583 351 562 q 349 612 349 603 q 349 634 349 626 q 348 653 349 643 q 361 699 348 676 q 397 722 376 722 q 409 715 403 722 q 421 699 416 708 q 431 680 427 689 q 434 665 434 670 q 428 571 434 630 q 422 490 422 512 q 426 421 422 456 q 483 416 450 416 q 556 418 517 416 q 601 419 582 418 q 633 419 621 419 q 724 397 708 419 q 733 343 733 382 z "},",":{"ha":475,"x_min":98,"x_max":412,"o":"m 412 60 q 389 -8 412 43 q 351 -74 365 -59 q 262 -139 316 -111 q 252 -142 259 -140 q 235 -146 245 -144 q 217 -151 224 -149 q 205 -154 210 -153 q 118 -178 153 -178 q 98 -146 98 -178 q 103 -129 98 -134 q 257 -52 205 -105 q 285 -5 269 -39 q 301 41 301 28 q 293 115 301 67 q 282 139 292 123 q 273 164 273 153 q 283 194 273 175 q 301 212 292 212 q 349 201 317 212 q 385 179 382 189 q 412 60 412 106 z "},"-":{"ha":890,"x_min":239,"x_max":842,"o":"m 842 385 q 838 363 842 374 q 827 345 834 351 q 787 339 819 339 q 745 348 774 339 q 700 357 717 357 q 686 356 694 357 q 668 355 677 355 q 650 353 659 354 q 636 353 642 353 q 569 357 614 353 q 501 361 523 361 q 407 357 470 361 q 311 353 344 353 q 259 360 279 353 q 239 392 239 367 q 250 419 239 407 q 278 435 262 431 q 386 449 350 449 q 414 445 395 449 q 429 443 423 444 q 437 441 435 441 l 487 441 q 595 444 549 441 q 675 450 642 446 q 734 454 704 454 q 780 441 747 454 q 827 421 813 428 q 837 406 833 417 q 842 385 842 394 z "},".":{"ha":349,"x_min":89,"x_max":249,"o":"m 249 143 q 243 98 249 130 q 200 50 239 83 q 144 18 160 18 q 115 23 126 18 q 98 38 104 28 q 91 64 92 48 q 89 102 89 79 q 92 157 89 141 q 188 187 94 187 l 203 187 q 243 164 222 187 q 249 143 249 158 z "},"/":{"ha":799,"x_min":-11,"x_max":779,"o":"m 779 1006 q 718 897 779 985 q 687 852 706 879 q 642 789 667 825 q 596 727 616 753 q 564 682 576 700 q 415 471 458 532 q 367 399 394 440 q 304 307 339 359 q 241 216 282 273 q 204 159 222 186 q 171 106 186 132 q 159 80 163 90 q 147 57 155 71 q 87 -37 123 13 q 41 -89 51 -89 q 7 -71 24 -89 q -11 -36 -11 -54 q -5 -16 -11 -30 q 127 228 56 123 q 151 261 138 242 q 180 304 164 280 q 208 346 196 328 q 229 376 220 364 q 236 386 231 379 q 248 401 241 392 q 262 420 256 412 q 272 435 268 428 q 303 483 287 458 q 336 534 319 508 q 370 584 354 561 q 399 627 386 608 q 457 712 428 668 q 514 799 486 756 q 529 822 517 804 q 560 873 541 840 q 598 932 580 905 q 633 981 616 959 q 703 1060 666 1025 q 712 1066 705 1063 q 725 1069 720 1069 q 759 1045 739 1069 q 779 1006 779 1021 z "},":":{"ha":414,"x_min":127,"x_max":304,"o":"m 304 603 q 293 570 304 589 q 271 542 283 551 q 196 517 241 517 q 159 549 178 517 q 140 602 140 581 q 157 640 140 614 q 184 675 174 667 q 229 686 200 686 q 250 677 233 686 q 268 667 266 667 q 281 657 276 661 q 289 651 286 653 q 294 647 292 648 q 298 643 296 645 q 303 629 302 638 q 304 603 304 621 m 288 142 q 286 123 288 134 q 282 98 285 113 q 244 48 279 82 q 193 14 208 14 q 141 34 154 14 q 127 94 127 54 q 129 125 127 112 q 131 147 130 138 q 159 179 133 161 q 199 196 184 196 q 282 163 253 196 q 288 142 288 156 z "},";":{"ha":458,"x_min":3,"x_max":325,"o":"m 325 603 q 287 549 325 571 q 215 528 249 528 q 184 553 198 528 q 170 596 170 578 q 184 643 170 611 q 210 682 199 675 q 231 688 217 688 q 270 671 236 688 q 309 653 304 656 q 325 603 325 637 m 310 69 q 288 2 310 51 q 269 -37 277 -22 q 253 -61 260 -53 q 201 -99 233 -81 q 163 -119 186 -108 q 111 -144 141 -130 q 21 -168 56 -168 q 3 -140 3 -168 q 8 -119 3 -127 q 161 -41 104 -98 q 189 3 172 -31 q 205 52 205 37 q 204 88 205 69 q 199 127 202 107 q 188 151 198 136 q 179 176 179 165 q 189 208 179 190 q 214 225 199 225 q 237 223 225 225 q 258 217 248 221 q 276 206 269 212 q 286 192 283 200 q 310 69 310 115 z "},"<":{"ha":745,"x_min":77,"x_max":665,"o":"m 665 174 q 646 134 665 156 q 607 114 626 114 q 564 136 603 114 q 336 250 418 217 q 270 281 309 261 q 179 332 231 302 q 77 419 77 392 q 163 532 77 472 q 181 545 171 538 q 193 555 191 552 q 253 620 222 592 q 319 679 285 648 q 358 710 335 692 q 412 751 381 728 q 505 822 475 797 q 526 844 510 826 q 539 859 534 853 q 549 868 545 865 q 583 879 559 879 q 616 867 602 879 q 631 838 631 856 q 370 590 631 782 q 341 567 357 581 q 307 533 326 553 q 263 490 288 513 q 210 440 239 467 q 227 426 214 434 q 259 409 239 418 q 300 390 298 390 q 313 382 305 387 q 332 368 321 377 q 352 354 342 359 q 370 345 361 348 q 470 301 418 323 q 564 258 522 278 q 595 245 580 252 q 628 231 610 239 q 665 174 665 212 z "},"=":{"ha":869,"x_min":99,"x_max":760,"o":"m 749 631 q 745 606 749 621 q 733 585 740 592 q 697 573 725 574 q 656 585 682 573 q 613 595 626 595 q 600 593 608 595 q 582 591 591 592 q 565 589 573 590 q 552 587 557 587 q 491 591 530 587 q 424 595 450 595 q 292 586 357 593 q 161 576 227 578 q 117 583 133 575 q 100 622 101 591 q 109 657 99 642 q 135 677 118 673 q 270 699 201 697 q 293 699 281 700 q 321 696 306 698 q 368 694 351 694 q 396 695 384 694 q 420 695 409 695 q 442 695 431 695 q 465 696 453 696 q 532 700 502 697 q 588 709 563 703 q 606 709 591 709 q 637 709 621 710 q 670 707 653 709 q 695 699 680 706 q 730 676 711 691 q 743 656 738 671 q 749 631 749 642 m 760 272 q 757 255 760 264 q 749 235 755 246 q 727 216 738 216 q 663 224 709 216 q 622 229 640 227 q 589 231 603 231 q 459 229 543 229 q 376 229 418 229 q 294 228 335 229 q 220 227 252 227 q 163 225 187 227 q 133 254 153 225 q 113 296 115 281 q 155 326 113 317 q 195 334 177 332 q 227 338 212 337 q 268 337 243 338 q 328 335 293 336 q 383 334 362 334 q 412 334 404 334 q 433 335 420 334 q 461 338 445 336 q 491 342 477 341 q 517 344 506 344 q 673 332 589 347 q 760 272 759 317 z "},">":{"ha":796,"x_min":113,"x_max":721,"o":"m 721 468 q 694 434 721 456 q 633 387 667 412 q 604 367 616 375 q 586 354 593 359 q 548 326 574 347 q 526 308 534 314 q 517 300 518 301 q 441 218 493 275 q 395 168 416 190 q 359 128 374 145 q 327 96 343 111 q 293 65 310 80 q 261 56 281 56 q 223 72 242 56 q 204 109 204 89 q 215 136 204 124 q 243 161 225 146 q 259 173 253 168 q 268 182 264 178 q 338 261 304 225 q 404 328 372 297 q 428 348 414 337 q 456 372 441 359 q 515 419 489 397 q 562 464 541 441 q 479 536 524 515 q 439 558 463 545 q 381 589 414 571 q 288 640 315 626 q 259 654 272 648 q 235 667 246 661 q 212 681 223 673 q 191 697 201 688 q 132 755 154 731 q 124 770 127 762 q 118 787 120 779 q 114 805 115 796 q 113 819 113 813 q 121 843 113 833 q 146 852 130 852 q 174 842 158 852 q 223 806 189 833 q 251 785 240 793 q 267 774 261 777 q 339 727 296 754 q 441 663 382 699 q 520 615 482 637 q 593 574 557 593 q 704 510 678 530 q 716 492 711 505 q 721 468 721 479 z "},"?":{"ha":715,"x_min":111,"x_max":715,"o":"m 715 787 q 708 707 715 743 q 687 642 701 671 q 653 592 673 614 q 608 553 633 570 q 486 496 558 521 q 415 472 450 484 q 345 449 380 460 q 307 319 323 392 q 278 275 300 286 q 215 264 256 264 q 204 293 209 264 q 200 332 200 322 q 210 386 200 359 q 238 452 218 411 q 254 483 248 471 q 261 500 260 495 q 338 551 298 531 q 448 595 378 570 q 506 617 482 608 q 543 633 530 627 q 571 655 558 641 q 592 687 583 669 q 606 725 602 705 q 611 762 611 745 q 602 821 611 786 q 586 873 594 856 q 566 898 580 888 q 535 914 552 907 q 499 923 517 920 q 465 926 480 926 q 380 918 412 926 q 317 879 346 909 q 304 853 308 870 q 295 829 301 837 q 261 811 290 821 q 222 807 241 807 q 184 848 184 807 q 223 926 184 884 q 315 999 264 970 q 403 1029 368 1029 q 428 1030 411 1029 q 462 1031 444 1031 q 496 1033 479 1032 q 521 1034 513 1034 q 565 1025 537 1034 q 604 1008 593 1017 q 663 963 641 984 q 696 917 684 941 q 711 862 707 892 q 715 787 714 831 m 302 54 q 290 20 302 32 q 189 -32 239 -32 q 160 -27 174 -32 q 135 -13 146 -22 q 118 10 124 -3 q 111 40 111 24 q 155 94 111 66 q 170 106 164 101 q 180 113 175 111 q 191 117 185 116 q 208 118 197 118 q 218 115 212 118 q 230 109 224 113 q 243 101 237 106 q 254 94 250 97 q 302 54 302 94 z "},"@":{"ha":1143,"x_min":68,"x_max":1067,"o":"m 1067 593 q 1023 427 1067 507 q 904 315 979 347 q 891 311 903 315 q 858 300 880 307 q 808 288 817 288 q 747 306 776 288 q 700 350 719 323 q 654 319 684 336 q 591 288 625 302 q 526 263 558 273 q 472 254 493 254 q 383 292 427 254 q 339 374 339 330 q 371 497 339 429 q 431 591 389 537 q 519 686 473 648 q 608 725 567 725 q 682 717 651 725 q 737 686 712 709 q 746 665 746 680 q 746 652 746 657 q 745 642 745 648 q 757 629 745 629 q 773 635 763 629 q 790 640 783 640 q 828 604 828 640 q 806 542 828 595 q 790 502 795 516 q 783 485 784 488 q 775 427 775 457 q 784 404 775 412 q 821 396 793 396 q 900 427 861 396 q 963 503 940 457 q 987 587 987 548 q 935 753 987 661 q 887 831 901 812 q 835 878 874 850 q 764 918 807 899 q 692 936 722 936 q 563 888 637 936 q 425 776 489 840 q 325 660 362 713 q 274 581 300 625 q 220 487 247 536 q 197 438 208 463 q 178 392 186 414 q 166 351 170 370 q 161 317 161 332 q 216 191 161 247 q 346 100 273 135 q 554 57 436 57 q 682 73 606 57 q 829 115 756 89 q 947 171 903 143 q 957 177 949 172 q 978 194 964 183 q 1011 216 1005 216 q 1035 207 1021 216 q 1048 189 1048 197 q 1036 129 1048 152 q 960 68 1020 97 q 850 28 899 40 q 672 -11 755 3 q 507 -25 590 -25 q 304 16 408 -25 q 134 134 201 56 q 68 315 68 212 q 117 490 68 383 q 167 590 142 545 q 220 673 193 635 q 359 843 286 768 q 521 964 433 917 q 568 987 547 977 q 607 1004 589 997 q 685 1017 642 1017 q 851 972 777 1017 q 982 847 924 928 q 1042 724 1018 797 q 1067 593 1067 652 m 699 595 q 682 615 699 601 q 667 627 673 623 q 657 635 661 632 q 606 623 627 633 q 555 589 585 612 q 536 568 547 581 q 511 536 525 555 q 486 497 498 517 q 464 458 474 477 q 444 396 444 417 q 449 370 444 380 q 462 355 453 360 q 485 349 471 350 q 518 347 499 347 q 574 364 538 347 q 642 405 612 381 q 672 447 672 429 q 671 461 672 452 q 670 481 671 471 q 669 500 669 491 q 668 514 668 509 q 683 564 668 534 q 699 595 699 593 z "},"A":{"ha":1162,"x_min":14,"x_max":1131,"o":"m 1131 45 q 1113 -2 1131 18 q 1068 -21 1096 -21 q 1048 -16 1056 -21 q 1027 4 1039 -8 q 1003 36 1016 17 q 957 117 978 75 q 924 192 937 159 q 917 209 920 201 q 909 225 913 217 q 901 244 905 234 q 892 268 897 254 q 864 345 873 326 q 846 330 854 335 q 827 322 837 325 q 807 320 817 320 q 784 319 796 319 q 767 317 777 319 q 745 311 757 314 q 722 303 733 307 q 700 296 710 299 q 631 279 666 287 q 560 265 597 272 q 484 251 524 258 q 399 237 444 245 q 360 211 378 234 q 287 109 342 187 q 195 -4 233 32 q 122 -40 157 -40 q 47 -22 77 -40 q 14 24 14 -1 q 28 42 14 37 q 68 53 43 48 q 105 86 76 54 q 147 138 133 117 q 205 217 176 175 q 271 313 235 260 q 302 359 289 340 q 325 393 316 379 q 346 423 334 406 q 374 461 358 440 q 390 484 380 471 q 412 515 399 498 q 436 546 425 532 q 454 570 446 559 q 474 597 462 581 q 504 636 487 614 q 525 668 509 643 q 568 737 541 693 q 618 829 606 800 q 737 1022 697 1022 q 766 1019 755 1022 q 783 1009 777 1016 q 791 990 789 1002 q 793 961 793 978 q 793 941 793 949 q 792 926 793 932 q 791 899 791 916 q 789 859 790 882 q 853 705 823 787 q 886 615 869 664 q 923 507 903 566 q 958 407 943 448 q 982 340 972 366 q 1005 281 991 314 q 1036 205 1018 248 q 1087 130 1043 190 q 1131 45 1131 71 m 830 446 q 804 526 818 483 q 774 612 789 569 q 743 695 759 655 q 711 766 727 735 q 640 667 673 715 q 574 572 606 620 q 512 474 543 524 q 449 367 481 424 q 463 364 456 364 q 489 366 473 364 q 521 370 505 368 q 553 375 538 372 q 578 380 568 378 q 606 387 594 384 q 629 392 618 389 q 652 398 640 395 q 682 405 665 401 q 760 426 722 415 q 830 446 799 436 z "},"B":{"ha":1048,"x_min":144,"x_max":1006,"o":"m 1006 363 q 1002 318 1006 347 q 996 283 998 288 q 964 207 987 248 q 910 126 941 165 q 851 59 881 89 q 800 16 821 30 q 746 -15 779 0 q 668 -44 713 -31 q 513 -72 579 -72 q 408 -52 456 -72 q 361 22 361 -33 q 378 71 361 56 q 440 86 395 86 q 526 69 490 86 q 590 53 564 53 q 650 63 605 53 q 720 92 694 74 q 779 141 748 111 q 834 206 809 171 q 876 277 860 241 q 890 345 891 313 q 854 427 890 391 q 768 484 817 463 q 682 504 718 504 q 600 496 628 504 q 544 475 570 488 q 498 463 517 463 q 454 477 477 463 q 431 513 431 491 q 436 546 431 532 q 452 569 442 559 q 473 585 461 579 q 499 593 486 591 q 528 599 513 597 q 562 603 544 602 q 604 610 597 606 q 701 674 651 637 q 748 713 726 693 q 790 754 770 733 q 829 822 829 795 q 800 876 829 858 q 701 895 770 895 q 653 892 679 895 q 600 886 627 890 q 546 875 573 882 q 492 861 518 869 q 441 842 465 852 q 395 820 416 832 q 358 794 374 808 q 332 765 342 780 q 324 738 326 757 q 319 676 321 718 q 318 630 319 655 q 316 575 317 606 q 314 523 315 545 q 311 485 313 500 q 308 453 310 472 q 302 410 305 435 q 291 325 295 361 q 288 257 288 289 q 288 231 288 246 q 290 196 289 216 q 292 161 292 176 q 293 136 293 146 q 277 50 293 77 q 225 22 262 22 q 144 160 144 22 q 161 269 144 176 q 179 385 177 361 q 185 444 182 416 q 190 496 187 471 q 196 555 193 522 q 204 633 199 589 q 209 677 208 661 q 211 701 211 694 q 206 737 211 718 q 202 756 203 748 q 201 768 201 764 q 220 854 201 819 q 258 903 243 902 q 303 911 282 906 q 343 922 324 916 q 483 969 431 952 q 549 991 534 986 q 614 1005 581 1001 q 656 1009 632 1008 q 713 1010 681 1010 l 751 1010 q 789 1003 766 1010 q 837 983 812 996 q 881 956 861 971 q 909 925 901 941 q 926 882 919 911 q 931 855 929 867 q 933 833 933 843 q 886 721 933 779 q 749 590 839 663 q 845 557 799 580 q 927 504 892 534 q 984 436 963 473 q 1006 363 1006 400 z "},"C":{"ha":1024,"x_min":87,"x_max":1167,"o":"m 1167 437 q 1109 334 1167 395 q 1075 299 1095 318 q 1031 261 1054 280 q 984 222 1008 241 q 941 188 961 203 q 804 93 876 138 q 661 14 733 48 q 516 -39 588 -20 q 376 -59 444 -59 q 249 -38 303 -59 q 159 22 195 -17 q 106 115 123 60 q 88 237 88 170 q 101 361 87 298 q 138 485 114 424 q 195 603 161 546 q 267 707 228 659 q 321 767 291 736 q 384 825 351 797 q 450 879 416 854 q 517 922 484 903 q 570 951 538 935 q 639 981 603 967 q 710 1005 675 996 q 771 1015 745 1015 q 837 1009 812 1015 q 881 990 862 1004 q 902 969 890 983 q 924 939 913 956 q 942 906 935 922 q 949 878 949 889 q 938 843 949 866 q 913 795 927 820 q 884 749 899 770 q 863 720 870 728 q 803 689 835 689 q 761 706 776 689 q 745 747 745 722 q 755 775 745 756 q 789 817 766 793 q 826 861 813 841 q 843 888 840 881 q 810 903 829 897 q 773 908 790 908 q 713 897 749 908 q 639 868 677 886 q 566 829 602 850 q 506 788 530 808 q 377 664 436 730 q 279 517 318 597 q 250 447 264 484 q 226 374 236 411 q 210 299 216 336 q 204 229 204 262 q 213 154 204 189 q 243 94 222 119 q 299 55 264 69 q 383 41 333 41 q 494 56 437 41 q 608 96 551 71 q 720 154 665 121 q 827 223 776 187 q 924 295 878 259 q 1008 363 970 331 q 1041 391 1024 376 q 1076 422 1059 407 q 1108 454 1093 438 q 1137 482 1124 469 q 1167 437 1167 467 z "},"D":{"ha":1206,"x_min":158,"x_max":1149,"o":"m 1149 615 q 1084 448 1149 529 q 921 300 1019 367 q 820 238 871 267 q 715 186 769 210 q 615 144 662 162 q 526 114 568 126 q 404 65 476 98 q 391 58 399 62 q 371 47 382 54 q 335 32 349 35 q 257 18 275 18 q 201 38 224 18 q 171 90 178 58 q 161 138 164 119 q 158 167 158 157 q 162 195 158 176 q 167 227 167 213 q 168 250 167 237 q 172 280 170 263 q 177 308 175 297 q 179 323 178 318 q 189 388 182 340 q 208 513 197 435 q 224 600 215 554 q 244 699 233 646 q 247 711 245 703 q 252 728 249 718 q 260 763 257 749 q 262 790 262 777 q 254 813 262 804 q 231 833 246 823 q 211 851 217 844 q 205 872 205 858 q 229 926 205 899 q 278 954 252 954 q 361 948 309 954 q 433 942 413 942 q 538 946 468 942 q 643 950 608 950 q 828 935 741 950 q 985 879 915 919 q 1040 840 1004 868 q 1113 739 1077 814 q 1149 615 1149 663 m 1031 615 q 962 760 1031 709 q 799 825 893 809 q 704 836 752 832 q 604 840 655 840 q 572 839 589 840 q 536 837 555 838 q 465 830 498 833 q 393 825 432 827 q 374 732 384 781 q 355 631 365 684 q 349 597 353 618 q 339 546 345 576 q 329 490 334 515 q 320 444 323 465 q 313 398 317 422 q 307 351 310 375 q 303 303 304 327 q 301 260 301 280 q 317 179 301 210 q 420 201 368 186 q 476 218 447 209 q 536 239 505 228 q 592 259 568 251 q 633 273 616 268 q 905 401 842 342 q 928 426 916 411 q 957 462 941 441 q 1010 547 988 504 q 1031 615 1031 588 z "},"E":{"ha":1042,"x_min":110,"x_max":1065,"o":"m 1065 964 q 1062 949 1065 958 q 1055 931 1059 941 q 1045 915 1050 922 q 1033 904 1039 907 q 999 891 1014 895 q 962 882 983 886 q 837 862 898 870 q 721 848 775 853 q 621 841 666 843 q 543 839 575 839 q 512 839 526 839 q 487 839 499 839 q 463 838 475 838 q 439 838 452 838 q 386 838 408 838 q 349 840 364 839 q 334 782 338 817 q 328 710 330 747 q 325 638 326 673 q 321 576 324 603 q 344 562 334 567 q 364 554 354 557 q 385 552 374 552 q 411 551 395 551 q 449 551 428 551 q 490 552 469 551 q 530 555 511 553 q 566 561 550 557 q 612 568 592 568 q 652 569 633 569 q 691 571 671 569 q 735 583 711 574 q 767 596 753 590 q 794 606 781 602 q 819 613 807 610 q 844 615 831 615 q 863 607 855 615 q 874 588 870 600 q 880 561 878 576 q 882 533 882 547 q 871 508 882 518 q 845 491 860 498 q 816 480 831 484 q 792 474 801 476 q 751 469 777 471 q 698 465 726 467 q 644 462 670 463 q 601 459 618 461 q 503 451 554 454 q 400 449 452 449 q 355 446 374 449 q 313 435 336 442 q 303 417 309 434 q 292 376 298 401 q 279 321 286 351 q 267 264 273 291 q 253 189 257 222 q 247 140 248 155 q 257 132 251 136 q 271 127 263 127 q 313 127 288 127 q 364 128 338 127 q 416 130 391 129 q 459 132 441 131 q 553 141 504 136 q 648 151 602 145 q 735 162 694 156 q 806 177 776 169 q 815 180 805 177 q 840 187 825 182 q 874 196 856 191 q 908 205 892 201 q 934 213 924 210 q 944 216 945 216 q 964 210 954 216 q 981 196 973 205 q 992 174 988 186 q 997 148 997 162 q 991 133 997 142 q 977 113 986 123 q 955 94 967 102 q 927 82 942 85 q 863 71 893 76 q 801 62 833 66 q 734 54 770 58 q 656 46 699 50 q 551 35 604 41 q 453 23 498 29 q 371 12 407 17 q 319 3 336 7 q 284 -5 303 0 q 247 -15 265 -10 q 212 -23 228 -20 q 185 -27 195 -27 q 153 -22 167 -27 q 129 -4 138 -17 q 115 31 119 9 q 110 85 110 52 q 118 150 110 115 q 138 237 126 186 q 155 321 145 279 q 173 405 164 363 q 187 488 181 446 q 193 572 193 530 q 198 634 194 603 q 205 697 201 665 q 212 761 209 729 q 215 823 215 793 q 214 838 215 829 q 212 852 212 848 q 233 917 212 882 q 251 935 239 926 q 279 952 264 945 q 309 965 294 960 q 335 970 324 970 q 358 967 342 970 q 393 961 375 964 q 428 954 412 957 q 452 951 445 951 q 483 951 463 951 q 525 950 502 951 q 572 950 547 950 q 620 951 597 950 q 718 958 671 954 q 815 970 764 961 q 871 983 846 975 q 921 998 897 991 q 968 1010 945 1005 q 1016 1016 991 1016 q 1034 1011 1025 1016 q 1049 1000 1042 1007 q 1061 983 1057 993 q 1065 964 1065 974 z "},"F":{"ha":809,"x_min":118,"x_max":878,"o":"m 832 892 q 806 885 823 886 q 770 886 789 884 q 734 890 751 888 q 707 891 717 892 q 662 889 692 892 q 593 882 631 887 q 515 871 555 878 q 439 857 474 865 q 378 842 404 850 q 347 827 353 834 q 337 805 344 824 q 323 757 331 787 q 309 690 316 728 q 295 612 301 652 q 286 530 290 571 q 285 451 283 488 q 379 474 332 465 q 485 496 427 484 q 542 510 511 500 q 603 529 572 519 q 660 545 633 538 q 707 551 687 551 q 738 548 726 551 q 758 537 750 545 q 771 519 766 530 q 780 492 776 508 q 777 481 781 488 q 766 468 772 475 q 753 454 760 460 q 743 444 747 448 q 716 430 736 437 q 675 419 697 424 q 633 411 654 414 q 602 406 612 408 q 530 392 568 399 q 456 377 492 385 q 387 361 420 369 q 328 347 354 354 q 287 332 302 339 q 268 319 271 326 q 259 288 262 307 q 253 245 256 269 q 250 196 251 222 q 249 145 250 170 q 250 97 249 120 q 251 57 250 74 q 252 12 251 34 q 248 -31 253 -9 q 232 -54 243 -45 q 194 -60 220 -62 q 178 -55 191 -59 q 153 -40 166 -50 q 129 -16 140 -31 q 119 20 119 -1 q 126 175 118 102 q 144 319 135 248 q 159 439 151 377 q 177 565 168 502 q 196 690 186 628 q 214 810 205 752 q 213 832 215 821 q 208 854 211 843 q 200 877 204 865 q 195 899 197 888 q 199 920 193 909 q 215 942 205 932 q 235 958 224 951 q 256 964 246 964 q 280 960 269 962 q 302 957 292 958 q 322 955 312 956 q 344 954 332 954 q 389 957 363 954 q 442 965 414 960 q 497 976 469 970 q 550 987 526 982 q 688 1009 625 1000 q 804 1019 751 1019 q 824 1015 812 1019 q 848 1004 836 1010 q 868 990 859 998 q 877 975 876 983 q 870 934 878 957 q 832 892 861 911 z "},"G":{"ha":1116,"x_min":68,"x_max":1097,"o":"m 1096 933 q 1079 881 1096 903 q 1032 860 1063 860 q 1007 870 1021 860 q 981 891 993 881 q 956 910 970 902 q 925 918 942 918 q 710 863 842 918 q 587 798 644 834 q 475 716 530 762 q 371 615 420 671 q 285 505 322 560 q 231 385 250 456 q 212 250 212 316 q 244 185 212 219 q 310 143 276 153 q 408 132 351 132 q 500 143 451 132 q 597 173 549 154 q 692 217 646 193 q 777 269 739 242 q 805 295 790 280 q 836 329 821 309 q 864 366 852 349 q 882 397 875 382 q 886 415 886 404 q 882 440 886 425 q 878 465 878 456 q 939 490 878 490 q 996 462 958 490 q 1034 418 1034 433 q 991 332 1034 416 q 959 267 970 290 q 946 239 948 243 q 923 179 935 212 q 900 106 911 146 q 876 -8 876 26 q 878 -23 875 -16 q 885 -36 881 -30 q 892 -46 888 -41 q 896 -52 896 -50 q 890 -82 896 -68 q 874 -106 884 -96 q 851 -123 865 -117 q 821 -129 837 -129 q 773 -105 785 -129 q 761 -40 761 -81 q 762 -19 761 -29 q 764 1 763 -9 q 774 48 768 22 q 781 71 778 61 q 785 87 783 81 q 794 139 794 125 q 791 146 794 146 q 703 109 777 146 q 642 79 665 90 q 611 65 619 68 q 389 17 493 17 q 247 44 321 17 q 119 123 171 72 q 68 244 68 176 q 253 660 68 445 q 412 819 334 754 q 597 939 488 882 q 637 958 615 948 q 687 978 660 968 q 796 1015 742 999 q 897 1036 850 1030 q 985 1040 926 1040 q 1026 1033 1006 1041 q 1062 1009 1046 1024 q 1087 974 1078 994 q 1096 933 1097 954 z "},"H":{"ha":1144,"x_min":111,"x_max":1090,"o":"m 1089 1053 q 1085 992 1090 1029 q 1072 910 1080 956 q 1053 809 1063 863 q 1031 696 1042 755 q 1012 574 1021 637 q 998 448 1003 511 q 996 421 998 444 q 992 366 994 399 q 987 293 989 333 q 982 211 984 252 q 979 130 980 170 q 979 60 978 90 q 971 26 980 42 q 948 -4 962 9 q 921 -25 935 -17 q 898 -33 907 -33 q 880 -29 890 -33 q 860 -18 869 -25 q 845 0 851 -11 q 837 26 838 12 q 839 63 836 37 q 846 126 842 90 q 857 203 851 162 q 867 283 863 244 q 873 355 871 321 q 874 408 876 388 q 861 433 873 425 q 833 441 850 441 q 776 439 812 441 q 702 433 741 436 q 628 428 664 430 q 569 425 592 425 q 543 424 564 425 q 493 421 522 423 q 431 417 464 419 q 370 412 399 414 q 320 406 341 409 q 296 401 300 403 q 287 384 292 398 q 279 350 283 370 q 271 306 275 330 q 264 257 267 281 q 259 211 261 233 q 256 174 257 189 q 254 95 255 134 q 246 25 252 56 q 227 -24 240 -5 q 189 -43 214 -43 q 168 -34 180 -43 q 143 -12 155 -25 q 122 17 131 2 q 113 44 113 32 q 114 74 111 57 q 121 109 117 91 q 129 142 125 126 q 135 170 133 159 q 154 272 144 214 q 174 395 164 329 q 193 534 183 461 q 211 681 202 606 q 228 831 220 756 q 243 976 236 905 q 249 993 244 984 q 261 1009 254 1002 q 280 1020 269 1017 q 302 1022 290 1024 q 350 1001 334 1016 q 368 958 366 985 q 363 858 372 911 q 343 751 355 805 q 321 644 331 696 q 313 544 311 591 q 323 529 314 534 q 344 522 332 524 q 369 518 356 519 q 391 517 382 517 q 446 519 406 517 q 539 523 486 520 q 651 531 593 526 q 761 544 710 536 q 847 560 812 551 q 890 582 883 570 q 901 613 895 589 q 913 671 907 636 q 926 751 920 707 q 937 845 932 795 q 945 946 942 895 q 948 1048 948 998 q 954 1064 948 1055 q 969 1082 960 1074 q 992 1098 979 1091 q 1019 1104 1004 1104 q 1040 1101 1028 1104 q 1063 1092 1052 1098 q 1081 1076 1074 1086 q 1089 1053 1088 1067 z "},"I":{"ha":432,"x_min":103,"x_max":369,"o":"m 368 876 q 342 791 369 859 q 321 735 328 757 q 312 703 313 713 q 286 529 298 622 q 262 328 273 436 q 255 278 258 299 q 250 243 252 256 q 247 213 249 229 q 243 178 245 197 q 242 144 242 159 q 242 115 241 128 q 251 90 242 106 q 260 64 259 75 q 227 17 261 40 q 195 0 210 5 q 168 -7 180 -6 q 136 2 148 -7 q 115 36 123 16 q 105 71 106 56 q 104 156 103 113 q 111 243 105 199 q 124 341 116 286 q 143 463 132 396 q 160 550 152 509 q 175 628 168 591 q 192 712 182 665 q 213 816 201 758 q 219 850 216 836 q 224 873 222 865 q 228 898 225 882 q 236 937 231 913 q 241 956 237 945 q 252 976 245 966 q 266 992 258 985 q 281 1000 274 1000 q 312 993 295 1000 q 338 975 328 986 q 359 946 352 961 q 367 913 366 930 q 368 895 368 903 q 368 876 368 886 z "},"J":{"ha":851,"x_min":33,"x_max":772,"o":"m 772 726 q 765 507 772 600 q 743 353 758 414 q 731 314 740 337 q 707 260 722 292 q 680 205 693 229 q 656 163 667 180 q 641 143 650 155 q 616 114 631 131 q 506 25 564 54 q 368 -3 447 -3 q 250 5 311 -3 q 134 35 191 14 q 45 92 77 57 q 33 119 33 103 q 39 147 33 134 q 56 169 45 159 q 79 182 66 178 q 109 187 93 187 q 194 158 125 187 q 254 134 229 144 q 292 119 278 124 q 349 109 321 109 q 496 149 439 109 q 587 275 553 190 q 637 600 637 397 q 635 692 637 629 q 628 854 633 755 q 625 917 627 890 q 624 961 624 943 q 627 971 623 965 q 639 983 632 977 q 652 995 646 989 q 663 1003 659 1000 q 689 1011 671 1011 q 724 1001 709 1011 q 743 975 739 991 q 746 956 744 974 q 753 902 748 937 q 767 785 762 832 q 772 726 772 739 z "},"K":{"ha":1084,"x_min":165,"x_max":1072,"o":"m 1072 183 q 1062 157 1072 171 q 1037 132 1052 144 q 1007 113 1023 121 q 981 106 991 106 q 860 134 942 106 q 778 165 819 149 q 696 199 737 181 q 620 233 654 217 q 557 264 585 250 q 329 326 473 306 q 308 304 316 318 q 295 273 300 291 q 289 232 291 254 q 288 186 288 210 q 293 130 288 154 q 310 82 298 106 q 334 14 334 33 q 309 -22 334 -8 q 254 -45 284 -37 q 183 43 200 -14 q 165 174 165 101 q 168 309 165 241 q 172 433 170 377 q 177 556 174 488 q 183 713 180 623 q 184 753 184 729 q 186 808 185 777 q 189 863 188 840 q 189 901 189 886 q 189 911 189 905 q 187 925 188 918 q 185 939 186 932 q 184 949 184 945 q 203 990 184 972 q 244 1008 222 1008 q 288 996 263 1008 q 314 965 314 983 q 312 943 314 956 q 307 920 309 930 q 302 867 304 895 q 298 810 300 840 q 292 658 295 739 q 288 485 290 578 q 291 463 288 468 q 306 458 294 458 q 347 473 323 458 q 393 501 370 487 q 625 703 512 573 q 688 778 662 746 q 739 840 714 810 q 765 870 751 854 q 794 902 779 886 q 823 931 809 917 q 850 956 838 945 q 861 965 854 959 q 875 977 867 971 q 890 987 883 983 q 903 991 897 991 q 919 984 909 991 q 937 966 928 977 q 951 945 945 956 q 957 926 957 934 q 948 901 957 918 l 936 876 q 928 859 930 866 q 924 846 926 851 q 916 835 921 840 q 901 825 911 830 q 886 818 895 821 q 867 810 876 814 q 849 802 857 806 q 839 790 842 797 q 800 729 816 753 q 774 693 783 705 q 678 591 732 640 q 627 545 652 566 q 578 505 602 524 q 524 465 554 488 q 454 415 493 442 q 626 340 532 378 q 827 261 720 302 q 843 255 833 259 q 862 248 852 252 q 881 240 871 243 q 896 234 890 236 q 924 228 909 231 q 956 225 939 225 q 976 226 964 225 q 1002 229 988 227 q 1030 233 1016 231 q 1059 237 1045 235 q 1072 183 1072 216 z "},"L":{"ha":940,"x_min":134,"x_max":913,"o":"m 900 81 q 865 53 886 64 q 828 43 844 43 q 804 42 819 43 q 775 42 790 42 q 745 41 760 41 q 722 41 731 41 q 631 34 678 41 q 537 15 584 26 q 445 -8 490 4 q 358 -32 399 -21 q 282 -51 317 -43 q 222 -58 248 -58 q 159 -39 182 -58 q 135 5 136 -20 q 135 44 134 22 q 140 93 136 66 q 150 149 144 119 q 162 209 155 178 q 173 262 166 229 q 185 330 179 294 q 197 399 191 366 q 205 454 202 433 q 219 544 213 504 q 232 620 226 583 q 243 694 237 656 q 253 779 248 732 q 259 869 257 829 q 268 937 260 909 q 291 979 275 964 q 340 994 307 994 q 371 986 359 994 q 392 966 384 979 q 404 939 400 954 q 410 907 408 923 q 405 877 410 903 q 392 813 400 851 q 374 728 384 774 q 354 633 363 681 q 335 539 344 585 q 322 460 327 494 q 312 396 318 431 q 300 327 307 362 q 288 258 294 292 q 277 193 282 223 q 270 139 273 163 q 269 100 268 115 q 279 78 271 88 q 303 68 288 68 q 344 72 319 68 q 397 84 369 77 q 454 99 425 91 q 510 115 484 108 q 533 121 516 117 q 573 130 551 125 q 622 139 596 134 q 670 148 648 144 q 711 155 693 152 q 735 157 728 157 q 760 159 744 157 q 796 163 776 161 q 840 164 817 164 q 888 159 864 164 q 906 148 900 157 q 913 126 912 138 q 910 102 913 114 q 900 81 907 90 z "},"M":{"ha":1396,"x_min":78,"x_max":1295,"o":"m 1293 1028 q 1291 1015 1293 1020 q 1282 1001 1288 1009 q 1272 987 1276 993 q 1268 975 1268 981 q 1267 970 1268 974 q 1265 960 1266 967 q 1259 940 1261 948 q 1255 929 1256 932 q 1246 883 1249 905 q 1243 833 1243 861 q 1239 732 1243 783 q 1235 678 1238 706 q 1228 618 1232 650 q 1222 559 1225 587 q 1215 504 1219 530 q 1208 405 1211 456 q 1206 298 1206 354 q 1207 203 1206 261 q 1210 69 1208 145 q 1235 49 1218 61 q 1262 28 1254 37 q 1271 5 1271 20 q 1244 -45 1271 -20 q 1190 -69 1216 -69 q 1099 23 1122 -69 q 1075 212 1075 117 q 1079 273 1075 243 q 1086 335 1083 304 q 1093 398 1088 357 q 1104 500 1097 439 q 1114 593 1111 561 q 1118 631 1118 625 q 1120 646 1119 635 q 1123 675 1121 657 q 1130 736 1128 710 q 1132 777 1132 762 q 1133 785 1133 781 q 1133 796 1133 789 q 1126 814 1133 801 q 1099 777 1115 798 q 1064 730 1084 756 q 999 642 1024 677 q 974 608 986 625 q 948 574 961 591 q 919 535 935 557 q 882 485 902 513 q 794 361 838 424 q 787 351 792 357 q 775 333 783 344 q 758 309 760 311 q 671 235 711 246 q 582 294 606 254 q 571 313 576 305 q 563 329 567 321 q 555 343 559 336 q 546 358 551 350 q 522 401 532 382 q 502 437 511 421 q 469 504 485 468 q 439 578 452 539 q 425 620 431 604 q 417 644 420 637 q 410 666 414 652 q 401 699 406 680 q 389 737 395 718 q 376 777 382 757 q 361 823 362 820 q 348 775 356 804 q 330 713 339 746 q 312 647 321 680 q 297 587 303 614 q 284 536 290 560 q 273 490 279 512 q 239 358 262 448 q 224 245 224 301 q 226 215 224 234 q 233 168 228 195 q 239 119 237 140 q 241 81 241 97 q 223 37 241 63 q 187 11 205 11 q 169 12 181 11 q 150 14 157 14 q 95 59 112 14 q 78 153 78 104 q 85 193 78 166 q 93 225 88 206 q 104 269 98 245 q 114 306 111 292 q 118 322 117 319 q 145 426 133 380 q 167 507 157 471 q 186 580 176 542 q 208 661 197 618 q 232 744 222 710 q 248 810 241 777 q 256 860 253 847 q 265 895 259 877 q 279 930 271 912 q 317 966 294 966 q 397 957 367 966 q 446 913 426 948 q 462 881 455 897 q 473 848 469 865 q 484 811 478 832 q 494 762 489 789 q 503 734 497 748 q 514 704 508 721 q 671 387 566 545 q 692 404 674 391 q 708 416 701 410 q 718 427 714 421 q 738 453 728 438 q 758 485 748 467 q 796 551 778 520 q 836 606 814 581 q 862 635 847 617 q 895 677 876 653 q 929 720 914 702 q 953 750 943 739 q 974 775 964 763 q 993 799 984 787 q 1013 825 1002 810 q 1038 859 1024 840 q 1057 882 1044 866 q 1069 897 1064 890 q 1078 908 1074 903 q 1104 947 1090 925 q 1136 997 1119 968 q 1167 1046 1154 1025 q 1190 1080 1181 1067 q 1204 1086 1194 1086 q 1230 1081 1214 1087 q 1260 1066 1245 1075 q 1284 1046 1274 1057 q 1293 1028 1295 1036 z "},"N":{"ha":1163,"x_min":117,"x_max":1099,"o":"m 148 201 q 167 281 156 233 q 190 387 178 330 q 214 506 202 444 q 237 626 227 568 q 254 735 247 684 q 264 822 262 786 q 264 852 265 836 q 265 883 263 868 q 275 912 267 899 q 301 936 282 926 q 343 946 324 947 q 385 932 362 945 q 394 918 389 930 q 403 889 399 905 q 411 855 408 873 q 418 824 415 837 q 447 746 427 793 q 498 643 468 699 q 567 525 529 587 q 648 399 606 462 q 735 277 690 336 q 823 166 779 217 q 854 300 841 237 q 879 426 868 364 q 901 548 890 487 q 921 673 911 608 q 932 748 926 707 q 944 830 939 789 q 953 911 949 872 q 958 979 957 950 q 958 1002 958 990 q 959 1024 958 1013 q 963 1044 960 1034 q 975 1061 967 1054 q 1015 1085 997 1081 q 1052 1089 1032 1089 q 1069 1078 1061 1089 q 1084 1053 1078 1067 q 1094 1022 1090 1038 q 1098 996 1097 1006 q 1095 968 1099 987 q 1087 926 1092 949 q 1076 882 1082 904 q 1067 848 1071 861 q 1036 712 1052 787 q 1005 562 1020 638 q 978 414 991 486 q 956 283 965 341 q 941 186 946 224 q 937 140 936 148 q 938 117 937 130 q 938 92 938 104 q 938 68 938 79 q 939 51 938 57 q 936 23 940 35 q 924 3 931 11 q 908 -11 917 -5 q 892 -18 899 -16 q 871 -23 883 -21 q 849 -25 860 -25 q 828 -23 838 -25 q 813 -16 818 -22 q 770 31 787 8 q 747 75 753 54 q 741 92 746 82 q 729 112 735 102 q 716 130 722 121 q 706 143 710 138 q 619 258 662 200 q 533 382 576 317 q 446 524 490 448 q 355 688 402 599 q 321 544 336 621 q 294 393 306 467 q 272 253 281 319 q 256 140 262 187 q 254 107 254 127 q 254 66 254 87 q 252 28 254 46 q 247 0 251 10 q 236 -18 243 -7 q 220 -37 229 -28 q 200 -53 211 -47 q 180 -60 190 -60 q 149 -54 160 -60 q 132 -36 138 -47 q 123 -6 125 -24 q 118 35 120 12 q 120 63 117 43 q 126 105 122 82 q 136 154 131 129 q 148 201 142 179 z "},"O":{"ha":1116,"x_min":76,"x_max":1073,"o":"m 656 894 q 563 875 606 894 q 480 825 519 856 q 407 754 441 793 q 342 674 373 715 q 289 593 314 638 q 243 498 263 548 q 212 395 224 448 q 200 289 200 342 q 217 198 200 239 q 261 127 234 157 q 325 82 289 98 q 398 66 360 66 q 508 81 454 66 q 610 123 561 96 q 702 185 659 150 q 782 262 745 221 q 848 349 819 304 q 897 437 877 393 q 915 486 907 458 q 927 545 922 514 q 936 606 932 575 q 939 665 939 637 q 938 715 940 693 q 932 749 937 736 q 904 795 925 770 q 848 842 883 821 q 766 879 814 864 q 656 894 718 894 m 1073 629 q 1060 531 1073 585 q 1021 422 1046 478 q 960 311 996 366 q 877 207 923 255 q 741 80 803 130 q 618 2 679 31 q 494 -38 557 -26 q 353 -49 430 -49 q 279 -34 315 -49 q 213 5 243 -20 q 157 63 182 30 q 114 133 132 96 q 86 208 96 170 q 76 283 76 247 q 95 425 76 348 q 150 581 114 503 q 236 731 185 659 q 350 860 287 804 q 487 950 413 916 q 644 984 562 984 q 681 984 659 984 q 728 981 703 983 q 783 976 754 979 q 839 965 811 972 q 891 947 866 958 q 937 922 917 937 q 1011 853 984 886 q 1052 785 1038 820 q 1069 712 1066 751 q 1073 629 1073 674 z "},"P":{"ha":1084,"x_min":144,"x_max":1068,"o":"m 1068 840 q 1048 768 1068 817 q 1030 727 1039 745 q 1013 697 1021 709 q 855 555 964 629 q 636 425 745 481 q 493 358 564 388 q 349 306 421 329 q 345 279 345 300 l 345 257 q 347 204 345 238 q 352 122 349 171 q 357 36 355 73 q 359 -31 359 -2 q 344 -71 359 -56 q 302 -86 328 -86 q 228 237 228 -86 l 228 257 q 233 339 228 295 q 245 446 237 383 q 252 486 249 465 q 258 531 255 507 q 271 612 265 578 q 286 677 277 646 q 291 699 288 686 q 297 726 294 711 q 311 781 304 758 q 330 826 319 804 q 359 867 342 848 q 383 871 370 871 q 421 856 408 871 q 433 814 433 840 q 428 793 433 810 q 417 756 423 776 q 405 719 410 736 q 397 697 399 701 q 387 659 392 683 q 380 618 384 639 q 372 574 376 597 q 365 529 368 552 q 360 486 362 507 q 356 447 358 465 q 354 416 355 429 q 407 439 376 426 q 478 469 437 452 q 621 532 558 502 q 743 597 684 562 q 820 651 783 621 q 892 716 857 681 q 962 850 962 788 q 907 893 962 878 q 850 905 879 901 q 794 912 822 909 q 740 915 766 914 q 692 916 714 916 q 408 886 558 916 q 203 825 336 871 q 179 819 187 819 q 154 828 164 819 q 144 852 144 838 q 164 906 144 886 q 220 942 183 926 q 342 977 259 959 q 425 992 383 985 q 509 1004 467 998 q 637 1014 595 1014 q 708 1013 674 1014 q 775 1010 743 1013 q 841 1003 808 1008 q 908 989 874 998 q 1022 937 976 973 q 1068 840 1068 901 z "},"Q":{"ha":1154,"x_min":71,"x_max":1082,"o":"m 1082 491 q 1071 415 1082 452 q 1041 344 1060 378 q 999 279 1023 310 q 950 221 975 248 q 907 182 928 199 q 864 148 886 164 q 818 118 842 132 q 770 87 795 103 q 800 50 781 72 q 840 3 819 28 q 883 -47 861 -22 q 922 -96 905 -73 q 950 -136 939 -119 q 962 -163 962 -154 q 952 -186 962 -174 q 929 -209 942 -199 q 903 -225 916 -218 q 884 -231 890 -231 q 857 -223 869 -231 q 840 -208 846 -215 q 812 -160 829 -186 q 775 -107 795 -134 q 736 -56 756 -81 q 701 -13 717 -32 q 674 18 684 6 q 663 29 663 29 q 634 23 655 29 q 579 10 612 17 q 503 -3 546 3 q 408 -9 459 -9 q 331 -2 370 -9 q 254 19 291 5 q 183 57 216 34 q 125 112 150 80 q 85 184 100 143 q 71 275 71 224 q 99 446 71 358 q 176 616 127 533 q 288 774 224 700 q 422 903 352 848 q 566 991 493 959 q 707 1024 640 1024 q 745 1013 724 1024 q 784 985 766 1002 q 817 945 803 967 q 831 899 830 922 q 924 813 879 863 q 1004 708 969 763 q 1061 597 1040 653 q 1082 491 1082 541 m 659 899 q 612 896 635 899 q 570 882 589 892 q 474 814 521 854 q 386 723 427 773 q 309 617 344 673 q 248 505 273 562 q 208 392 222 448 q 194 286 194 336 q 214 194 194 231 q 264 134 234 157 q 332 102 295 111 q 401 92 368 92 q 428 93 408 92 q 473 97 448 94 q 528 104 499 100 q 582 117 556 109 q 564 150 578 131 q 532 188 549 170 q 501 221 515 206 q 488 243 488 237 q 497 268 488 256 q 519 288 507 279 q 542 302 531 297 q 554 307 552 307 q 572 310 562 307 q 592 311 582 312 q 610 304 602 311 q 622 281 618 298 q 638 241 627 260 q 662 208 649 222 q 688 185 675 193 q 709 176 701 176 q 759 192 730 176 q 817 233 787 208 q 875 292 846 259 q 926 360 903 326 q 962 429 948 395 q 975 490 975 463 q 956 583 975 535 q 906 676 937 631 q 839 762 876 722 q 767 833 802 803 q 703 881 732 863 q 659 899 673 899 z "},"R":{"ha":1217,"x_min":139,"x_max":1238,"o":"m 1238 24 q 1209 -18 1237 -3 q 1153 -32 1181 -32 q 1078 -15 1116 -32 q 996 31 1040 1 q 937 72 972 46 q 856 134 903 97 q 811 168 844 142 q 723 237 778 194 q 599 329 613 323 q 528 336 576 336 q 495 335 517 336 q 436 332 472 334 q 411 393 411 349 q 437 439 411 431 q 449 440 441 439 q 467 443 456 441 q 489 445 477 444 q 513 447 500 446 q 673 497 604 461 q 723 525 699 510 q 772 555 747 539 q 861 629 822 589 q 900 708 900 669 q 883 763 901 736 q 839 810 866 789 q 781 846 812 831 q 721 869 749 861 q 618 884 671 884 q 581 882 602 884 q 532 878 559 881 q 483 873 506 876 q 439 867 459 870 q 397 859 420 863 q 349 850 374 855 q 376 771 364 825 q 387 684 387 718 q 386 644 387 663 q 384 608 385 625 q 380 572 382 590 q 374 534 378 553 q 358 439 368 496 q 334 281 340 338 q 328 225 330 252 q 326 172 326 198 q 334 90 326 126 q 366 17 342 54 q 338 -8 356 3 q 304 -18 321 -18 q 238 0 259 -18 q 212 48 216 20 q 207 131 207 76 q 211 203 207 165 q 220 273 215 241 q 232 339 226 304 q 239 377 235 355 q 247 430 242 400 q 262 545 256 490 q 268 643 268 600 q 265 728 268 684 q 257 821 262 772 q 174 799 182 799 q 146 812 153 799 q 139 847 139 825 q 187 897 139 873 q 236 918 212 908 q 283 935 260 927 q 429 965 338 952 q 579 979 519 979 q 779 955 682 979 q 943 870 875 932 q 1010 707 1010 809 q 961 581 1010 642 q 846 475 912 520 q 703 390 780 431 q 825 304 747 359 q 897 254 863 277 q 960 209 931 230 q 1026 164 990 189 q 1105 110 1062 139 q 1182 59 1149 81 q 1238 24 1215 38 z "},"S":{"ha":850,"x_min":24,"x_max":807,"o":"m 807 861 q 805 840 807 852 q 799 813 803 827 q 790 788 795 800 q 779 770 785 777 q 721 750 763 750 q 708 827 721 796 q 686 851 702 841 q 650 867 670 861 q 611 877 631 874 q 576 880 591 880 q 514 879 544 880 q 455 873 484 878 q 396 861 426 869 q 335 840 367 853 q 284 816 311 830 q 235 785 258 802 q 197 746 213 767 q 176 700 180 725 q 188 656 175 681 q 223 609 201 632 q 274 567 245 586 q 334 539 302 548 q 359 530 339 537 q 401 516 378 524 q 443 502 424 509 q 468 494 463 496 q 695 401 621 455 q 770 269 770 347 q 759 219 770 244 q 730 172 747 195 q 694 130 713 149 q 657 98 674 111 q 612 66 637 83 q 559 34 587 50 q 500 5 530 18 q 438 -19 469 -9 q 374 -38 408 -29 q 308 -52 340 -46 q 244 -62 275 -58 q 191 -66 214 -66 q 145 -61 173 -66 q 90 -46 117 -56 q 43 -25 62 -37 q 24 2 24 -12 q 26 24 24 11 q 33 49 28 37 q 43 70 37 61 q 56 78 49 78 q 84 74 70 78 q 119 64 99 69 q 166 54 139 58 q 233 50 194 50 q 318 58 274 50 q 404 81 361 66 q 484 113 446 95 q 553 151 522 132 q 584 173 567 161 q 616 201 602 186 q 642 233 631 216 q 652 268 652 250 q 614 317 652 294 q 537 353 576 340 q 468 374 498 366 q 384 399 431 383 q 282 436 338 414 q 126 539 190 471 q 62 703 62 607 q 90 789 61 747 q 168 865 119 830 q 279 928 216 901 q 408 971 342 956 q 441 977 422 974 q 481 983 460 981 q 521 987 502 985 q 554 989 541 989 q 595 986 570 989 q 646 980 620 984 q 695 970 672 976 q 733 956 719 964 q 787 911 768 937 q 807 861 807 886 z "},"T":{"ha":974,"x_min":16,"x_max":1075,"o":"m 1075 907 q 1070 876 1075 886 q 1059 861 1066 865 q 1043 857 1052 857 q 1025 857 1034 857 q 983 857 1002 857 q 946 858 964 857 q 906 859 927 859 q 859 859 886 859 q 791 854 830 859 q 713 842 751 849 q 644 826 675 834 q 601 810 612 817 q 591 801 595 807 q 583 786 586 794 q 577 770 579 779 q 574 756 574 762 q 559 614 568 684 q 544 474 551 543 q 531 336 536 404 q 526 201 526 268 q 529 166 526 189 q 536 120 532 144 q 543 79 540 97 q 546 58 546 60 q 542 30 546 44 q 531 5 538 16 q 513 -13 524 -6 q 490 -20 503 -20 q 473 -16 482 -20 q 454 -3 463 -11 q 437 17 445 5 q 426 41 430 28 q 417 80 420 58 q 412 125 414 102 q 409 173 410 149 q 408 215 408 196 q 409 248 408 235 q 409 266 409 262 q 413 330 409 286 q 423 429 417 374 q 436 542 429 484 q 450 648 444 600 q 460 727 456 696 q 464 759 464 758 q 459 774 464 770 q 448 781 454 779 q 437 781 442 782 q 431 781 432 781 q 365 776 406 781 q 278 765 324 771 q 184 755 232 760 q 96 750 136 750 q 77 750 86 750 q 57 752 67 750 q 38 760 47 754 q 18 775 28 765 q 17 793 17 782 q 19 815 16 804 q 28 835 21 826 q 50 848 35 844 q 119 859 80 854 q 198 865 158 863 q 277 871 239 868 q 345 878 315 873 q 397 884 366 880 q 461 893 429 888 q 525 903 494 898 q 576 911 556 907 q 662 930 616 920 q 755 951 708 941 q 848 967 802 961 q 936 974 894 974 q 952 974 941 974 q 979 972 964 973 q 1011 968 994 970 q 1043 960 1028 965 q 1056 951 1050 958 q 1066 937 1062 945 q 1073 920 1070 928 q 1075 907 1075 912 z "},"U":{"ha":1073,"x_min":121,"x_max":1015,"o":"m 951 329 q 930 253 944 289 q 895 184 916 218 q 842 119 873 151 q 771 57 812 87 q 718 28 751 41 q 648 6 685 15 q 573 -8 611 -3 q 504 -14 535 -14 q 438 -5 475 -14 q 365 16 401 3 q 297 45 329 29 q 249 77 266 62 q 191 149 215 109 q 151 234 167 189 q 129 326 136 279 q 121 419 121 373 q 127 505 121 458 q 142 601 134 552 q 160 696 151 649 q 175 782 170 743 q 181 822 177 794 q 191 881 186 850 q 201 940 196 912 q 210 981 206 968 q 236 1025 218 1008 q 279 1043 254 1043 q 298 1033 288 1043 q 315 1009 307 1023 q 327 982 322 996 q 332 961 332 968 q 329 944 332 957 q 321 913 326 930 q 311 876 316 895 q 300 838 305 856 q 292 808 295 821 q 288 791 288 795 q 280 749 285 777 q 271 686 276 721 q 260 614 265 652 q 250 541 254 576 q 243 475 245 505 q 240 427 240 445 q 277 231 240 322 q 314 184 287 208 q 374 142 340 161 q 440 112 407 123 q 495 100 473 100 q 599 105 553 100 q 683 126 646 111 q 748 168 720 141 q 798 239 777 195 q 824 310 815 275 q 838 379 833 345 q 845 445 843 413 q 850 506 847 477 q 859 613 857 558 q 865 719 862 667 q 872 817 867 771 q 886 899 877 863 q 920 977 901 955 q 969 1001 937 1001 q 991 995 983 1001 q 1006 978 1000 989 q 1013 954 1011 968 q 1015 926 1015 941 q 1011 863 1015 899 q 1001 789 1006 827 q 988 716 995 751 q 978 659 982 682 q 971 588 972 625 q 969 510 970 551 q 964 424 968 469 q 951 329 961 378 z "},"V":{"ha":1014,"x_min":28,"x_max":1019,"o":"m 1019 852 q 928 631 1019 798 q 873 539 902 585 q 845 496 859 516 q 818 456 831 475 q 792 417 805 437 q 765 378 779 398 q 725 319 745 349 q 682 258 704 290 q 613 155 640 196 q 566 70 587 112 q 536 -8 545 28 q 456 3 496 -8 q 398 88 439 7 q 355 176 378 129 q 309 281 333 224 q 262 395 286 338 q 214 511 238 452 q 165 633 169 626 q 107 771 134 709 q 58 882 80 833 q 28 993 37 930 q 78 1029 45 1029 q 125 1010 97 1029 q 140 973 125 1008 q 184 866 155 937 q 246 716 213 795 q 317 547 279 637 q 385 388 355 457 q 437 267 414 318 q 492 161 482 166 q 587 288 530 203 q 646 378 616 332 q 705 475 675 424 q 759 568 735 526 q 800 644 783 610 q 832 708 814 672 q 869 788 849 743 q 906 869 890 833 q 933 932 922 905 q 958 954 941 954 q 1001 917 984 954 q 1019 852 1019 879 z "},"W":{"ha":1407,"x_min":75,"x_max":1398,"o":"m 1398 1029 q 1389 931 1398 993 q 1364 792 1380 870 q 1331 648 1348 715 q 1296 533 1313 582 q 1233 362 1263 434 q 1199 283 1218 326 q 1158 191 1181 241 q 1118 102 1136 142 q 1088 31 1101 62 q 1063 9 1082 18 q 1032 0 1043 0 q 972 32 1000 0 q 920 117 945 64 q 887 190 907 142 q 836 307 866 237 q 781 434 806 377 q 735 536 756 491 q 656 396 713 505 q 600 289 627 341 q 545 184 572 236 q 445 7 490 81 q 385 -66 400 -66 q 329 -39 353 -66 q 289 32 306 -11 q 271 83 280 54 q 252 152 262 113 q 236 212 241 191 q 229 236 231 233 q 176 454 203 335 q 119 717 148 574 q 111 748 117 726 q 95 805 104 770 q 75 905 75 876 q 92 941 75 924 q 124 958 108 958 q 165 919 140 958 q 206 827 190 881 q 219 779 212 808 q 237 705 227 749 q 261 603 248 661 q 292 471 275 545 q 323 338 309 396 q 348 236 337 279 q 368 161 359 192 q 384 113 377 131 q 473 264 435 199 q 536 372 511 329 q 579 451 562 416 q 609 510 597 485 q 641 582 621 536 q 690 694 661 627 q 699 707 693 701 q 712 719 705 713 q 727 727 719 724 q 743 730 735 730 q 804 652 768 730 q 850 545 821 612 q 920 382 879 478 q 1025 158 1000 191 q 1137 385 1088 264 q 1219 630 1185 505 q 1272 863 1254 755 q 1293 1060 1289 970 q 1310 1086 1293 1069 q 1341 1103 1327 1103 q 1385 1078 1373 1103 q 1398 1029 1398 1054 z "},"X":{"ha":1019,"x_min":0,"x_max":997,"o":"m 997 81 q 966 26 997 53 q 908 -1 937 -1 q 749 106 876 -1 q 673 180 711 138 q 589 279 635 222 q 570 302 581 289 q 545 331 559 315 q 495 389 516 364 q 456 440 473 414 q 387 381 423 415 q 317 311 350 348 q 195 168 252 240 q 172 140 185 157 q 142 103 159 124 q 112 63 125 82 q 86 28 98 45 q 77 13 83 22 q 66 -6 72 3 q 53 -22 60 -16 q 43 -28 47 -29 q 13 0 26 -28 q 0 66 0 26 q 51 183 0 117 q 180 323 102 249 q 255 393 220 360 q 321 457 290 427 q 385 536 385 517 q 314 679 385 552 q 255 786 279 743 q 218 852 231 829 q 193 926 193 900 q 210 990 193 954 q 249 1028 228 1028 q 288 990 272 1028 q 299 964 293 979 q 315 929 306 949 q 331 892 323 909 q 346 857 338 874 q 373 799 359 827 q 404 743 388 770 q 440 684 420 716 q 486 615 461 652 q 565 698 524 658 l 656 789 q 726 861 707 840 q 749 887 736 871 q 777 920 762 902 q 789 937 784 930 q 800 950 795 945 q 811 965 804 956 q 828 986 819 975 q 908 1022 857 1022 q 933 1016 922 1022 q 951 999 944 1009 q 963 974 959 988 q 966 945 966 960 q 908 903 966 903 q 884 892 897 903 q 858 865 871 881 q 832 831 845 849 q 811 802 820 814 q 760 738 785 766 q 710 685 734 709 q 680 657 700 675 q 630 612 661 639 q 577 562 600 585 q 539 522 555 540 q 601 447 570 484 q 662 374 631 410 q 724 305 692 339 q 791 238 756 271 q 857 180 825 205 q 918 139 888 156 q 951 123 933 130 q 966 118 960 120 q 974 115 972 116 q 997 81 997 107 z "},"Y":{"ha":946,"x_min":40,"x_max":977,"o":"m 977 1139 q 975 1127 977 1135 q 972 1112 974 1119 q 933 1038 967 1083 q 844 925 900 993 q 802 873 827 903 q 745 802 777 842 q 715 763 729 782 q 688 727 701 745 q 663 690 675 709 q 636 650 650 671 q 626 632 635 646 q 601 590 616 617 q 549 513 570 538 q 546 463 547 489 q 544 409 545 437 q 542 356 543 380 q 539 312 541 332 q 535 231 537 272 q 529 125 533 190 q 521 7 524 20 q 490 -23 517 -7 q 447 -40 463 -40 q 407 -16 427 -40 q 387 28 387 8 q 399 159 387 67 q 418 302 412 250 q 432 488 432 441 q 419 543 432 518 q 353 591 387 561 q 289 656 319 622 q 255 696 273 674 q 213 746 236 718 q 179 788 191 774 q 165 804 167 803 q 144 829 157 814 q 113 861 131 843 q 82 895 96 880 q 60 918 69 909 q 40 951 40 938 q 77 984 40 964 q 127 1004 114 1004 q 159 994 142 1004 q 197 961 176 983 q 244 908 218 940 q 304 833 270 876 q 364 759 337 791 q 414 705 391 726 q 455 673 436 684 q 490 663 473 663 q 513 686 491 663 q 529 705 524 698 q 536 713 535 711 q 585 772 565 747 q 619 814 606 798 q 652 857 633 832 q 698 916 672 882 q 745 979 724 951 q 784 1030 767 1007 q 819 1078 802 1053 q 856 1129 837 1103 q 884 1166 872 1154 q 916 1178 896 1178 q 957 1168 937 1178 q 977 1139 977 1158 z "},"Z":{"ha":1178,"x_min":82,"x_max":1255,"o":"m 1255 248 q 1240 218 1255 222 q 1209 213 1234 217 q 1141 203 1184 209 q 1044 186 1089 193 q 956 171 1000 178 q 865 156 911 163 q 766 139 819 148 q 668 123 714 130 q 581 111 623 116 q 417 91 499 99 q 253 81 335 83 q 212 52 237 71 q 167 23 188 33 q 121 14 146 14 q 105 21 113 14 q 93 39 98 28 q 85 59 88 49 q 82 77 82 70 q 91 97 82 85 q 114 125 99 109 q 150 159 129 140 q 196 198 171 178 q 270 256 237 231 q 331 303 302 281 q 385 347 359 325 q 439 397 411 369 q 470 433 450 410 q 513 484 490 456 q 562 544 537 513 q 611 605 587 576 q 653 657 634 633 q 684 693 673 680 q 782 789 727 745 q 714 808 774 808 q 648 804 691 808 q 586 798 619 802 q 520 790 553 794 q 455 784 487 787 q 397 781 423 781 q 277 787 334 781 q 171 812 220 793 q 151 821 159 817 q 139 829 144 825 q 133 841 134 834 q 131 857 131 847 q 133 873 131 862 q 137 895 134 884 q 143 917 140 907 q 150 932 146 928 q 194 946 160 946 q 295 912 250 924 q 385 901 341 901 q 436 903 408 901 q 495 906 465 904 q 554 909 525 907 q 609 913 584 911 q 671 916 648 916 q 715 917 694 916 q 760 921 735 918 q 829 931 785 924 q 904 942 873 939 q 953 946 935 946 q 978 941 965 946 q 1001 928 991 936 q 1018 909 1012 920 q 1025 886 1025 898 q 1017 868 1025 876 q 994 846 1004 855 q 976 828 985 836 q 957 810 966 819 q 936 789 948 801 q 795 638 865 716 q 661 488 725 559 q 596 414 629 452 q 529 339 563 376 q 462 266 496 302 q 397 199 429 231 q 494 207 447 201 q 587 220 541 212 q 683 236 634 227 q 783 254 731 245 q 1226 296 1025 296 q 1255 248 1255 283 z "},"[":{"ha":564,"x_min":125,"x_max":567,"o":"m 567 985 q 541 950 567 966 q 463 933 514 933 q 422 934 441 934 q 387 934 404 934 q 350 935 370 935 q 307 935 330 935 q 287 925 294 935 q 279 907 279 915 q 280 900 279 905 q 283 886 281 895 q 286 857 286 867 q 278 615 283 690 q 270 487 275 577 q 254 252 264 397 q 240 21 245 106 q 235 -94 235 -64 q 236 -113 235 -98 q 238 -157 237 -129 q 243 -216 241 -214 q 291 -228 256 -228 q 304 -228 298 -228 q 317 -227 309 -227 q 382 -216 340 -227 q 428 -206 426 -206 q 484 -259 484 -206 q 465 -308 484 -294 q 410 -328 447 -322 q 343 -336 392 -332 q 275 -347 294 -342 q 225 -360 252 -352 q 177 -369 199 -369 q 140 -350 155 -369 q 125 -309 125 -331 q 127 -285 125 -300 q 131 -251 128 -271 q 135 -217 134 -231 q 136 -194 136 -203 q 136 -171 136 -184 q 134 -138 135 -157 q 132 -105 132 -119 q 131 -83 131 -92 q 132 -52 131 -71 q 134 -9 132 -34 q 138 62 135 15 q 147 180 142 109 q 155 296 153 252 q 159 358 158 340 q 165 448 163 418 q 169 486 167 463 q 172 541 170 509 q 176 598 174 574 q 178 642 177 623 q 180 723 180 680 q 174 816 180 758 q 153 916 168 875 q 139 975 139 959 q 164 1031 139 1015 q 257 1048 189 1048 q 277 1048 264 1048 q 304 1049 289 1048 l 368 1051 q 395 1052 383 1052 q 416 1052 408 1052 q 434 1053 425 1053 q 453 1053 443 1053 q 567 985 567 1053 z "},"\\":{"ha":762,"x_min":18,"x_max":743,"o":"m 743 -90 q 729 -125 743 -114 q 699 -136 722 -131 q 664 -142 675 -142 q 642 -134 646 -142 q 610 -70 625 -100 q 581 -12 595 -40 q 521 111 554 44 q 443 267 488 178 q 415 323 429 295 q 389 378 402 351 q 360 436 375 406 q 330 498 346 466 q 267 619 297 564 q 205 721 237 673 q 176 768 193 743 q 145 814 159 793 q 133 833 138 825 q 123 847 127 841 q 115 861 120 853 q 103 879 110 869 q 57 956 75 924 q 29 1008 39 989 q 18 1050 18 1032 q 43 1083 18 1069 q 90 1097 68 1097 q 131 1072 113 1097 q 172 1002 149 1048 q 203 945 195 955 q 267 851 235 901 q 326 746 298 801 q 342 715 335 729 q 355 691 350 702 q 381 645 368 670 q 408 595 395 619 q 445 518 427 556 q 481 441 463 480 q 516 373 497 409 q 557 296 535 337 q 642 141 602 215 q 721 -11 682 66 q 743 -90 743 -57 z "},"]":{"ha":582,"x_min":-13,"x_max":529,"o":"m 529 1026 q 507 950 529 988 q 491 911 498 935 q 479 849 485 887 q 467 777 475 829 q 443 635 458 724 q 412 444 422 515 q 410 414 411 431 q 407 378 408 397 q 404 318 406 358 q 401 218 403 279 q 399 120 400 157 q 397 70 398 83 q 393 10 395 43 q 389 -62 391 -23 q 387 -123 388 -101 q 387 -153 387 -146 q 388 -178 387 -163 q 392 -210 389 -193 q 398 -268 398 -246 q 338 -325 398 -325 q 284 -319 319 -325 q 252 -315 267 -316 q 226 -313 237 -313 q 186 -315 210 -313 q 130 -321 163 -317 q 39 -329 64 -329 q 6 -319 25 -329 q -13 -296 -13 -309 q -1 -231 -13 -260 q 41 -203 11 -203 q 65 -204 52 -203 q 92 -206 79 -205 q 116 -208 105 -207 q 133 -208 127 -208 q 184 -202 146 -208 q 217 -198 203 -199 q 241 -197 231 -197 q 251 -196 246 -196 q 262 -195 256 -195 q 279 -199 273 -195 q 292 -186 284 -198 l 292 64 q 296 205 292 94 q 304 357 300 316 q 310 400 307 377 q 315 447 313 423 q 321 494 318 471 q 326 539 324 517 q 333 586 328 546 q 349 701 338 627 q 366 820 359 775 q 376 879 373 864 q 381 892 378 884 q 390 912 385 900 q 401 947 401 937 q 385 966 401 966 q 268 958 317 966 q 211 944 254 955 q 147 933 170 933 q 102 946 128 933 q 74 975 74 960 q 98 1031 74 998 q 144 1064 123 1064 q 157 1063 150 1064 q 175 1061 165 1063 q 192 1059 185 1060 q 204 1059 199 1059 q 222 1060 209 1059 q 256 1064 235 1061 q 298 1070 278 1067 q 335 1075 317 1072 q 373 1080 353 1078 q 412 1085 392 1082 q 445 1089 432 1088 q 464 1090 458 1090 q 508 1069 486 1090 q 529 1026 529 1048 z "},"^":{"ha":799,"x_min":53,"x_max":760,"o":"m 760 436 q 755 419 760 429 q 745 400 751 409 q 731 384 739 391 q 715 378 724 378 q 682 401 701 378 q 665 423 672 412 q 652 444 657 434 q 629 479 645 456 q 587 536 613 502 q 408 772 477 690 l 399 771 q 372 745 385 760 q 345 713 358 730 q 302 655 321 680 q 268 610 283 629 q 229 547 248 584 q 170 444 183 467 q 140 402 154 418 q 106 386 125 386 q 68 406 84 386 q 53 449 53 427 q 79 497 53 465 q 126 558 105 532 q 164 611 148 585 q 193 655 179 634 q 220 694 206 675 q 243 726 233 712 q 267 757 253 739 q 281 779 272 764 q 305 815 291 793 q 332 856 319 837 q 355 889 345 874 q 381 914 370 907 q 411 921 393 921 q 437 910 427 921 q 460 873 448 900 q 489 825 470 853 q 536 761 508 798 q 554 739 544 751 q 578 709 565 726 q 603 678 591 693 q 628 648 616 663 q 714 537 670 602 q 760 436 760 473 z "},"_":{"ha":579,"x_min":-41,"x_max":621,"o":"m 621 -104 q 612 -132 621 -125 q 579 -139 604 -139 q 509 -133 562 -139 q 464 -129 481 -130 q 437 -127 446 -127 q 363 -130 406 -127 q 275 -136 320 -133 q 188 -142 231 -139 q 113 -144 145 -144 q 93 -144 107 -144 q 56 -142 79 -143 q 20 -140 34 -140 q 0 -139 5 -139 q -31 -126 -21 -139 q -41 -94 -41 -113 q -30 -66 -41 -78 q 0 -54 -18 -54 q 15 -53 3 -54 q 46 -51 26 -52 q 80 -48 66 -50 q 104 -47 95 -47 q 134 -48 117 -47 q 173 -50 151 -49 q 215 -52 195 -52 q 256 -53 236 -53 q 347 -47 286 -53 q 400 -43 377 -44 q 440 -41 424 -41 q 509 -47 450 -41 q 555 -53 538 -51 q 579 -54 573 -54 q 609 -67 597 -54 q 621 -104 621 -80 z "},"`":{"ha":436,"x_min":45,"x_max":401,"o":"m 401 753 q 386 721 401 736 q 350 707 371 707 q 336 711 347 707 q 313 726 326 716 q 291 745 306 732 q 259 771 275 758 q 227 798 242 785 q 204 815 211 810 q 182 831 200 819 q 140 859 164 843 q 45 953 45 919 q 50 966 45 959 q 61 979 55 972 q 75 989 68 985 q 88 993 83 993 q 113 987 98 993 q 145 968 127 981 q 182 939 167 952 q 213 913 198 926 q 245 887 228 901 q 286 857 262 873 q 333 825 313 839 q 366 802 353 811 q 401 753 401 778 z "},"a":{"ha":911,"x_min":46,"x_max":1119,"o":"m 1119 462 q 1117 443 1119 454 q 1111 420 1115 431 q 1103 398 1107 408 q 1094 381 1099 387 q 1082 367 1090 376 q 1065 347 1074 357 q 1044 324 1055 336 q 1021 301 1033 312 q 938 226 979 262 q 855 162 898 190 q 766 118 812 134 q 665 102 720 101 q 615 111 640 102 q 567 137 589 120 q 528 178 545 154 q 505 230 512 201 q 464 188 486 210 q 419 143 442 165 q 370 100 395 121 q 319 61 345 79 q 283 41 304 52 q 240 21 262 30 q 194 6 217 12 q 153 0 172 0 q 105 17 125 0 q 72 60 85 35 q 53 113 59 85 q 46 164 46 142 q 59 256 46 209 q 93 347 72 302 q 139 431 113 391 q 189 503 164 471 q 250 567 214 535 q 323 625 285 600 q 397 666 361 650 q 463 682 434 682 q 493 682 477 682 q 524 680 509 682 q 555 674 540 678 q 582 663 570 671 q 596 648 588 659 q 611 622 604 636 q 623 593 618 608 q 628 571 628 579 q 618 511 628 549 q 598 426 607 465 q 589 347 589 388 q 596 300 589 324 q 617 256 604 276 q 651 224 631 237 q 696 212 671 212 q 781 229 738 212 q 869 276 825 246 q 958 346 913 307 q 1044 431 1002 386 q 1056 445 1048 435 q 1074 464 1065 454 q 1092 482 1083 474 q 1105 490 1101 490 q 1119 462 1119 490 m 515 518 q 514 547 515 530 q 505 574 513 564 q 487 585 498 585 q 465 585 476 585 q 419 577 441 585 q 376 556 397 570 q 336 526 355 543 q 298 490 317 509 q 266 451 283 474 q 232 400 248 428 q 199 343 215 373 q 172 283 184 313 q 154 226 161 254 q 147 176 147 199 q 149 158 147 170 q 154 137 151 147 q 164 119 158 126 q 180 111 171 111 q 258 131 212 111 q 374 205 322 158 q 463 314 426 252 q 515 518 515 410 z "},"b":{"ha":942,"x_min":144,"x_max":1164,"o":"m 1164 493 q 1145 449 1164 472 q 1109 415 1132 433 q 1054 374 1087 396 q 983 328 1021 351 q 903 279 946 304 q 819 229 861 254 q 735 181 778 205 q 664 140 692 157 q 621 114 636 123 q 589 88 606 104 q 550 49 572 71 q 428 -56 495 -6 q 346 -82 392 -82 q 300 -72 321 -82 q 278 -40 278 -62 q 289 -16 278 -26 q 327 19 309 5 q 362 46 344 33 q 402 73 380 59 q 453 106 424 86 q 507 142 488 130 q 529 157 526 155 q 603 218 570 187 q 659 281 635 249 q 707 427 707 345 q 701 465 707 441 q 684 511 695 488 q 658 550 673 534 q 624 567 643 567 q 584 559 604 567 q 545 538 564 551 q 506 509 525 526 q 469 475 488 492 q 400 399 433 441 q 329 304 366 357 q 297 250 311 277 q 274 196 283 222 q 260 146 265 170 q 255 107 256 123 l 252 52 q 236 21 251 32 q 201 9 222 9 q 157 33 170 9 q 144 104 144 56 q 144 127 144 111 q 146 165 145 144 q 148 209 146 186 q 149 252 149 232 q 151 288 150 273 q 152 309 151 303 q 157 391 154 351 q 164 471 160 430 q 173 555 168 511 q 184 648 178 598 q 196 744 190 699 q 208 831 201 789 q 221 914 214 873 q 240 996 229 955 q 245 1014 241 1000 q 256 1041 250 1027 q 269 1065 262 1055 q 284 1076 276 1076 q 296 1077 290 1076 q 311 1076 303 1077 q 326 1073 319 1076 q 340 1063 334 1070 q 350 1048 346 1057 q 355 1031 353 1040 q 356 1015 356 1023 q 357 1002 357 1007 q 350 966 357 992 q 334 897 343 940 q 301 741 317 821 q 275 582 285 661 q 269 524 272 555 q 262 459 265 492 q 257 391 259 425 q 254 324 254 356 q 297 398 275 357 q 352 477 319 439 q 416 547 385 516 q 486 604 448 577 q 624 659 560 659 q 696 641 663 660 q 756 591 730 622 q 795 521 781 559 q 808 446 809 483 q 789 358 808 421 q 770 310 779 327 q 753 281 760 294 q 808 316 778 297 q 868 354 838 335 q 928 392 899 374 q 982 425 958 410 q 998 436 986 428 q 1031 457 1010 444 q 1071 483 1053 471 q 1105 505 1089 495 q 1141 525 1136 525 q 1159 515 1154 525 q 1164 493 1164 505 z "},"c":{"ha":729,"x_min":68,"x_max":961,"o":"m 961 467 q 943 422 961 442 q 924 405 937 416 q 901 383 911 393 l 839 321 q 806 289 821 303 q 779 265 791 275 q 732 226 760 249 q 669 174 705 203 q 538 78 598 115 q 411 19 479 41 q 267 -3 342 -3 q 183 14 220 -4 q 120 61 146 31 q 82 132 95 92 q 69 218 68 173 q 107 399 69 309 q 210 576 146 489 q 293 665 244 623 q 380 707 341 707 q 429 671 401 707 q 454 634 442 654 q 477 591 467 614 q 497 528 497 547 q 485 477 497 508 q 456 446 473 446 q 415 479 431 446 q 403 508 407 496 q 395 533 399 519 q 368 591 379 574 q 294 547 323 583 q 264 505 279 530 q 232 449 249 480 q 207 394 218 425 q 187 331 195 363 q 174 267 179 299 q 170 207 170 235 q 203 130 170 168 q 278 94 238 94 q 443 125 365 94 q 593 206 521 155 q 737 322 664 256 q 807 385 774 355 q 869 441 840 414 q 951 485 919 485 q 961 467 961 485 z "},"d":{"ha":982,"x_min":41,"x_max":1186,"o":"m 1186 468 q 1178 435 1186 451 q 1109 343 1163 405 q 1055 283 1084 313 q 993 223 1025 254 q 930 168 960 193 q 870 124 899 144 q 778 85 812 85 q 743 94 764 85 q 675 166 701 114 q 641 275 651 218 q 624 403 631 332 q 404 122 539 245 q 123 -1 269 -1 q 62 41 83 -1 q 41 129 41 83 q 52 220 41 190 q 117 382 80 307 q 207 532 154 458 q 286 627 241 579 q 370 694 330 674 q 510 721 418 721 q 564 686 542 721 q 598 604 587 650 q 610 526 610 554 q 628 594 620 559 q 642 665 636 628 q 653 742 648 701 q 663 828 659 782 q 665 859 664 840 q 669 904 667 878 q 677 993 673 957 q 688 1040 681 1029 q 745 1068 704 1068 q 785 1059 765 1068 q 806 1036 806 1051 q 803 1010 806 1028 q 794 962 800 991 q 780 890 789 933 q 760 787 770 847 q 755 760 759 781 q 748 717 752 740 q 741 675 744 694 q 736 651 737 656 q 722 548 728 596 q 717 450 717 500 q 719 357 717 411 q 729 252 721 303 q 753 201 737 201 q 887 252 808 201 q 1038 370 965 304 q 1166 497 1110 437 q 1174 501 1171 501 q 1184 490 1181 501 q 1186 468 1186 479 m 554 425 q 527 443 536 429 q 518 473 518 456 q 522 513 518 487 q 526 554 526 540 q 520 582 526 566 q 503 610 513 597 q 480 632 493 623 q 456 642 468 642 q 358 566 420 642 q 301 492 327 528 q 253 422 275 457 q 213 354 229 385 q 184 298 196 323 q 144 163 144 212 q 187 100 144 100 q 292 144 225 100 q 397 228 360 191 q 462 296 436 269 q 503 341 488 324 q 530 379 517 358 q 554 425 543 400 z "},"e":{"ha":731,"x_min":109,"x_max":946,"o":"m 946 468 q 931 432 946 458 q 852 330 896 381 q 759 234 808 279 q 657 148 710 188 q 549 80 604 109 q 441 35 495 51 q 337 20 387 20 q 169 83 229 20 q 109 274 109 146 q 141 481 109 380 q 254 674 174 581 q 287 705 269 690 q 327 732 306 720 q 369 750 347 743 q 414 758 391 757 q 429 757 419 758 q 449 752 438 755 q 470 744 460 749 q 486 731 480 739 q 516 686 505 709 q 529 635 528 663 q 522 574 530 604 q 493 512 513 544 q 441 447 473 481 q 362 375 408 414 q 297 321 333 351 q 212 259 262 292 q 251 159 212 193 q 360 125 291 125 q 438 135 399 125 q 515 162 477 145 q 589 200 553 178 q 656 243 625 221 q 760 327 713 286 q 853 415 807 369 l 890 452 q 938 481 923 481 q 946 468 946 481 m 428 603 q 425 623 427 613 q 418 640 422 633 q 407 652 413 648 q 393 656 401 656 q 321 613 357 654 q 253 503 285 571 q 240 469 245 488 q 229 431 234 450 q 220 393 224 412 q 214 359 216 374 q 279 408 249 385 q 334 454 309 430 q 368 486 351 469 q 398 522 385 503 q 420 562 412 541 q 428 603 429 582 z "},"f":{"ha":553,"x_min":-26,"x_max":796,"o":"m 796 522 q 779 484 796 509 q 750 453 762 459 q 717 443 745 450 q 522 412 637 424 q 415 404 465 407 q 323 401 366 401 q 316 348 319 376 q 309 292 312 320 q 301 238 305 264 q 295 188 298 211 q 282 86 290 141 q 264 -45 275 31 q 232 -175 251 -124 q 156 -300 205 -248 q 43 -355 107 -355 q -1 -342 24 -355 q -26 -309 -26 -329 q -23 -288 -26 -300 q -14 -264 -20 -275 q -2 -245 -9 -253 q 14 -237 5 -237 q 45 -241 25 -237 q 77 -245 66 -245 q 105 -220 93 -235 q 125 -184 117 -204 q 141 -140 134 -163 q 152 -90 147 -116 q 169 3 161 -41 q 183 88 177 47 q 194 168 189 129 q 203 248 199 208 q 209 304 205 269 q 213 367 213 340 q 207 386 214 377 q 190 402 199 394 q 174 419 181 410 q 168 437 167 427 q 205 496 168 450 q 246 568 242 541 q 252 603 249 582 q 260 653 255 625 q 276 747 269 710 q 298 824 284 784 q 332 899 313 864 q 412 992 363 949 q 510 1035 460 1035 q 597 998 561 1035 q 635 911 635 963 q 585 771 635 845 q 532 728 557 728 l 530 728 q 542 828 542 775 q 531 905 542 866 q 496 946 521 946 q 443 914 467 946 q 401 846 418 883 q 359 708 378 794 q 343 628 349 665 q 334 558 336 591 l 334 529 q 401 501 334 501 q 506 502 458 501 q 595 506 554 503 q 678 514 635 509 q 766 529 721 519 q 777 530 771 530 q 788 530 782 530 q 796 522 796 530 z "},"g":{"ha":677,"x_min":-37,"x_max":623,"o":"m 612 521 q 604 417 607 474 q 595 290 600 360 q 589 232 593 264 q 582 165 586 199 q 574 97 578 130 q 566 36 570 63 q 550 -46 559 -3 q 526 -130 541 -88 q 491 -208 512 -171 q 442 -274 471 -245 q 376 -318 414 -302 q 290 -335 338 -335 q 229 -328 260 -335 q 167 -308 197 -320 q 109 -278 137 -295 q 57 -241 81 -260 q 10 -196 31 -219 q -24 -150 -10 -174 q -37 -104 -37 -127 q -24 -83 -37 -83 q -14 -88 -19 -83 q -7 -94 -11 -90 q 0 -102 -3 -98 q 6 -109 3 -106 q 9 -113 9 -112 q 289 -233 140 -233 q 370 -211 338 -233 q 420 -152 401 -188 q 449 -71 439 -115 q 465 17 458 -26 q 472 71 469 44 q 478 128 475 98 q 484 190 481 157 q 490 260 486 222 q 419 197 462 231 q 329 135 377 163 q 231 88 280 106 q 140 69 182 69 q 108 77 123 69 q 82 101 93 85 q 65 138 71 116 q 58 187 58 160 q 72 271 58 227 q 106 360 85 316 q 153 447 127 405 q 203 522 179 488 q 262 590 228 554 q 337 655 297 625 q 419 703 376 684 q 503 722 462 722 q 570 706 538 722 q 618 659 601 690 q 623 636 622 651 q 622 603 623 622 q 618 563 621 585 q 612 521 615 542 m 501 397 q 507 447 504 418 q 513 518 509 475 q 518 563 515 541 q 516 600 520 585 q 495 625 511 619 q 444 630 479 630 q 379 580 412 610 q 318 515 347 550 q 263 444 288 481 q 219 372 238 407 q 186 295 198 333 q 174 230 174 256 q 178 211 174 218 q 190 199 182 203 q 206 193 197 195 q 224 191 215 191 q 276 201 248 191 q 330 227 303 212 q 382 258 357 241 q 424 288 406 275 q 444 305 431 294 q 468 332 456 317 q 490 364 480 347 q 501 397 499 381 z "},"h":{"ha":1107,"x_min":115,"x_max":1321,"o":"m 1321 446 q 1301 401 1321 431 q 1282 374 1293 389 q 1258 343 1270 359 q 1233 315 1245 328 q 1211 292 1221 301 q 1128 215 1172 252 q 1037 150 1084 178 q 939 103 989 121 q 836 85 888 85 q 765 100 796 85 q 717 148 734 115 q 690 222 699 181 q 676 311 682 264 q 674 334 675 319 q 671 367 673 349 q 667 404 669 385 q 661 438 664 422 q 653 464 657 454 q 643 473 648 473 q 585 445 622 473 q 505 371 549 417 q 416 268 462 326 q 332 151 371 210 q 269 47 297 99 q 220 -43 241 -5 q 195 -68 208 -61 q 178 -75 182 -75 q 156 -70 167 -75 q 135 -57 144 -65 q 120 -38 126 -49 q 115 -18 115 -28 q 118 11 115 -9 q 125 56 121 31 q 133 108 129 81 q 140 158 137 135 q 151 256 144 203 q 162 365 157 310 q 172 471 168 419 q 180 566 177 524 q 182 602 180 579 q 184 651 183 624 q 187 707 186 677 q 190 765 189 737 q 192 818 191 793 q 194 860 193 843 q 196 895 195 879 q 201 927 198 911 q 210 959 204 943 q 224 994 216 975 q 233 1008 227 1000 q 247 1021 239 1015 q 264 1032 255 1027 q 283 1036 273 1036 q 318 1021 302 1036 q 334 977 334 1005 q 331 954 334 968 q 324 923 328 939 q 316 892 320 907 q 311 870 313 878 q 302 806 306 842 q 294 733 298 770 q 288 660 290 696 q 283 595 285 623 q 278 534 281 562 q 272 477 275 505 q 266 420 269 449 q 260 358 263 391 q 250 270 256 308 q 243 204 243 231 q 248 195 243 200 q 256 189 252 189 l 258 189 q 274 212 264 197 q 296 244 283 227 q 321 281 308 262 q 347 317 334 300 q 375 352 360 333 q 407 391 391 372 q 441 431 424 411 q 475 467 458 450 q 522 511 496 488 q 575 553 547 534 q 632 585 604 572 q 686 597 661 597 q 699 594 691 597 q 714 586 707 591 q 729 574 722 581 q 739 557 736 567 q 759 484 753 521 q 770 407 765 448 q 779 336 774 372 q 791 269 783 299 q 810 220 798 239 q 840 201 822 201 q 1000 239 924 201 q 1070 277 1041 258 q 1125 315 1100 295 q 1176 358 1151 334 q 1234 413 1201 382 q 1311 473 1300 473 q 1321 446 1321 473 z "},"i":{"ha":647,"x_min":140,"x_max":852,"o":"m 407 993 q 384 918 407 949 q 318 886 361 886 q 258 895 291 886 q 225 921 225 903 q 246 984 225 954 q 296 1034 267 1015 q 326 1047 319 1047 q 386 1037 365 1047 q 407 993 407 1026 m 851 441 q 839 403 852 427 q 803 348 825 378 q 750 281 780 317 q 686 211 720 246 q 606 133 648 170 q 515 60 564 95 q 346 -11 420 -11 q 218 44 264 -11 q 157 178 173 100 q 140 339 140 256 q 149 447 140 374 q 157 510 153 484 q 165 553 161 536 q 205 608 175 585 q 271 633 237 633 q 289 599 289 633 q 284 547 289 576 q 275 489 280 517 q 262 393 267 435 q 258 319 258 351 q 277 181 258 251 q 346 110 296 110 q 463 146 396 110 q 529 189 496 165 q 595 240 562 212 q 661 297 629 269 q 722 357 692 326 q 775 414 751 387 q 817 463 799 440 q 819 467 817 464 q 823 473 821 470 q 827 478 825 476 q 831 479 829 480 q 845 465 840 479 q 851 441 851 450 z "},"j":{"ha":422,"x_min":-136,"x_max":452,"o":"m 452 977 q 444 956 452 971 q 426 923 437 940 q 405 892 416 905 q 389 879 395 879 q 363 882 373 879 q 344 893 353 886 q 328 913 336 901 q 309 943 319 926 q 297 963 301 955 q 293 978 293 971 q 300 1001 293 989 q 317 1022 307 1013 q 340 1038 328 1032 q 364 1044 353 1044 q 395 1040 379 1044 q 423 1026 410 1035 q 444 1005 435 1017 q 452 977 452 992 m 332 625 q 328 609 332 620 q 318 586 323 597 q 309 563 313 574 q 302 546 304 551 q 295 492 297 526 q 292 408 292 457 q 293 368 292 392 q 294 318 294 344 q 295 267 294 292 q 296 227 296 243 q 295 116 296 165 q 290 22 294 66 q 279 -60 286 -21 q 262 -140 273 -100 q 233 -218 250 -182 q 190 -278 215 -253 q 133 -318 165 -304 q 59 -332 100 -332 q 12 -326 35 -332 q -34 -312 -12 -321 q -74 -292 -56 -303 q -107 -269 -93 -281 q -129 -247 -121 -258 q -136 -229 -136 -237 q -125 -210 -136 -210 q -105 -214 -121 -210 q -66 -223 -89 -218 q -17 -233 -44 -229 q 37 -237 10 -237 q 157 -137 130 -237 q 184 101 184 -37 q 184 143 184 119 q 183 194 184 168 q 182 247 182 220 q 180 299 181 274 q 179 344 180 323 q 179 378 179 364 q 211 608 179 534 q 286 668 237 668 q 319 656 306 668 q 332 625 332 645 z "},"k":{"ha":949,"x_min":119,"x_max":1180,"o":"m 1180 463 q 1167 437 1180 460 q 1132 379 1155 414 q 1078 300 1109 344 q 1010 213 1047 257 q 931 126 972 168 q 845 50 889 83 q 756 -3 801 17 q 669 -23 711 -23 q 616 -16 641 -23 q 569 5 591 -8 q 527 36 547 18 q 489 73 507 54 q 443 126 465 100 q 400 177 420 153 q 361 219 380 200 q 324 248 342 237 q 316 239 323 246 q 302 224 310 233 q 286 207 294 216 q 274 194 278 199 q 245 156 256 173 q 230 125 233 138 q 225 98 227 113 q 224 66 224 82 q 221 21 224 39 q 210 -8 218 3 q 189 -23 202 -19 q 156 -28 176 -28 q 125 -16 132 -28 q 119 22 119 -4 q 121 63 119 41 q 127 107 123 85 q 135 151 131 129 q 141 192 138 172 q 156 298 149 246 q 169 401 163 349 q 182 505 176 452 q 195 614 188 557 q 212 792 205 701 q 222 960 218 882 q 226 987 222 973 q 239 1014 231 1002 q 260 1033 248 1025 q 288 1041 273 1041 q 321 1034 309 1041 q 340 1018 334 1027 q 350 998 347 1008 q 352 980 352 987 q 349 945 352 968 q 340 893 345 922 q 329 834 335 865 q 317 778 323 804 q 308 733 312 751 q 304 709 304 714 q 281 576 289 627 q 269 498 273 526 q 252 359 259 416 q 239 268 244 301 q 295 332 266 298 q 354 399 324 365 q 412 468 383 433 q 467 536 441 503 q 506 587 484 557 q 553 646 528 617 q 607 697 578 675 q 663 725 635 720 q 692 722 680 728 q 712 707 704 717 q 723 686 720 697 q 727 666 727 675 q 711 632 727 652 q 671 592 694 613 q 621 549 648 570 q 574 508 595 527 q 519 455 544 479 q 473 408 494 431 q 433 363 452 385 q 395 319 414 342 q 436 288 417 304 q 475 251 455 271 q 515 209 494 231 q 560 163 536 186 q 637 104 604 119 q 696 88 669 88 q 761 106 726 88 q 833 154 796 124 q 909 221 871 183 q 982 297 947 258 q 1048 374 1017 336 q 1103 441 1080 412 q 1142 489 1127 471 q 1160 507 1157 507 q 1170 502 1166 507 q 1176 490 1174 497 q 1179 476 1179 484 q 1180 463 1180 469 z "},"l":{"ha":616,"x_min":142,"x_max":787,"o":"m 787 411 q 748 311 787 379 q 727 280 741 298 q 698 243 714 262 q 664 204 682 224 q 629 167 646 184 q 573 117 604 141 q 508 73 542 92 q 437 41 473 53 q 366 29 401 29 q 278 46 319 29 q 207 98 237 63 q 160 187 177 134 q 142 313 142 240 q 147 416 142 362 q 159 524 152 470 q 176 632 167 578 q 195 734 185 685 q 205 790 201 768 q 213 830 210 812 q 219 867 216 848 q 226 913 222 886 q 231 947 229 932 q 235 971 233 962 q 244 1002 237 987 q 260 1029 250 1017 q 283 1047 270 1040 q 311 1054 296 1054 q 359 1023 344 1054 q 351 983 355 1002 q 343 942 347 964 q 315 804 326 857 q 300 729 304 751 q 282 637 292 686 q 266 536 273 587 q 253 434 258 484 q 248 340 248 384 q 256 255 248 294 q 280 190 263 217 q 322 148 296 163 q 386 133 349 133 q 466 151 427 133 q 542 197 505 169 q 610 258 578 224 q 670 323 643 292 q 708 367 692 349 q 735 399 724 386 q 755 420 744 409 q 776 431 766 431 q 787 411 787 431 z "},"m":{"ha":1413,"x_min":145,"x_max":1621,"o":"m 1621 473 q 1618 457 1621 467 q 1612 437 1616 448 q 1604 415 1609 426 q 1592 395 1598 404 q 1562 354 1581 377 q 1521 306 1544 331 q 1473 257 1499 281 q 1423 212 1448 232 q 1378 176 1404 195 q 1324 139 1352 156 q 1265 111 1295 122 q 1209 100 1236 100 q 1166 106 1185 100 q 1131 132 1147 113 q 1103 183 1115 151 q 1082 267 1090 216 q 1075 314 1078 289 q 1068 363 1072 338 q 1063 410 1065 387 q 1056 450 1060 433 q 1048 477 1053 467 q 1038 488 1044 488 q 1014 473 1029 488 q 976 430 998 458 q 929 362 955 401 q 876 274 904 323 q 783 125 821 176 q 714 75 745 75 q 651 119 667 75 q 633 269 636 163 q 618 426 631 371 q 586 481 606 481 q 550 459 574 481 q 497 399 527 437 q 433 308 468 360 q 364 193 399 255 q 342 156 355 177 q 318 114 330 135 q 293 73 305 92 q 273 42 281 54 q 225 14 253 14 q 157 66 174 14 q 151 89 153 80 q 147 105 149 97 q 145 124 146 114 q 145 151 145 134 q 147 200 145 178 q 151 246 149 223 q 158 296 154 269 q 166 357 162 322 q 172 420 170 387 q 177 485 175 453 q 182 543 180 516 q 189 585 184 569 q 198 604 191 593 q 215 624 205 614 q 236 641 225 634 q 255 648 247 648 q 278 642 269 648 q 293 625 288 635 q 301 599 299 614 q 304 569 304 585 q 301 528 304 553 q 293 475 298 504 q 282 416 288 447 q 271 358 277 386 q 261 307 266 330 q 255 269 257 283 q 247 209 249 231 q 245 174 245 187 q 267 200 254 182 q 297 241 281 218 q 331 294 313 265 q 368 352 349 322 q 396 399 380 373 q 430 453 412 426 q 464 503 447 479 q 495 543 481 527 q 554 593 524 576 q 618 610 585 610 q 674 584 650 610 q 707 518 699 559 q 713 474 711 499 q 718 422 715 450 q 721 368 720 395 q 725 317 723 341 q 731 277 727 293 q 739 253 734 262 q 746 240 743 243 q 751 236 749 236 q 795 290 764 236 q 829 350 810 317 q 871 423 848 383 q 921 499 895 463 q 973 564 947 536 q 1021 609 998 592 q 1059 625 1043 625 q 1080 623 1069 625 q 1101 617 1090 621 q 1119 607 1111 613 q 1131 595 1126 602 q 1145 558 1141 578 q 1152 510 1149 537 q 1155 451 1154 484 q 1161 378 1157 418 q 1191 251 1171 293 q 1248 210 1211 210 q 1284 219 1262 210 q 1330 244 1305 229 q 1379 278 1354 259 q 1426 317 1404 298 q 1468 355 1448 336 q 1508 394 1488 374 q 1550 436 1529 414 q 1596 482 1571 458 q 1611 490 1604 490 q 1621 473 1621 490 z "},"n":{"ha":1053,"x_min":123,"x_max":1280,"o":"m 1280 485 q 1276 459 1280 472 q 1265 432 1272 446 q 1251 407 1259 419 q 1235 382 1242 394 q 1189 320 1215 352 q 1132 259 1162 289 q 1070 203 1102 229 q 1008 156 1038 176 q 961 125 983 140 q 917 101 939 111 q 870 85 895 91 q 817 79 846 79 q 725 107 760 79 q 694 144 707 121 q 671 195 681 167 q 654 254 661 222 q 642 315 647 285 q 631 384 636 353 q 618 434 625 414 q 601 466 611 455 q 574 477 591 477 q 550 475 562 477 q 526 464 538 472 q 498 441 513 456 q 464 401 484 426 q 418 342 444 377 q 357 258 392 307 q 317 205 340 234 q 270 151 294 177 q 223 106 246 125 q 182 81 200 86 q 123 229 123 94 q 131 338 123 265 q 140 408 135 372 q 154 480 146 444 q 173 551 162 517 q 197 614 183 585 q 212 636 204 628 q 227 647 219 644 q 243 652 235 651 q 260 653 252 653 q 280 638 271 653 q 288 597 288 623 q 286 566 288 581 q 278 537 283 552 q 268 505 273 522 q 257 465 262 488 q 248 425 253 447 q 238 379 243 402 q 231 334 234 356 q 228 294 228 312 q 232 269 228 282 q 294 326 251 271 q 343 387 317 354 q 401 460 370 420 q 447 516 425 490 q 494 561 470 542 q 546 592 519 581 q 607 603 574 603 q 666 588 642 603 q 703 546 689 572 q 725 481 718 519 q 738 399 733 444 q 746 324 742 361 q 760 257 749 287 q 791 210 771 228 q 850 191 812 191 q 911 205 879 191 q 978 242 943 218 q 1051 299 1013 267 q 1128 370 1088 332 q 1163 408 1144 385 q 1199 452 1181 431 q 1233 488 1217 473 q 1258 503 1249 503 q 1271 498 1262 503 q 1280 485 1280 494 z "},"o":{"ha":803,"x_min":54,"x_max":1061,"o":"m 1061 568 q 1056 545 1061 557 q 1043 522 1051 533 q 1025 501 1035 511 q 1005 485 1015 491 q 938 457 981 469 q 829 446 894 446 q 726 459 778 446 q 625 503 673 472 q 645 457 641 479 q 650 406 650 435 q 623 292 650 352 q 554 178 596 231 q 465 92 512 126 q 407 57 439 72 q 341 34 376 43 q 269 20 307 24 q 194 16 232 16 q 142 33 168 16 q 98 74 117 50 q 66 126 78 98 q 54 176 54 154 q 69 282 54 231 q 108 379 83 332 q 165 472 133 427 q 235 562 198 517 q 281 611 255 587 q 336 654 307 635 q 393 685 364 673 q 449 696 422 696 q 486 690 471 696 q 516 673 502 684 q 544 645 530 662 q 578 607 559 628 q 611 589 584 601 q 676 566 639 577 q 755 546 714 555 q 831 538 797 538 q 893 540 865 538 q 948 548 922 543 q 1002 563 975 553 q 1059 586 1028 572 q 1061 568 1061 576 m 555 406 q 552 449 555 425 q 540 494 549 473 q 518 529 532 515 q 484 540 504 543 q 432 566 452 552 q 401 579 412 579 q 383 574 393 579 q 363 560 374 569 q 343 539 353 551 q 322 515 332 528 q 284 467 302 488 q 252 424 267 445 q 222 379 237 402 q 194 326 208 355 q 183 297 188 314 q 175 262 178 280 q 170 226 172 244 q 168 194 168 208 q 174 173 168 185 q 190 148 180 160 q 213 128 200 136 q 237 120 225 120 q 296 123 272 120 q 341 134 321 126 q 383 155 362 142 q 432 191 404 169 q 459 214 446 201 q 485 243 472 228 q 509 274 498 258 q 531 306 521 290 q 543 331 538 316 q 550 361 547 346 q 554 388 553 376 q 555 406 555 400 z "},"p":{"ha":933,"x_min":74,"x_max":1177,"o":"m 1177 521 q 1162 471 1177 500 q 1151 455 1159 463 q 1133 438 1142 446 q 1115 424 1124 430 q 1102 414 1106 417 q 1044 373 1080 395 q 966 325 1009 350 q 875 273 923 299 q 779 222 827 247 q 685 174 730 197 q 602 135 640 152 q 551 107 575 123 q 503 79 526 92 q 456 57 479 66 q 406 48 432 48 q 375 52 390 48 q 349 64 361 56 q 331 84 338 72 q 323 115 323 97 q 330 132 323 124 q 347 147 336 140 q 369 159 357 153 q 393 168 381 164 q 421 178 405 173 q 455 188 438 183 q 488 199 472 193 q 515 210 504 204 q 556 239 537 221 q 591 277 575 256 q 622 321 608 298 q 648 365 636 344 q 664 397 656 379 q 677 432 671 414 q 686 466 683 450 q 689 492 689 481 q 669 567 689 539 q 618 595 648 595 q 574 582 599 595 q 525 552 549 570 q 478 515 500 534 q 444 482 457 496 q 386 410 413 449 q 334 330 358 371 q 288 248 309 289 q 248 168 266 206 q 232 98 239 136 q 220 13 224 59 q 209 -151 212 -79 q 193 -282 205 -222 q 174 -320 189 -304 q 133 -337 158 -337 q 115 -333 125 -337 q 96 -323 105 -330 q 80 -308 87 -316 q 74 -289 74 -299 q 77 -234 74 -267 q 84 -168 80 -201 q 92 -107 88 -134 q 97 -69 96 -80 q 114 82 106 1 q 126 258 121 163 q 128 312 127 279 q 130 380 129 346 q 132 444 131 414 q 134 486 133 473 q 202 615 144 615 q 224 609 214 615 q 243 594 235 604 q 256 574 251 585 q 260 551 260 562 q 255 500 260 528 q 244 444 250 473 q 233 387 238 415 q 228 336 228 359 q 232 317 228 317 q 325 467 279 402 q 416 574 370 532 q 473 624 445 602 q 531 664 502 647 q 590 689 559 680 q 656 699 621 699 q 705 688 680 700 q 751 651 730 675 q 784 592 771 627 q 797 513 798 557 q 786 445 798 479 q 756 378 775 411 q 713 315 738 345 q 663 258 689 284 q 777 310 718 279 q 894 376 836 340 q 1009 449 953 411 q 1118 523 1066 487 q 1143 541 1133 534 q 1164 549 1152 549 q 1175 539 1173 549 q 1177 521 1177 530 z "},"q":{"ha":903,"x_min":68,"x_max":1114,"o":"m 1114 447 q 1092 383 1114 419 q 1015 285 1061 336 q 916 182 968 233 q 803 71 863 130 q 738 6 777 45 q 646 -83 699 -32 q 542 -187 575 -151 q 523 -210 530 -200 q 510 -224 515 -219 q 493 -262 503 -235 q 449 -334 473 -322 q 421 -324 437 -331 q 393 -306 406 -317 q 370 -283 379 -296 q 363 -256 361 -270 q 380 -165 363 -226 q 422 -26 397 -103 q 457 75 448 50 q 495 188 479 137 q 525 281 512 239 q 519 278 522 280 q 495 258 511 272 q 464 232 479 245 q 424 201 446 218 q 372 165 401 184 q 260 100 317 127 q 163 74 203 74 q 92 96 115 74 q 68 207 68 119 q 115 377 68 280 q 169 471 138 426 q 236 562 199 517 q 314 642 274 606 q 397 705 354 677 q 558 761 481 761 q 619 734 591 761 q 654 675 648 707 q 650 644 650 660 q 663 595 650 627 q 677 543 677 563 q 669 505 677 538 q 654 447 661 472 q 644 410 648 421 q 628 352 639 390 q 600 256 616 314 q 570 156 583 199 q 547 82 557 113 q 524 9 538 52 q 493 -89 511 -34 q 546 -43 515 -69 q 616 17 576 -17 q 692 82 657 52 q 757 140 726 112 q 879 257 823 201 q 983 366 935 313 q 1022 409 999 383 q 1076 472 1046 435 q 1093 482 1086 482 q 1109 471 1104 482 q 1114 447 1114 460 m 576 557 q 545 543 563 543 q 524 575 524 543 q 526 591 522 583 q 534 606 530 599 q 542 620 538 613 q 545 632 545 626 q 535 652 545 645 q 513 659 526 659 q 335 543 460 659 q 263 456 305 515 q 225 396 242 426 q 193 336 208 367 q 164 239 164 276 q 186 175 164 175 q 262 201 207 175 q 351 248 315 226 q 454 321 396 275 q 533 397 512 367 q 576 557 576 455 z "},"r":{"ha":711,"x_min":127,"x_max":765,"o":"m 765 547 q 764 535 765 543 q 761 520 764 528 q 754 506 758 512 q 745 500 751 500 q 731 500 741 500 q 711 501 722 500 q 691 502 701 502 q 677 503 682 503 q 462 408 548 494 q 315 181 377 323 q 293 121 304 152 q 271 55 281 90 q 263 21 266 36 q 256 -9 261 7 q 244 -20 254 -15 q 221 -29 234 -25 q 197 -36 209 -33 q 182 -39 186 -39 q 129 58 135 -41 q 127 107 127 85 q 129 150 127 130 q 133 194 130 171 q 138 245 135 216 q 146 326 141 280 q 157 419 151 372 q 170 508 163 466 q 184 578 176 551 q 204 626 191 610 q 243 643 218 642 q 258 639 250 643 q 272 629 266 635 q 283 616 279 623 q 288 604 288 610 q 288 567 289 587 q 283 526 286 547 q 275 483 279 505 q 265 441 270 461 q 251 375 256 403 q 242 322 245 348 q 235 267 239 296 q 227 194 232 237 q 247 238 238 220 q 262 270 255 256 q 274 295 269 284 q 287 318 280 306 q 302 344 294 330 q 322 378 310 358 q 424 507 370 457 q 528 578 478 557 q 622 608 585 606 q 664 606 640 608 q 711 595 688 603 q 749 576 733 588 q 765 547 765 564 z "},"s":{"ha":579,"x_min":25,"x_max":817,"o":"m 817 490 q 811 466 817 479 q 795 439 805 453 q 772 410 785 425 q 746 381 759 395 q 724 358 736 370 q 698 331 713 346 q 664 297 684 317 q 618 252 644 278 q 565 204 594 229 q 507 154 536 178 q 450 107 477 130 q 401 68 422 85 q 309 -8 353 28 q 222 -72 264 -43 q 87 -129 137 -129 q 48 -120 71 -129 q 25 -96 25 -111 q 58 -26 25 -52 q 160 25 91 -3 q 262 78 228 52 q 296 149 296 104 q 249 239 296 171 q 208 303 226 274 q 177 355 190 332 q 151 454 151 402 q 168 550 151 500 q 194 607 176 578 q 233 659 212 636 q 276 695 254 682 q 314 708 298 709 q 374 637 374 708 q 354 585 374 610 q 331 559 345 572 q 300 531 317 546 q 271 506 283 517 q 252 488 259 495 q 273 405 252 452 q 300 355 285 382 q 334 296 315 328 q 368 240 354 265 q 388 204 381 216 q 395 201 389 201 q 428 215 405 201 q 484 253 452 229 q 554 307 516 276 q 630 372 592 338 q 695 434 669 408 q 744 484 721 460 q 778 519 767 507 q 791 532 789 532 q 801 528 796 532 q 809 517 806 524 q 815 504 813 511 q 817 490 817 496 z "},"t":{"ha":518,"x_min":-13,"x_max":823,"o":"m 823 597 q 810 559 823 572 q 779 536 796 546 q 729 517 756 526 q 672 503 701 509 q 614 492 644 496 q 559 485 585 488 q 498 479 530 482 q 437 474 467 477 q 381 467 407 471 q 340 456 356 463 q 310 339 326 395 q 283 227 294 283 q 276 189 281 214 q 268 135 272 163 q 261 82 264 106 q 258 46 258 57 q 267 4 258 18 q 286 -18 275 -9 q 305 -34 296 -26 q 314 -56 314 -41 q 305 -75 314 -66 q 283 -90 296 -83 q 255 -101 270 -97 q 230 -104 241 -104 q 195 -94 210 -104 q 168 -65 179 -83 q 151 -26 157 -48 q 145 20 145 -3 q 151 87 145 52 q 164 160 156 123 q 181 236 172 197 q 199 314 191 275 q 206 348 202 330 q 213 380 210 365 q 218 406 216 395 q 220 418 220 416 q 212 434 220 429 q 193 440 204 440 q 169 439 185 440 q 135 435 153 437 q 100 432 117 433 q 77 431 84 431 q 35 434 52 431 q 8 445 18 437 q -8 468 -3 453 q -13 505 -13 482 q -4 520 -13 515 q 17 528 5 526 q 44 531 30 530 q 69 531 58 531 q 98 533 78 531 q 140 536 118 534 q 182 540 162 538 q 211 542 202 542 q 220 543 215 542 q 232 546 226 543 q 242 556 237 549 q 250 576 247 564 q 262 626 255 597 q 276 683 269 654 q 290 740 283 713 q 301 787 296 768 q 312 828 307 806 q 320 871 316 850 q 328 913 323 893 q 340 951 333 934 q 389 986 355 986 q 439 930 439 986 q 424 851 439 896 q 376 681 391 748 q 360 591 360 614 q 385 566 360 566 q 443 567 416 566 q 497 571 469 568 q 555 576 524 573 q 623 584 585 580 q 675 592 650 587 q 721 601 700 597 q 758 610 742 606 q 785 615 774 614 q 800 617 793 616 q 812 617 807 618 q 820 612 817 616 q 823 597 823 608 z "},"u":{"ha":1061,"x_min":132,"x_max":1312,"o":"m 1312 549 q 1299 490 1312 523 q 1263 429 1286 457 q 1199 356 1235 392 q 1125 287 1164 320 q 1046 226 1086 254 q 969 177 1006 198 q 898 145 931 157 q 840 133 865 133 q 784 144 808 133 q 743 173 760 155 q 714 217 726 192 q 694 270 703 242 q 680 327 686 298 q 670 385 675 357 q 632 327 653 359 q 587 261 610 294 q 539 197 564 228 q 494 143 515 166 q 443 95 471 118 q 383 55 414 72 q 317 27 351 37 q 245 16 282 16 q 161 60 192 16 q 132 162 132 104 q 136 219 132 189 q 146 277 140 248 q 157 335 152 307 q 165 388 163 363 q 166 413 165 398 q 166 449 166 429 q 166 483 166 467 q 167 512 166 498 q 169 539 168 526 q 173 568 170 553 q 191 608 177 591 q 236 625 205 625 q 298 538 298 625 q 295 506 298 524 q 288 468 292 488 q 280 429 284 449 q 272 390 275 409 q 258 337 265 363 q 246 286 252 311 q 237 237 240 260 q 233 194 233 214 q 236 171 233 184 q 244 148 239 159 q 259 129 250 136 q 280 121 268 121 q 353 141 316 121 q 423 191 389 161 q 486 254 456 220 q 538 315 515 288 q 581 381 559 343 q 622 460 602 419 q 659 542 641 501 q 690 615 676 583 q 747 690 722 690 q 772 684 766 690 q 778 661 778 678 q 775 624 778 647 q 768 576 772 601 q 761 528 764 551 q 758 492 758 505 q 758 464 758 480 q 759 429 758 447 q 761 394 760 412 q 766 365 763 377 q 775 330 768 351 q 792 290 782 309 q 818 256 803 270 q 852 242 833 242 q 936 264 889 242 q 1031 320 982 286 q 1128 396 1080 354 q 1217 480 1176 439 q 1250 513 1234 496 q 1281 540 1267 529 q 1303 554 1295 551 q 1312 549 1312 557 z "},"v":{"ha":810,"x_min":151,"x_max":1088,"o":"m 1088 536 q 1084 520 1088 528 q 1074 505 1080 512 q 1059 491 1067 498 q 1044 477 1051 484 q 996 443 1023 459 q 939 416 968 427 q 880 397 909 404 q 825 391 850 391 q 786 394 808 391 q 742 404 764 397 q 699 417 720 410 q 663 434 678 425 q 653 413 661 430 q 634 371 646 397 q 608 312 623 345 q 576 242 593 279 q 512 108 543 168 q 457 0 481 47 q 433 -39 445 -24 q 412 -62 422 -54 q 394 -74 402 -71 q 380 -77 386 -77 q 351 -68 365 -77 q 323 -40 338 -60 q 325 -25 324 -32 q 326 -14 326 -19 q 307 72 326 16 q 250 208 288 128 q 213 290 231 248 q 181 373 195 332 q 159 448 168 413 q 151 509 151 484 q 155 548 151 528 q 168 584 159 568 q 191 612 177 601 q 224 623 205 623 q 270 605 252 623 q 288 559 288 588 q 285 538 288 549 q 280 517 283 528 q 276 495 278 506 q 273 474 273 484 q 276 443 273 464 q 283 396 278 422 q 297 341 288 370 q 318 285 306 312 q 343 227 330 260 q 369 163 356 193 q 391 113 381 134 q 406 92 401 92 q 417 105 409 92 q 437 141 426 119 q 461 192 448 163 q 487 252 474 221 q 512 313 500 283 q 534 370 524 344 q 550 411 542 390 q 566 451 558 432 q 581 488 574 471 q 596 517 589 505 q 621 545 606 536 q 655 554 635 554 q 673 550 665 554 q 690 541 682 546 q 705 529 698 535 q 720 518 712 522 q 738 508 725 515 q 765 495 750 502 q 798 484 781 489 q 829 479 814 479 q 882 484 859 479 q 926 495 905 488 q 964 509 946 501 q 1000 525 982 517 q 1042 542 1027 536 q 1072 548 1057 548 q 1088 536 1088 548 z "},"w":{"ha":1246,"x_min":151,"x_max":1539,"o":"m 1539 566 q 1532 536 1539 551 q 1513 510 1525 522 q 1486 487 1501 498 q 1457 469 1472 477 q 1379 440 1422 452 q 1281 429 1335 429 q 1231 432 1254 429 q 1186 442 1207 436 q 1147 455 1165 448 q 1112 469 1128 463 q 1058 371 1083 426 q 1008 247 1033 317 q 987 188 996 213 q 970 139 978 162 q 953 91 962 115 q 932 35 944 66 q 919 12 928 25 q 898 -14 910 -1 q 873 -34 886 -26 q 850 -43 861 -43 q 795 -21 821 -43 q 751 31 770 1 q 684 173 712 100 q 638 318 656 245 q 616 393 621 393 q 603 377 612 393 q 582 335 593 360 q 557 279 570 309 q 533 221 544 248 q 514 174 522 194 q 504 149 506 154 q 378 -71 444 -6 q 363 -77 372 -77 q 317 -60 338 -77 q 283 -21 296 -44 q 274 0 280 -15 q 261 36 269 16 q 246 78 254 56 q 231 120 238 100 q 219 156 224 140 q 212 178 214 172 q 191 261 201 214 q 171 358 180 309 q 156 454 162 408 q 151 533 151 500 q 172 594 151 575 q 232 612 193 612 q 253 600 245 612 q 266 568 262 587 q 273 524 271 548 q 276 477 275 500 q 277 436 277 455 q 280 408 278 417 q 291 338 284 374 q 306 266 298 301 q 324 199 315 231 q 341 143 333 167 q 357 104 350 119 q 370 90 365 90 q 396 118 377 90 q 438 205 414 146 q 476 301 459 258 q 510 384 494 345 q 544 463 526 424 q 582 546 561 501 q 594 566 586 556 q 611 584 602 576 q 632 596 621 591 q 652 602 642 602 q 688 555 682 602 q 757 234 712 363 q 842 106 802 106 q 865 121 853 106 q 888 160 877 136 q 910 214 900 184 q 930 273 921 243 q 948 329 940 302 q 961 372 956 355 q 980 428 970 399 q 1003 486 991 457 q 1029 542 1015 515 q 1060 593 1044 569 q 1103 624 1081 624 q 1127 620 1118 623 q 1144 613 1137 617 q 1156 602 1151 608 q 1168 587 1162 595 q 1193 565 1177 575 q 1229 548 1210 555 q 1267 535 1248 540 q 1299 531 1286 531 q 1405 541 1352 531 q 1507 581 1458 551 q 1514 585 1510 583 q 1522 588 1517 588 q 1534 585 1529 588 q 1539 566 1539 581 z "},"x":{"ha":940,"x_min":121,"x_max":1169,"o":"m 1169 493 q 1141 425 1169 475 q 1115 382 1128 401 q 1092 349 1103 363 q 948 174 1005 237 q 822 68 892 112 q 675 25 753 25 q 556 65 620 25 q 412 179 492 106 q 361 133 383 157 q 321 86 338 109 q 292 42 304 63 q 273 3 280 20 q 259 -34 267 -14 q 243 -77 252 -54 q 214 -144 229 -124 q 145 -121 169 -142 q 121 -56 121 -99 q 126 -18 121 -37 q 141 20 132 1 q 164 57 151 39 q 191 93 176 76 q 245 155 209 115 q 334 243 281 195 q 307 274 322 256 q 277 312 292 292 q 249 352 262 332 q 228 385 236 371 q 186 474 198 439 q 174 539 174 510 q 179 568 174 554 q 194 592 184 581 q 220 609 205 602 q 257 615 236 615 q 286 604 275 615 q 300 577 296 592 q 304 558 302 569 q 307 535 306 547 q 310 511 309 523 q 314 492 312 500 q 349 399 327 436 q 415 321 372 361 q 517 427 472 374 q 558 484 540 452 q 591 553 576 515 q 606 582 600 570 q 618 600 612 593 q 632 609 625 606 q 650 611 640 611 q 674 606 661 611 q 697 591 687 600 q 715 569 708 582 q 722 542 722 557 q 697 485 722 522 q 657 437 677 458 q 614 389 637 416 q 561 325 590 358 q 494 253 531 292 q 540 214 513 235 q 598 175 568 193 q 660 145 629 157 q 717 134 691 134 q 824 171 770 134 q 942 278 877 208 q 1002 347 971 309 q 1067 427 1034 384 q 1143 514 1135 514 q 1162 508 1155 514 q 1169 493 1169 503 z "},"y":{"ha":874,"x_min":93,"x_max":791,"o":"m 791 606 q 791 579 791 594 q 789 544 790 564 q 786 505 787 525 q 782 463 784 484 q 779 424 780 441 q 777 396 777 408 q 757 205 772 303 q 720 18 742 107 q 615 -233 684 -129 q 424 -339 546 -339 q 262 -307 344 -339 q 126 -220 182 -276 q 93 -165 93 -180 q 103 -127 93 -149 q 127 -106 114 -106 q 140 -114 135 -106 q 184 -165 163 -146 q 419 -245 275 -245 q 519 -191 476 -245 q 557 -134 541 -165 q 587 -71 574 -104 q 610 -3 600 -37 q 628 68 620 32 q 638 121 635 101 q 643 147 642 140 q 648 202 646 176 q 653 254 649 229 q 575 210 634 245 q 512 172 541 189 q 461 142 484 155 q 360 92 416 115 q 267 68 303 68 q 168 119 203 68 q 134 236 134 170 q 144 342 134 283 q 155 396 149 371 q 168 444 161 422 q 183 498 174 467 q 205 570 193 529 q 220 609 212 592 q 239 636 229 625 q 264 653 250 648 q 298 659 278 659 q 330 636 318 659 q 340 593 340 615 q 334 568 340 579 q 325 553 331 563 q 309 528 319 543 q 294 503 300 513 q 288 488 289 493 q 278 459 282 471 q 271 439 274 447 q 264 419 268 431 q 256 393 261 408 q 244 340 248 364 q 240 289 240 316 q 251 223 240 262 q 282 183 262 183 q 427 218 342 183 q 580 309 511 253 q 663 422 648 366 q 667 447 665 431 q 669 483 668 463 q 671 525 670 503 q 672 567 671 547 q 675 603 673 587 q 679 627 676 618 q 736 689 696 689 q 782 670 773 689 q 791 606 791 650 z "},"z":{"ha":838,"x_min":104,"x_max":834,"o":"m 806 138 q 827 126 823 138 q 832 102 831 115 q 815 64 834 86 q 767 20 797 41 q 701 -16 737 -1 q 630 -31 664 -31 q 601 -27 622 -31 q 553 -18 581 -23 q 496 -6 526 -13 q 436 5 465 0 q 384 14 408 10 q 347 18 360 18 q 292 11 314 18 q 253 -5 271 5 q 224 -24 237 -14 q 199 -41 212 -33 q 174 -54 187 -49 q 145 -59 161 -59 q 130 -54 136 -59 q 118 -40 123 -48 q 109 -21 113 -31 q 104 0 106 -10 q 180 82 142 45 q 256 157 218 120 q 331 231 294 193 q 407 314 369 269 q 488 415 452 368 q 549 507 524 463 q 519 513 534 514 q 482 510 504 512 q 450 507 463 508 q 425 506 437 507 q 398 504 412 505 q 363 500 384 503 q 321 495 339 496 q 290 493 303 493 q 142 571 142 493 q 157 607 142 593 q 195 621 173 621 q 209 619 201 621 q 225 615 216 617 q 241 610 233 612 q 253 606 248 607 q 326 596 288 596 q 401 601 361 596 q 481 610 440 605 q 563 620 522 615 q 643 624 604 624 q 666 622 654 624 q 690 614 679 619 q 708 600 701 608 q 715 578 715 591 l 715 575 q 677 509 696 538 q 639 453 659 480 q 596 399 619 427 q 546 338 574 372 q 493 279 524 311 q 434 215 463 247 q 381 154 405 183 q 349 104 358 125 q 360 102 350 103 q 382 102 370 102 q 406 102 395 102 q 421 102 418 102 q 468 98 441 102 q 526 91 494 95 q 595 83 558 86 q 673 79 632 79 q 716 89 696 79 q 754 109 737 98 q 785 129 772 119 q 806 138 799 138 z "},"{":{"ha":587,"x_min":10,"x_max":592,"o":"m 592 -212 q 577 -246 592 -222 q 564 -268 570 -258 q 553 -283 558 -277 q 503 -305 542 -296 q 467 -312 484 -310 q 437 -315 450 -315 q 415 -313 429 -315 q 393 -312 401 -312 q 329 -296 358 -312 q 277 -255 300 -280 q 238 -197 254 -229 q 214 -130 222 -164 q 207 -78 209 -108 q 205 -9 204 -47 q 205 14 205 3 q 206 35 205 24 q 206 58 206 45 q 206 85 206 70 q 196 220 206 178 q 162 263 186 263 q 111 245 152 263 q 60 228 71 228 q 27 248 44 228 q 10 283 10 268 q 48 338 10 309 q 113 375 85 369 q 136 381 118 376 q 218 437 174 397 q 264 510 264 479 q 262 532 264 519 q 256 580 258 548 q 248 632 252 613 q 229 768 229 711 q 336 1000 231 910 q 404 1036 352 1013 q 475 1059 457 1059 q 526 1048 504 1059 q 551 1015 551 1038 q 543 966 551 994 q 517 937 534 937 q 485 941 506 937 q 452 945 463 945 q 392 915 427 945 q 347 859 357 884 q 336 747 337 838 q 347 686 336 727 q 357 619 357 644 q 350 495 357 541 q 330 428 342 448 q 306 398 320 412 q 271 370 291 383 q 235 340 235 348 q 255 323 235 333 q 290 272 279 309 q 302 199 302 235 q 298 90 302 172 q 294 -18 294 9 q 322 -161 292 -113 q 412 -210 353 -210 q 464 -204 441 -210 q 519 -186 485 -199 q 536 -180 531 -180 q 592 -212 592 -180 z "},"|":{"ha":449,"x_min":161,"x_max":271,"o":"m 271 1301 q 267 725 271 1014 q 262 149 262 437 l 262 13 q 263 -39 263 -13 q 264 -92 263 -66 q 265 -207 264 -144 q 265 -353 265 -269 q 265 -458 265 -414 q 264 -533 264 -503 q 210 -688 258 -688 q 191 -683 200 -688 q 176 -672 182 -679 q 165 -656 170 -665 q 161 -637 161 -647 q 164 -428 161 -533 q 169 -218 166 -323 q 174 -7 172 -113 q 176 201 176 98 q 176 257 176 221 q 174 331 175 292 q 173 405 174 370 q 172 460 172 440 q 173 547 172 505 q 174 627 173 589 q 178 825 174 703 q 182 1037 180 947 q 183 1189 183 1128 q 182 1219 183 1202 q 180 1257 181 1236 q 177 1292 178 1279 q 176 1310 176 1305 q 180 1349 176 1334 q 195 1375 183 1364 q 213 1387 203 1381 q 229 1393 223 1393 q 262 1364 254 1393 q 271 1301 271 1334 z "},"}":{"ha":559,"x_min":1,"x_max":550,"o":"m 550 360 q 543 341 550 351 q 527 322 536 331 q 506 308 517 313 q 486 302 494 302 q 387 317 425 302 q 377 305 382 313 q 366 287 371 296 q 358 267 361 277 q 355 252 355 258 q 380 109 355 238 q 392 54 388 73 q 399 22 397 35 q 404 -3 402 9 q 406 -37 405 -16 q 406 -94 408 -63 q 397 -154 404 -124 q 379 -212 390 -184 q 351 -258 368 -239 q 283 -312 323 -293 q 193 -330 244 -330 q 168 -330 180 -330 q 143 -328 155 -330 q 120 -321 131 -326 q 98 -308 109 -317 q 74 -264 74 -288 q 85 -243 74 -252 q 110 -227 96 -233 q 140 -217 125 -220 q 164 -214 155 -214 q 175 -215 168 -214 q 190 -217 182 -216 q 205 -219 198 -218 q 215 -220 212 -220 q 293 -33 292 -191 q 290 13 293 -12 q 283 64 288 38 q 275 117 279 91 q 267 166 271 142 q 260 219 262 197 q 258 258 258 242 q 273 315 258 300 q 321 340 289 330 q 311 344 318 341 q 297 350 304 347 q 282 356 289 353 q 273 361 276 359 q 249 382 260 370 q 228 407 237 393 q 214 435 219 420 q 208 466 208 450 q 224 579 205 516 q 243 636 234 611 q 260 686 252 662 q 277 735 269 710 q 292 793 285 761 q 301 871 301 825 q 291 912 301 894 q 263 943 280 930 q 226 962 246 956 q 186 969 205 969 q 113 961 151 969 q 47 931 75 952 q 31 918 38 924 q 20 913 24 913 q 6 917 10 913 q 1 928 1 922 q 57 1035 1 998 q 225 1072 113 1072 q 265 1065 244 1072 q 306 1047 286 1059 q 343 1020 326 1036 q 371 987 360 1005 q 394 932 385 963 q 403 861 403 901 q 392 777 403 812 q 382 747 389 768 q 368 702 376 726 q 353 659 360 679 q 342 630 346 638 q 326 584 332 606 q 315 541 319 562 q 309 497 311 519 q 307 448 307 474 q 367 414 336 414 q 388 415 374 414 q 419 418 403 416 q 449 420 435 419 q 471 421 464 421 q 527 406 504 421 q 550 360 550 391 z "},"~":{"ha":1080,"x_min":66,"x_max":1032,"o":"m 1032 636 q 1006 561 1032 624 q 987 534 1000 550 q 962 503 974 517 q 889 427 934 465 q 800 379 845 390 q 677 361 718 361 q 610 383 642 361 q 574 412 595 395 q 529 454 554 430 q 482 495 504 477 q 441 526 460 513 q 359 551 404 551 q 344 553 352 551 q 329 555 336 555 q 262 519 301 555 q 199 432 223 484 q 162 370 187 406 q 125 332 138 332 q 84 346 102 332 q 66 382 66 359 q 74 459 66 427 q 107 513 81 490 q 120 525 112 517 q 140 547 128 534 q 184 587 163 573 q 220 609 199 597 q 269 635 241 621 q 349 663 323 663 q 422 648 366 663 q 478 618 441 644 q 518 588 497 604 q 564 551 540 571 q 624 504 612 513 q 654 481 642 490 q 672 469 667 473 q 713 463 684 463 q 725 463 718 463 q 742 465 732 464 q 777 471 762 468 q 807 478 792 475 q 842 503 828 482 q 859 529 850 514 q 877 564 867 544 q 903 611 898 604 q 990 673 949 673 q 1020 663 1008 673 q 1032 636 1032 653 z "},"":{"ha":1162,"x_min":14,"x_max":1131,"o":"m 1131 45 q 1113 -2 1131 18 q 1068 -21 1096 -21 q 1048 -16 1056 -21 q 1027 4 1039 -8 q 1003 36 1016 17 q 957 117 978 75 q 924 192 937 159 q 917 209 920 201 q 909 225 913 217 q 901 244 905 234 q 892 268 897 254 q 864 345 873 326 q 846 330 854 335 q 827 322 837 325 q 807 320 817 320 q 784 319 796 319 q 767 317 777 319 q 745 311 757 314 q 722 303 733 307 q 700 296 710 299 q 631 279 666 287 q 560 265 597 272 q 484 251 524 258 q 399 237 444 245 q 360 211 378 234 q 287 109 342 187 q 195 -4 233 32 q 122 -40 157 -40 q 47 -22 77 -40 q 14 24 14 -1 q 28 42 14 37 q 68 53 43 48 q 105 86 76 54 q 147 138 133 117 q 205 217 176 175 q 271 313 235 260 q 302 359 289 340 q 325 393 316 379 q 346 423 334 406 q 374 461 358 440 q 390 484 380 471 q 412 515 399 498 q 436 546 425 532 q 454 570 446 559 q 474 597 462 581 q 504 636 487 614 q 525 668 509 643 q 568 737 541 693 q 618 829 606 800 q 737 1022 697 1022 q 766 1019 755 1022 q 783 1009 777 1016 q 791 990 789 1002 q 793 961 793 978 q 793 941 793 949 q 792 926 793 932 q 791 899 791 916 q 789 859 790 882 q 853 705 823 787 q 886 615 869 664 q 923 507 903 566 q 958 407 943 448 q 982 340 972 366 q 1005 281 991 314 q 1036 205 1018 248 q 1087 130 1043 190 q 1131 45 1131 71 m 830 446 q 804 526 818 483 q 774 612 789 569 q 743 695 759 655 q 711 766 727 735 q 640 667 673 715 q 574 572 606 620 q 512 474 543 524 q 449 367 481 424 q 463 364 456 364 q 489 366 473 364 q 521 370 505 368 q 553 375 538 372 q 578 380 568 378 q 606 387 594 384 q 629 392 618 389 q 652 398 640 395 q 682 405 665 401 q 760 426 722 415 q 830 446 799 436 m 930 1196 q 863 1128 930 1128 q 824 1144 840 1128 q 808 1183 808 1160 q 823 1221 808 1212 q 878 1241 838 1230 q 894 1244 890 1244 q 921 1230 911 1244 q 930 1196 930 1216 m 677 1135 q 616 1107 677 1107 q 574 1116 602 1107 q 548 1140 548 1125 q 550 1170 548 1156 q 556 1195 551 1184 q 569 1211 560 1205 q 591 1217 577 1217 q 653 1195 630 1217 q 677 1135 677 1173 z "},"":{"ha":1206,"x_min":-8,"x_max":1135,"o":"m 1135 56 q 1116 6 1135 29 q 1071 -17 1097 -17 q 911 131 1008 -17 q 891 163 904 141 q 857 221 878 186 q 823 280 838 256 q 800 315 809 303 q 702 307 747 311 q 618 299 657 302 q 459 279 540 292 q 294 244 379 266 q 265 207 281 229 q 228 157 249 185 q 188 102 207 128 q 150 52 168 75 q 125 22 136 35 q 104 0 115 9 q 82 -13 94 -8 q 57 -17 71 -17 q 16 7 39 -17 q -8 50 -8 33 q 19 102 -8 63 q 48 143 33 122 q 81 186 64 164 q 133 252 98 208 q 222 363 168 296 q 281 439 253 400 q 336 518 309 477 q 397 611 363 559 q 469 728 430 663 q 496 762 481 745 q 533 806 511 780 q 585 877 562 841 q 625 950 608 913 q 631 961 628 956 q 637 971 633 966 q 571 1018 600 989 q 538 1086 538 1050 q 553 1137 538 1099 q 587 1206 568 1175 q 619 1237 606 1237 q 776 1214 715 1237 q 839 1115 839 1190 q 818 992 839 1039 q 770 950 804 960 q 771 945 770 947 q 772 941 772 943 q 779 911 776 927 q 786 876 783 895 q 794 829 793 840 q 812 734 805 772 q 825 674 820 695 q 836 627 829 653 q 852 568 843 600 q 896 452 872 502 q 920 458 898 452 q 943 464 940 464 q 1011 472 987 472 q 1058 463 1038 472 q 1078 431 1078 454 q 1054 389 1078 405 q 1026 375 1042 382 q 987 363 1009 369 q 954 354 966 358 q 936 349 941 351 q 1054 149 1006 203 q 1107 94 1079 123 q 1135 56 1135 64 m 762 425 q 736 533 741 519 q 722 571 728 555 q 714 600 715 588 q 703 677 707 642 q 697 741 699 712 q 689 800 694 775 q 672 828 684 825 q 632 765 656 802 q 575 678 608 728 q 514 588 542 629 q 463 511 486 546 q 420 441 440 476 q 380 372 399 407 q 525 385 452 377 q 597 392 562 388 q 667 401 632 396 q 725 413 701 407 q 762 425 749 418 m 761 1107 q 753 1133 761 1126 q 730 1140 746 1139 q 704 1146 713 1141 q 692 1168 694 1150 q 684 1176 688 1176 q 642 1147 669 1176 q 616 1103 616 1117 q 652 1053 616 1076 q 718 1031 688 1031 q 753 1050 745 1031 q 761 1107 761 1069 z "},"":{"ha":1024,"x_min":91,"x_max":1247,"o":"m 462 -282 q 409 -361 462 -328 q 374 -381 391 -373 q 341 -395 358 -390 q 307 -403 325 -401 q 266 -406 288 -406 q 219 -392 265 -406 q 185 -382 197 -385 q 172 -378 173 -378 q 137 -334 137 -363 q 140 -317 137 -326 q 148 -303 143 -309 q 160 -292 153 -296 q 174 -288 167 -288 q 208 -301 186 -288 q 238 -319 228 -315 q 274 -325 249 -325 q 351 -305 317 -325 q 384 -244 384 -286 q 369 -202 384 -220 q 330 -184 354 -184 q 299 -193 319 -184 q 267 -201 279 -201 q 231 -168 231 -201 q 257 -101 245 -130 q 277 -51 269 -72 q 138 29 184 -33 q 92 204 92 92 q 102 332 91 265 q 135 465 113 399 q 187 591 156 530 q 257 700 218 652 q 312 761 281 729 q 378 822 344 792 q 449 877 413 851 q 517 922 484 903 q 572 951 538 935 q 643 981 606 967 q 716 1005 680 996 q 778 1015 752 1015 q 844 1009 819 1015 q 888 990 869 1004 q 908 969 897 983 q 931 939 920 956 q 948 906 941 922 q 956 878 956 889 q 945 843 956 866 q 920 795 934 820 q 891 749 905 770 q 869 720 877 728 q 810 689 842 689 q 767 706 783 689 q 752 747 752 722 q 762 775 752 756 q 796 817 772 793 q 833 861 820 841 q 850 888 846 881 q 817 903 836 897 q 780 908 797 908 q 719 897 755 908 q 643 868 682 886 q 567 829 604 850 q 506 788 530 808 q 377 664 436 730 q 279 517 318 597 q 250 444 264 484 q 227 361 237 404 q 212 279 218 319 q 207 204 207 238 q 248 85 207 121 q 371 49 289 49 q 444 58 402 49 q 532 82 486 66 q 626 118 578 97 q 717 165 674 140 q 922 299 822 228 q 1105 440 1021 370 q 1164 492 1136 466 q 1217 543 1192 517 q 1247 498 1247 528 q 1190 395 1247 456 q 1052 271 1133 334 q 896 158 970 208 q 760 74 821 109 q 358 -58 528 -58 l 352 -58 q 346 -80 349 -67 q 341 -110 343 -92 q 395 -135 357 -124 q 429 -150 416 -139 q 462 -282 462 -177 z "},"":{"ha":1042,"x_min":110,"x_max":1065,"o":"m 1065 964 q 1062 949 1065 958 q 1055 931 1059 941 q 1045 915 1050 922 q 1033 904 1039 907 q 999 891 1014 895 q 962 882 983 886 q 837 862 898 870 q 721 848 775 853 q 621 841 666 843 q 543 839 575 839 q 512 839 526 839 q 487 839 499 839 q 463 838 475 838 q 439 838 452 838 q 386 838 408 838 q 349 840 364 839 q 334 782 338 817 q 328 710 330 747 q 325 638 326 673 q 321 576 324 603 q 344 562 334 567 q 364 554 354 557 q 385 552 374 552 q 411 551 395 551 q 449 551 428 551 q 490 552 469 551 q 530 555 511 553 q 566 561 550 557 q 612 568 592 568 q 652 569 633 569 q 691 571 671 569 q 735 583 711 574 q 767 596 753 590 q 794 606 781 602 q 819 613 807 610 q 844 615 831 615 q 863 607 855 615 q 874 588 870 600 q 880 561 878 576 q 882 533 882 547 q 871 508 882 518 q 845 491 860 498 q 816 480 831 484 q 792 474 801 476 q 751 469 777 471 q 698 465 726 467 q 644 462 670 463 q 601 459 618 461 q 503 451 554 454 q 400 449 452 449 q 355 446 374 449 q 313 435 336 442 q 303 417 309 434 q 292 376 298 401 q 279 321 286 351 q 267 264 273 291 q 253 189 257 222 q 247 140 248 155 q 257 132 251 136 q 271 127 263 127 q 313 127 288 127 q 364 128 338 127 q 416 130 391 129 q 459 132 441 131 q 553 141 504 136 q 648 151 602 145 q 735 162 694 156 q 806 177 776 169 q 815 180 805 177 q 840 187 825 182 q 874 196 856 191 q 908 205 892 201 q 934 213 924 210 q 944 216 945 216 q 964 210 954 216 q 981 196 973 205 q 992 174 988 186 q 997 148 997 162 q 991 133 997 142 q 977 113 986 123 q 955 94 967 102 q 927 82 942 85 q 863 71 893 76 q 801 62 833 66 q 734 54 770 58 q 656 46 699 50 q 551 35 604 41 q 453 23 498 29 q 371 12 407 17 q 319 3 336 7 q 284 -5 303 0 q 247 -15 265 -10 q 212 -23 228 -20 q 185 -27 195 -27 q 153 -22 167 -27 q 129 -4 138 -17 q 115 31 119 9 q 110 85 110 52 q 118 150 110 115 q 138 237 126 186 q 155 321 145 279 q 173 405 164 363 q 187 488 181 446 q 193 572 193 530 q 198 634 194 603 q 205 697 201 665 q 212 761 209 729 q 215 823 215 793 q 214 838 215 829 q 212 852 212 848 q 233 917 212 882 q 251 935 239 926 q 279 952 264 945 q 309 965 294 960 q 335 970 324 970 q 358 967 342 970 q 393 961 375 964 q 428 954 412 957 q 452 951 445 951 q 483 951 463 951 q 525 950 502 951 q 572 950 547 950 q 620 951 597 950 q 718 958 671 954 q 815 970 764 961 q 871 983 846 975 q 921 998 897 991 q 968 1010 945 1005 q 1016 1016 991 1016 q 1034 1011 1025 1016 q 1049 1000 1042 1007 q 1061 983 1057 993 q 1065 964 1065 974 m 861 1310 q 849 1289 861 1302 q 825 1271 844 1283 q 781 1242 806 1258 q 729 1210 756 1227 q 684 1181 703 1194 q 624 1138 653 1159 q 564 1098 594 1117 q 558 1094 563 1097 q 547 1087 553 1091 q 535 1081 541 1084 q 529 1078 530 1078 q 512 1082 520 1078 q 499 1093 505 1086 q 490 1107 493 1099 q 486 1123 486 1116 q 572 1213 486 1152 q 724 1311 658 1274 q 760 1332 747 1324 q 783 1348 773 1341 q 803 1360 793 1356 q 823 1364 813 1364 q 832 1359 825 1364 q 845 1347 838 1354 q 856 1329 851 1339 q 861 1310 861 1320 z "},"":{"ha":1163,"x_min":117,"x_max":1099,"o":"m 148 201 q 167 281 156 233 q 190 387 178 330 q 214 506 202 444 q 237 626 227 568 q 254 735 247 684 q 264 822 262 786 q 264 852 265 836 q 265 883 263 868 q 275 912 267 899 q 301 936 282 926 q 343 946 324 947 q 385 932 362 945 q 394 918 389 930 q 403 889 399 905 q 411 855 408 873 q 418 824 415 837 q 447 746 427 793 q 498 643 468 699 q 567 525 529 587 q 648 399 606 462 q 735 277 690 336 q 823 166 779 217 q 854 300 841 237 q 879 426 868 364 q 901 548 890 487 q 921 673 911 608 q 932 748 926 707 q 944 830 939 789 q 953 911 949 872 q 958 979 957 950 q 958 1002 958 990 q 959 1024 958 1013 q 963 1044 960 1034 q 975 1061 967 1054 q 1015 1085 997 1081 q 1052 1089 1032 1089 q 1069 1078 1061 1089 q 1084 1053 1078 1067 q 1094 1022 1090 1038 q 1098 996 1097 1006 q 1095 968 1099 987 q 1087 926 1092 949 q 1076 882 1082 904 q 1067 848 1071 861 q 1036 712 1052 787 q 1005 562 1020 638 q 978 414 991 486 q 956 283 965 341 q 941 186 946 224 q 937 140 936 148 q 938 117 937 130 q 938 92 938 104 q 938 68 938 79 q 939 51 938 57 q 936 23 940 35 q 924 3 931 11 q 908 -11 917 -5 q 892 -18 899 -16 q 871 -23 883 -21 q 849 -25 860 -25 q 828 -23 838 -25 q 813 -16 818 -22 q 770 31 787 8 q 747 75 753 54 q 741 92 746 82 q 729 112 735 102 q 716 130 722 121 q 706 143 710 138 q 619 258 662 200 q 533 382 576 317 q 446 524 490 448 q 355 688 402 599 q 321 544 336 621 q 294 393 306 467 q 272 253 281 319 q 256 140 262 187 q 254 107 254 127 q 254 66 254 87 q 252 28 254 46 q 247 0 251 10 q 236 -18 243 -7 q 220 -37 229 -28 q 200 -53 211 -47 q 180 -60 190 -60 q 149 -54 160 -60 q 132 -36 138 -47 q 123 -6 125 -24 q 118 35 120 12 q 120 63 117 43 q 126 105 122 82 q 136 154 131 129 q 148 201 142 179 m 958 1293 q 941 1245 958 1275 q 921 1216 932 1230 q 898 1187 911 1202 q 857 1148 872 1158 q 819 1139 841 1139 q 775 1143 795 1139 q 740 1157 755 1147 q 723 1169 732 1162 q 700 1187 713 1177 q 681 1204 688 1198 q 673 1211 675 1210 q 655 1229 663 1220 q 638 1244 646 1238 q 621 1255 630 1251 q 598 1259 611 1259 q 576 1255 586 1259 q 555 1243 566 1251 q 534 1223 545 1235 q 509 1194 523 1211 q 486 1166 496 1178 q 466 1146 475 1154 q 448 1134 457 1138 q 429 1131 439 1131 q 407 1140 415 1131 q 399 1164 399 1149 q 432 1236 399 1192 q 508 1314 466 1280 q 581 1347 551 1347 q 646 1337 625 1347 q 668 1324 656 1333 q 692 1302 679 1315 q 715 1280 705 1289 q 736 1263 726 1270 q 755 1250 745 1257 q 774 1236 765 1242 q 793 1225 784 1230 q 809 1221 802 1221 q 842 1235 827 1221 q 871 1269 857 1249 q 886 1289 878 1279 q 901 1309 893 1299 q 926 1329 916 1329 q 950 1319 941 1329 q 958 1293 958 1309 z "},"":{"ha":1116,"x_min":76,"x_max":1073,"o":"m 656 894 q 563 875 606 894 q 480 825 519 856 q 407 754 441 793 q 342 674 373 715 q 289 593 314 638 q 243 498 263 548 q 212 395 224 448 q 200 289 200 342 q 217 198 200 239 q 261 127 234 157 q 325 82 289 98 q 398 66 360 66 q 508 81 454 66 q 610 123 561 96 q 702 185 659 150 q 782 262 745 221 q 848 349 819 304 q 897 437 877 393 q 915 486 907 458 q 927 545 922 514 q 936 606 932 575 q 939 665 939 637 q 938 715 940 693 q 932 749 937 736 q 904 795 925 770 q 848 842 883 821 q 766 879 814 864 q 656 894 718 894 m 1073 629 q 1060 531 1073 585 q 1021 422 1046 478 q 960 311 996 366 q 877 207 923 255 q 741 80 803 130 q 618 2 679 31 q 494 -38 557 -26 q 353 -49 430 -49 q 279 -34 315 -49 q 213 5 243 -20 q 157 63 182 30 q 114 133 132 96 q 86 208 96 170 q 76 283 76 247 q 95 425 76 348 q 150 581 114 503 q 236 731 185 659 q 350 860 287 804 q 487 950 413 916 q 644 984 562 984 q 681 984 659 984 q 728 981 703 983 q 783 976 754 979 q 839 965 811 972 q 891 947 866 958 q 937 922 917 937 q 1011 853 984 886 q 1052 785 1038 820 q 1069 712 1066 751 q 1073 629 1073 674 m 886 1223 q 819 1156 886 1156 q 781 1172 797 1156 q 764 1211 764 1188 q 779 1249 764 1240 q 835 1269 794 1257 q 850 1272 846 1272 q 877 1258 868 1272 q 886 1223 886 1244 m 633 1162 q 572 1135 633 1135 q 531 1144 558 1135 q 505 1168 505 1153 q 506 1198 505 1184 q 512 1222 508 1212 q 525 1239 517 1233 q 547 1244 534 1244 q 610 1223 587 1244 q 633 1162 633 1201 z "},"":{"ha":1073,"x_min":121,"x_max":1015,"o":"m 951 329 q 930 253 944 289 q 895 184 916 218 q 842 119 873 151 q 771 57 812 87 q 718 28 751 41 q 648 6 685 15 q 573 -8 611 -3 q 504 -14 535 -14 q 438 -5 475 -14 q 365 16 401 3 q 297 45 329 29 q 249 77 266 62 q 191 149 215 109 q 151 234 167 189 q 129 326 136 279 q 121 419 121 373 q 127 505 121 458 q 142 601 134 552 q 160 696 151 649 q 175 782 170 743 q 181 822 177 794 q 191 881 186 850 q 201 940 196 912 q 210 981 206 968 q 236 1025 218 1008 q 279 1043 254 1043 q 298 1033 288 1043 q 315 1009 307 1023 q 327 982 322 996 q 332 961 332 968 q 329 944 332 957 q 321 913 326 930 q 311 876 316 895 q 300 838 305 856 q 292 808 295 821 q 288 791 288 795 q 280 749 285 777 q 271 686 276 721 q 260 614 265 652 q 250 541 254 576 q 243 475 245 505 q 240 427 240 445 q 277 231 240 322 q 314 184 287 208 q 374 142 340 161 q 440 112 407 123 q 495 100 473 100 q 599 105 553 100 q 683 126 646 111 q 748 168 720 141 q 798 239 777 195 q 824 310 815 275 q 838 379 833 345 q 845 445 843 413 q 850 506 847 477 q 859 613 857 558 q 865 719 862 667 q 872 817 867 771 q 886 899 877 863 q 920 977 901 955 q 969 1001 937 1001 q 991 995 983 1001 q 1006 978 1000 989 q 1013 954 1011 968 q 1015 926 1015 941 q 1011 863 1015 899 q 1001 789 1006 827 q 988 716 995 751 q 978 659 982 682 q 971 588 972 625 q 969 510 970 551 q 964 424 968 469 q 951 329 961 378 m 835 1221 q 768 1154 835 1154 q 729 1170 745 1154 q 713 1208 713 1186 q 728 1246 713 1238 q 783 1267 743 1255 q 799 1270 795 1270 q 826 1256 817 1270 q 835 1221 835 1242 m 582 1160 q 521 1133 582 1133 q 479 1142 507 1133 q 453 1166 453 1151 q 455 1196 453 1182 q 461 1220 456 1210 q 474 1237 465 1231 q 496 1242 482 1242 q 558 1221 535 1242 q 582 1160 582 1199 z "},"":{"ha":579,"x_min":18,"x_max":558,"o":"m 558 640 q 540 598 558 610 q 490 587 522 587 q 459 588 474 588 q 424 589 445 589 q 349 555 351 589 q 334 385 339 448 q 329 301 329 322 q 328 280 329 294 q 326 248 328 267 q 323 213 325 229 q 321 184 322 197 q 318 156 319 172 q 314 118 316 139 q 298 91 313 102 q 267 79 283 79 q 224 109 250 79 q 197 157 197 138 q 203 184 197 164 q 209 201 207 194 q 211 211 210 208 q 215 234 212 218 q 220 274 217 250 q 227 315 224 298 q 229 342 229 332 q 233 374 230 351 q 243 436 236 397 q 256 529 256 513 q 251 553 256 548 q 231 558 245 558 q 159 549 213 558 q 79 539 106 539 q 36 555 54 539 q 18 599 18 570 q 56 631 20 618 q 91 643 74 638 q 123 648 108 647 q 183 654 150 652 q 256 656 216 656 q 263 658 258 656 q 271 663 267 660 q 278 670 275 666 q 281 677 281 673 q 284 740 280 707 q 296 805 288 772 q 313 867 303 838 q 335 920 323 897 q 360 955 347 942 q 387 966 374 968 q 416 955 400 966 q 431 930 431 944 q 412 875 431 915 q 390 819 393 834 q 376 755 387 798 q 363 693 365 715 q 370 683 363 688 q 382 677 376 677 q 405 679 390 677 q 441 683 419 680 q 513 689 484 689 q 543 673 527 689 q 558 640 558 658 z "},"":{"ha":704,"x_min":130,"x_max":602,"o":"m 602 770 q 563 655 602 706 q 463 576 525 604 q 342 547 402 547 q 260 559 298 547 q 193 597 222 572 q 147 657 163 622 q 131 737 130 692 q 161 825 131 770 q 196 875 177 852 q 237 920 215 899 q 317 961 280 961 q 363 965 333 961 q 414 970 391 970 q 469 960 434 970 q 517 940 503 951 q 551 894 531 930 q 571 858 562 876 q 587 822 579 840 q 602 770 602 787 m 515 753 q 509 800 516 776 q 492 842 503 823 q 468 871 481 860 q 443 882 455 882 q 425 878 434 882 q 408 871 415 875 q 396 863 401 867 q 393 860 392 860 q 385 861 391 860 q 370 863 379 862 q 352 866 360 865 q 339 867 345 867 q 298 854 317 867 q 264 821 279 841 q 241 777 250 801 q 233 733 233 753 q 272 665 233 695 q 350 635 311 635 q 454 653 414 635 q 494 697 472 661 q 515 753 515 733 z "},"":{"ha":707,"x_min":81,"x_max":637,"o":"m 637 631 q 628 593 637 604 q 593 582 619 582 q 567 589 578 582 q 539 609 555 595 q 512 629 523 623 q 489 636 500 636 q 463 577 477 636 q 449 515 456 547 q 437 448 443 484 q 429 392 432 414 q 427 361 427 370 q 439 342 427 342 q 482 352 463 342 q 526 378 502 361 q 557 393 550 393 q 596 387 578 393 q 615 372 615 380 q 585 306 615 327 q 557 292 575 298 q 514 278 540 285 q 450 260 464 266 q 410 207 416 245 q 396 75 396 139 q 351 -7 396 -7 q 310 15 328 -7 q 293 61 293 37 q 308 140 293 80 q 326 222 323 201 q 267 231 317 225 q 228 235 243 233 q 208 237 214 236 q 123 306 165 247 q 81 411 81 366 q 92 495 81 460 q 129 578 102 530 q 193 633 140 597 q 240 663 220 652 q 271 679 259 674 q 308 688 289 684 q 347 697 327 692 q 390 714 387 707 q 410 825 398 726 q 415 873 413 852 q 416 908 416 894 q 472 951 416 951 q 490 946 482 951 q 504 933 498 941 q 513 916 510 926 q 517 897 517 907 q 514 871 517 885 q 511 848 512 857 q 499 793 509 833 q 489 737 489 755 q 507 728 494 734 q 543 712 521 722 q 612 674 587 693 q 637 631 637 656 m 389 632 q 227 548 292 600 q 163 415 163 495 q 173 383 161 401 q 200 348 184 365 q 235 320 216 332 q 265 310 253 309 q 278 311 269 310 q 300 315 287 313 q 332 326 329 321 q 345 351 342 335 q 367 499 349 399 q 381 582 376 549 q 389 632 387 615 z "},"":{"ha":929,"x_min":36,"x_max":888,"o":"m 888 122 q 847 37 888 72 q 751 -14 806 2 q 665 -31 697 -31 q 489 14 612 -31 q 451 28 473 19 q 399 49 428 37 q 347 70 370 60 q 306 85 323 79 q 235 106 271 98 q 97 17 107 17 q 58 28 79 17 q 36 57 36 39 q 55 102 36 73 q 98 160 75 134 q 139 192 124 187 q 148 193 146 193 q 157 193 153 193 q 165 192 161 193 q 178 196 174 192 q 239 283 203 224 q 292 383 274 343 q 282 384 288 384 q 269 384 276 384 q 238 383 258 384 q 200 382 218 382 q 122 394 165 382 q 79 431 79 407 q 122 489 79 489 q 164 481 138 489 q 204 475 189 475 q 307 485 292 475 q 314 578 311 538 q 320 648 317 618 q 333 706 323 677 q 355 766 342 735 q 440 871 383 827 q 589 930 519 930 q 680 902 634 930 q 726 828 726 873 q 717 797 726 819 q 700 772 707 775 q 667 765 682 765 q 637 774 649 764 q 615 797 625 784 q 592 819 604 809 q 564 828 581 829 q 503 800 534 828 q 457 742 473 772 q 404 543 404 645 q 405 524 404 532 q 406 513 405 517 q 420 516 408 513 q 456 524 433 519 q 503 536 480 530 q 550 548 526 542 q 587 557 574 554 q 604 562 601 561 q 692 579 654 579 q 730 569 707 579 q 753 546 753 560 q 747 517 753 532 q 730 496 742 501 q 678 480 716 489 q 636 471 659 475 q 588 462 614 467 q 547 454 562 457 q 526 450 532 452 q 415 418 454 433 q 401 399 406 414 q 397 382 399 391 q 393 362 395 374 q 385 330 389 339 q 338 256 373 300 q 292 187 304 212 q 352 165 292 185 q 406 149 382 156 q 450 135 431 141 q 488 121 467 129 q 532 104 509 113 q 578 87 557 94 q 619 75 599 80 q 659 67 639 70 q 701 65 679 65 q 777 102 745 65 q 787 136 787 113 q 786 148 787 143 q 786 157 786 152 q 787 175 786 171 q 809 194 791 184 q 838 203 827 203 q 862 192 854 203 q 879 167 871 180 q 888 122 888 154 z "},"":{"ha":582,"x_min":64,"x_max":516,"o":"m 515 946 q 494 894 515 921 q 449 867 473 867 q 429 895 441 867 q 416 925 418 924 q 383 954 408 941 q 339 968 359 968 q 272 947 309 968 q 235 901 235 928 q 236 869 235 884 q 241 841 237 854 q 254 818 245 829 q 277 798 262 807 q 366 741 326 762 q 424 698 393 727 q 473 642 456 668 q 504 583 494 609 q 514 528 514 557 q 502 473 515 502 q 466 419 488 444 q 417 376 444 393 q 366 355 390 358 q 414 321 395 336 q 443 300 433 307 q 478 254 463 284 q 493 175 493 224 q 473 88 493 124 q 419 28 453 52 q 341 -6 386 5 q 249 -17 297 -18 q 149 6 194 -17 q 79 75 104 30 q 64 127 64 102 q 68 168 64 144 q 85 195 73 195 q 136 182 123 195 q 159 143 150 170 q 180 103 168 115 q 203 82 193 92 q 222 68 214 71 q 230 66 226 66 q 240 64 234 65 q 254 64 245 64 q 275 64 262 64 q 315 71 292 63 q 360 92 338 79 q 395 122 381 105 q 408 157 410 139 q 395 210 408 189 q 354 249 381 231 q 311 272 338 260 q 258 297 283 285 q 146 374 216 320 q 86 438 102 408 q 71 522 71 471 q 94 600 71 561 q 153 663 117 640 q 169 673 160 668 q 186 686 177 679 q 222 707 206 699 q 254 718 237 714 q 236 735 248 725 q 206 761 224 746 q 157 815 171 791 q 143 884 143 840 q 159 935 143 896 q 172 966 166 954 q 182 986 178 979 q 252 1024 195 1010 q 351 1038 311 1038 q 402 1032 374 1038 q 456 1015 431 1026 q 499 986 481 1003 q 515 946 516 968 m 419 519 q 401 589 419 555 q 353 635 384 624 q 314 650 316 650 q 263 642 289 650 q 218 618 238 634 q 186 581 198 603 q 175 532 174 559 q 179 497 175 514 q 192 466 184 480 q 212 440 200 451 q 237 422 223 429 q 277 401 253 416 q 298 389 290 393 q 310 382 306 384 q 334 406 311 393 q 359 424 357 421 q 400 469 382 441 q 419 519 419 496 z "},"":{"ha":595,"x_min":106,"x_max":490,"o":"m 490 490 q 461 386 490 413 q 431 374 452 378 q 399 361 410 370 q 379 340 390 354 q 359 320 368 327 q 332 314 349 314 q 187 339 252 314 q 160 353 163 348 q 153 365 156 358 q 147 379 151 372 q 106 549 106 470 q 160 659 106 612 q 279 704 214 704 q 322 693 307 704 q 341 683 330 687 q 361 676 351 680 q 381 669 372 673 q 397 661 391 666 q 422 648 401 657 q 437 641 431 644 q 448 636 444 638 q 456 632 452 634 q 464 625 460 629 q 484 569 477 614 q 489 527 487 547 q 490 490 490 507 z "},"":{"ha":929,"x_min":85,"x_max":851,"o":"m 850 875 q 844 855 850 861 q 830 845 838 849 q 815 835 823 840 q 806 819 808 830 q 801 779 802 795 q 798 741 800 762 q 791 685 794 711 q 785 634 789 658 q 778 584 782 610 q 770 529 774 557 q 759 460 763 490 q 752 406 754 429 q 750 352 751 383 q 749 279 749 320 q 770 37 749 149 q 785 -9 773 20 q 799 -46 798 -42 q 775 -62 794 -54 q 749 -71 758 -71 q 690 -7 713 -71 q 680 31 685 10 q 671 77 675 52 q 656 179 661 128 q 653 225 654 205 q 652 260 652 245 q 655 352 652 306 q 663 446 658 399 q 677 549 669 494 q 697 668 686 604 q 701 693 699 677 q 709 732 704 709 q 722 804 718 778 q 726 846 726 831 q 679 871 726 871 q 592 865 646 871 q 463 846 538 859 q 333 801 410 838 q 228 729 257 766 q 182 624 182 671 q 201 569 182 608 q 248 500 220 532 q 300 471 274 471 q 332 515 324 471 q 338 646 338 558 q 350 713 338 693 q 390 733 363 733 q 421 690 421 733 q 420 643 421 669 q 416 583 418 616 q 410 484 411 517 q 432 471 418 471 q 443 473 433 471 q 460 475 453 475 q 507 431 507 475 q 498 401 507 409 q 468 391 488 394 q 436 382 448 387 q 418 358 425 376 q 406 197 406 318 l 406 144 q 407 54 406 96 q 412 -22 409 13 q 417 -64 416 -48 q 419 -86 419 -79 q 415 -104 419 -96 q 403 -120 410 -113 q 386 -131 395 -127 q 368 -135 377 -135 q 319 -46 349 -135 q 313 -19 317 -39 q 304 33 309 0 q 298 86 300 65 q 296 119 296 108 q 298 146 296 130 q 300 182 299 161 q 304 221 302 203 q 307 252 305 239 q 309 317 309 281 q 301 363 309 349 q 270 380 297 370 q 231 401 243 392 q 204 423 221 410 q 172 449 186 436 q 142 479 155 466 q 121 503 130 493 q 95 551 104 524 q 85 618 85 579 q 104 715 85 662 q 126 765 114 743 q 154 804 139 787 q 239 862 178 832 q 300 890 269 877 q 363 913 331 903 q 423 932 397 925 q 471 943 450 940 q 508 950 490 947 q 543 956 526 954 q 577 962 559 959 q 615 966 596 964 q 652 970 634 968 q 685 971 669 971 q 716 968 699 971 q 752 960 734 966 q 789 946 771 954 q 821 926 807 937 q 843 903 835 916 q 850 875 851 890 z "},"":{"ha":772,"x_min":-77,"x_max":715,"o":"m 715 262 q 666 130 715 191 q 542 33 616 68 q 397 -3 467 -3 q 310 29 347 -3 q 273 113 273 60 q 284 179 273 162 q 314 201 296 197 q 348 125 326 164 q 395 86 370 86 q 485 105 433 86 q 558 150 538 124 q 599 214 579 175 q 619 278 619 253 q 449 461 619 374 q 424 468 439 466 q 394 471 409 470 q 365 474 378 473 q 342 481 351 476 q 317 513 328 487 q 306 557 306 539 q 314 584 306 572 q 335 606 322 597 q 363 621 347 615 q 393 628 378 627 q 487 661 448 635 q 572 733 528 690 q 599 774 593 755 q 604 823 604 794 l 604 842 q 571 930 604 901 q 478 958 538 958 q 432 942 458 958 q 393 911 405 926 q 315 750 349 857 q 260 530 281 642 q 225 310 239 418 q 219 257 222 282 q 212 208 216 232 q 205 158 209 185 q 197 98 201 130 q 186 34 192 65 q 174 -30 181 3 q 163 -87 168 -62 q 153 -131 157 -113 q 130 -195 146 -159 q 91 -263 113 -231 q 40 -315 68 -294 q -16 -335 13 -336 q -77 -310 -77 -335 q -77 -299 -77 -303 q -77 -290 -77 -295 q -64 -256 -77 -268 q -51 -247 -60 -252 q -30 -232 -43 -241 q -8 -217 -17 -223 q 4 -208 0 -212 q 56 -90 32 -184 q 85 68 81 6 q 97 170 89 118 q 104 216 101 196 q 110 252 107 237 q 124 344 115 283 q 131 397 129 374 q 135 436 134 420 q 189 739 147 588 q 226 841 204 797 q 249 882 237 863 q 277 919 262 902 q 312 956 292 936 q 359 997 333 975 q 392 1018 374 1009 q 431 1034 410 1027 q 474 1043 452 1040 q 517 1046 496 1046 q 529 1045 522 1046 q 545 1044 536 1045 q 618 1016 589 1040 q 675 947 648 992 q 715 811 715 881 q 686 712 715 753 q 602 635 656 671 q 581 625 596 631 q 541 607 566 618 q 466 574 491 586 q 440 555 440 563 q 457 544 440 550 q 511 528 474 537 q 566 515 549 520 q 593 504 584 511 q 646 442 617 488 q 674 396 661 420 q 696 347 686 372 q 715 262 715 295 z "},"":{"ha":1299,"x_min":57,"x_max":1235,"o":"m 1235 614 q 1194 429 1235 484 q 1133 359 1168 393 q 1051 292 1097 326 q 955 231 1006 260 q 849 176 905 201 q 625 96 740 125 q 427 66 513 66 q 408 67 420 66 q 384 68 397 68 q 359 70 371 69 q 340 71 347 71 q 247 103 304 71 q 142 182 190 137 q 79 265 94 229 q 71 289 75 275 q 64 320 67 302 q 57 371 57 353 q 94 493 57 418 q 136 568 113 532 q 184 639 158 604 q 277 732 238 709 q 340 774 314 755 q 379 808 366 793 q 383 844 379 826 q 424 896 386 858 q 462 932 443 915 q 501 964 481 949 q 555 999 541 996 q 640 1018 606 1011 q 699 1025 674 1025 q 882 998 795 1025 q 1017 930 968 972 q 1103 840 1050 902 q 1196 715 1157 778 q 1235 614 1235 652 m 1152 585 q 1109 717 1152 651 q 1000 836 1069 782 q 858 919 934 888 q 720 950 783 950 q 598 927 665 950 q 500 868 532 904 q 689 922 629 922 q 730 902 703 922 q 780 856 759 882 q 802 814 802 829 q 787 779 802 802 q 738 814 751 806 q 709 823 724 823 q 656 825 694 825 q 614 819 637 825 q 565 803 591 813 q 511 780 538 793 q 457 752 484 766 q 408 722 431 737 q 368 694 385 707 q 242 578 301 643 q 160 454 183 513 q 152 407 152 433 q 153 379 153 394 q 154 354 154 363 q 162 308 154 330 q 184 267 170 286 q 217 233 198 248 q 260 207 237 218 q 357 174 307 184 q 457 164 408 164 q 511 166 488 164 q 557 173 534 169 q 606 184 580 178 q 669 199 632 191 q 778 238 702 205 q 854 273 817 255 q 927 309 891 290 q 1026 370 1000 347 q 1080 419 1057 395 q 1119 469 1103 444 q 1143 523 1135 494 q 1152 585 1152 551 m 962 397 q 943 374 962 387 q 913 363 924 363 q 827 387 878 363 q 775 412 801 399 q 724 435 750 424 q 639 460 673 460 q 629 464 633 460 q 621 474 625 468 q 616 488 618 481 q 614 503 614 496 q 633 538 614 526 q 659 552 643 544 q 696 569 675 559 q 741 602 741 589 q 663 631 741 631 q 630 624 652 631 q 608 617 618 621 q 589 610 597 613 q 592 545 589 581 q 602 464 595 509 q 605 446 602 458 q 607 422 607 433 q 604 398 607 412 q 594 371 601 384 q 579 349 588 358 q 558 342 570 340 q 525 357 543 342 q 505 390 507 373 q 504 404 505 395 q 504 422 504 412 q 505 451 504 433 q 506 490 505 470 q 508 529 507 511 q 509 558 509 548 q 504 607 509 593 q 487 625 504 608 q 471 656 471 641 q 486 682 471 669 q 514 697 502 696 q 537 700 522 699 q 574 705 553 702 q 644 712 619 711 q 688 714 669 714 q 729 707 707 714 q 766 689 751 700 q 812 642 785 675 q 840 591 840 608 q 804 553 840 572 q 767 535 787 543 q 726 519 748 526 q 750 506 738 512 q 773 494 762 499 q 804 482 785 489 q 848 466 823 475 q 892 449 873 457 q 924 435 911 441 q 962 397 962 414 z "},"":{"ha":1328,"x_min":94,"x_max":1304,"o":"m 1304 587 q 1294 523 1304 553 q 1265 463 1284 492 q 1220 403 1246 433 q 1160 342 1193 373 q 1099 294 1136 319 q 1010 244 1061 270 q 795 151 909 193 q 694 116 738 130 q 618 97 650 103 q 544 81 597 93 q 499 71 518 75 q 466 64 479 67 q 407 60 440 60 q 332 72 387 60 q 279 86 304 79 q 229 102 253 93 q 168 134 180 119 q 120 209 145 159 q 94 286 94 262 q 106 373 94 315 q 134 491 117 430 q 167 585 151 552 q 234 707 194 644 q 324 826 274 770 q 374 876 349 854 q 422 913 399 897 q 481 947 448 929 q 551 981 515 966 q 623 1005 587 996 q 688 1014 659 1015 q 745 997 711 1014 q 810 954 783 979 q 839 907 839 928 q 828 878 839 899 q 820 861 823 867 q 817 852 817 854 q 832 855 825 854 q 846 856 840 856 q 1025 828 876 856 q 1106 802 1056 823 q 1154 780 1131 792 q 1197 754 1177 768 q 1233 727 1217 741 q 1258 699 1249 713 q 1286 643 1270 684 q 1304 587 1304 600 m 1218 600 q 1168 674 1218 629 q 1064 741 1118 722 q 949 773 1007 760 q 832 793 892 786 q 818 794 828 793 q 789 795 807 795 q 758 798 772 796 q 732 800 743 799 q 715 804 722 802 q 705 808 708 805 q 700 815 701 810 q 699 829 699 821 q 700 847 699 840 q 738 854 715 854 l 771 854 q 739 909 751 896 q 688 922 725 922 q 607 901 654 922 q 512 850 558 880 q 471 823 489 836 q 441 799 454 810 q 386 738 414 773 q 328 655 358 702 q 231 466 269 564 q 192 296 192 368 q 212 235 191 262 q 267 191 234 209 q 339 163 300 172 q 411 154 378 153 q 731 216 557 154 q 908 293 818 246 q 1088 401 999 340 q 1173 493 1128 429 q 1218 600 1218 557 m 937 493 q 936 482 937 490 q 935 471 935 474 q 902 421 935 454 q 821 354 870 389 q 736 313 774 322 q 684 301 707 307 q 641 293 661 296 q 602 288 621 290 q 566 286 584 286 q 463 330 506 286 q 421 435 421 376 q 431 480 421 452 q 440 504 437 494 q 444 519 443 514 q 454 555 450 539 q 463 582 459 570 q 487 626 471 605 q 526 664 503 647 q 573 698 551 683 q 617 724 595 713 q 659 740 638 734 q 703 746 680 746 q 743 737 724 746 q 778 712 762 728 q 802 677 793 697 q 811 636 811 658 q 808 615 811 625 q 781 593 805 605 q 745 582 756 582 q 725 597 730 582 q 721 614 722 604 q 718 634 719 623 q 714 657 715 656 q 701 659 710 659 q 663 655 673 659 q 645 641 654 652 q 623 619 635 630 q 579 580 597 600 q 548 539 560 560 q 530 494 536 517 q 524 441 524 470 q 527 407 525 419 q 535 390 529 395 q 555 384 542 385 q 591 382 568 382 q 704 397 659 382 q 745 412 722 403 q 793 433 767 421 q 879 481 848 460 q 895 498 886 486 q 924 511 904 511 q 937 493 937 511 z "},"":{"ha":1438,"x_min":87,"x_max":1409,"o":"m 1409 581 q 1393 550 1409 561 q 1357 539 1378 539 q 1263 622 1293 539 q 1229 819 1234 705 q 1217 839 1229 827 q 1191 822 1202 830 q 1174 808 1181 814 q 1145 766 1161 795 q 1132 744 1137 753 q 1124 732 1126 735 q 1115 718 1122 730 q 1094 680 1107 705 q 1044 603 1067 631 q 997 575 1021 575 q 966 587 980 575 q 935 622 952 600 q 914 650 920 644 q 859 707 886 678 q 806 766 831 736 q 793 758 795 762 q 789 741 791 754 q 783 709 787 729 q 772 660 779 689 q 761 611 765 631 q 754 581 756 591 q 694 498 740 498 q 657 513 678 498 q 636 542 636 528 q 725 804 636 583 q 743 854 743 850 q 734 875 743 867 q 711 884 724 884 q 669 882 699 884 q 590 876 639 880 q 456 860 463 865 q 409 759 435 846 q 383 625 383 670 q 385 612 383 619 q 389 596 387 604 q 393 581 391 589 q 395 567 395 573 q 390 546 395 555 q 382 533 387 541 q 368 516 377 526 q 342 498 351 498 q 302 530 313 498 q 292 597 292 560 q 310 741 292 686 q 324 778 313 749 q 334 801 330 791 q 341 819 338 811 q 345 834 344 827 q 346 850 346 842 q 304 864 346 864 q 220 842 275 864 q 150 821 165 821 q 87 859 87 821 q 117 903 87 880 q 171 932 146 926 q 212 938 188 935 q 263 943 236 941 q 319 949 290 946 q 375 956 348 951 q 395 966 385 956 q 428 975 407 975 q 453 967 435 975 q 478 960 471 960 q 497 961 484 960 q 530 966 510 963 q 554 970 540 968 q 587 972 568 971 q 620 974 606 972 q 643 977 633 975 q 677 987 650 978 q 718 996 703 996 q 757 988 726 996 q 785 980 772 985 q 810 971 799 976 q 838 954 835 962 q 837 938 838 943 q 836 926 837 932 q 861 865 836 911 q 884 827 874 842 q 900 802 893 811 q 924 776 909 791 q 959 744 939 762 q 1013 708 1000 708 q 1085 800 1026 708 q 1142 884 1116 847 q 1192 952 1168 922 q 1283 1013 1240 1013 q 1309 1004 1297 1013 q 1321 983 1321 995 q 1320 965 1321 977 q 1317 942 1318 952 q 1311 844 1311 884 q 1313 799 1311 823 q 1320 749 1316 775 q 1332 700 1325 722 q 1348 660 1339 677 q 1364 646 1351 653 q 1382 635 1377 640 q 1399 607 1389 627 q 1409 581 1409 588 z "},"":{"ha":517,"x_min":68,"x_max":442,"o":"m 442 930 q 431 909 442 922 q 407 891 426 903 q 362 863 387 878 q 311 830 338 847 q 265 801 284 814 q 205 758 235 779 q 145 718 176 737 q 139 714 144 718 q 128 708 134 711 q 117 701 122 704 q 111 698 111 698 q 94 702 102 698 q 80 713 86 707 q 71 728 75 720 q 68 743 68 736 q 154 833 68 772 q 306 931 239 894 q 342 952 329 944 q 365 968 355 961 q 385 980 374 976 q 404 984 395 984 q 413 979 407 984 q 426 967 420 975 q 437 949 433 959 q 442 930 442 940 z "},"":{"ha":489,"x_min":46,"x_max":428,"o":"m 428 893 q 361 825 428 825 q 322 842 338 825 q 306 880 306 858 q 321 918 306 909 q 376 939 336 927 q 392 942 388 942 q 419 928 410 942 q 428 893 428 913 m 175 832 q 114 804 175 804 q 73 814 100 804 q 46 838 46 823 q 48 868 46 854 q 54 892 50 882 q 67 908 58 903 q 89 914 75 914 q 152 892 128 914 q 175 832 175 871 z "},"":{"ha":808,"x_min":83,"x_max":724,"o":"m 724 354 q 710 318 724 339 q 596 304 661 304 q 587 304 591 304 q 578 304 583 304 q 565 303 573 303 q 545 301 556 302 q 525 300 533 300 q 511 300 516 300 q 473 299 494 300 q 423 295 451 298 q 378 291 396 292 q 350 290 359 290 q 316 238 331 262 q 292 197 300 214 q 241 110 262 136 q 200 83 220 83 q 172 94 183 83 q 160 122 160 104 q 249 293 160 165 l 186 293 q 136 300 170 293 q 96 314 102 307 q 83 355 83 329 q 115 397 83 397 q 138 389 123 397 q 161 380 153 380 q 180 381 170 380 q 201 382 191 381 q 223 383 212 382 q 241 383 233 383 q 250 382 244 383 q 267 380 256 382 q 285 378 277 379 q 301 378 294 378 q 313 398 306 386 q 328 427 319 410 q 344 455 337 443 q 355 475 351 467 q 382 516 369 496 q 407 555 395 536 q 338 559 372 558 q 271 561 304 561 q 202 552 245 561 q 140 543 159 543 q 114 557 131 543 q 98 581 98 571 q 174 635 98 635 q 203 635 185 635 q 247 637 222 636 q 291 640 272 639 q 322 640 309 640 q 342 642 327 640 q 383 648 357 644 q 453 656 436 656 q 479 714 468 690 q 497 750 490 737 q 504 764 500 755 q 513 787 507 773 q 521 810 518 802 q 525 819 524 818 q 550 839 528 826 q 581 851 572 851 q 615 839 600 851 q 631 808 631 826 q 608 757 631 788 q 541 644 573 713 q 564 645 553 644 q 586 645 575 645 q 611 646 597 646 q 640 646 624 646 q 705 610 705 646 q 695 569 705 585 q 665 553 685 553 q 638 552 650 553 q 612 551 626 552 q 507 566 568 551 q 487 529 498 551 q 460 479 475 508 q 433 428 446 451 q 408 386 420 405 q 467 397 441 393 q 513 401 492 401 q 566 397 530 401 q 621 393 602 393 q 645 399 625 393 q 672 406 666 406 q 706 389 689 406 q 724 354 724 372 z "},"":{"ha":1529,"x_min":-56,"x_max":1511,"o":"m 1400 572 q 1297 528 1400 551 q 1242 517 1264 522 q 1204 511 1221 513 q 1173 507 1187 509 q 1142 505 1159 506 q 1103 501 1125 503 q 1048 496 1081 499 q 955 488 995 490 q 876 493 915 486 q 868 469 872 486 q 862 433 865 452 q 859 396 860 414 q 857 371 857 378 q 860 334 857 357 q 868 288 863 311 q 878 247 873 265 q 887 221 884 228 q 910 185 897 201 q 936 157 924 169 q 959 139 949 146 q 975 132 970 132 q 1123 144 1050 132 q 1183 157 1148 149 q 1255 173 1217 164 q 1331 191 1293 182 q 1398 207 1368 199 q 1411 214 1400 207 q 1434 230 1421 221 q 1457 245 1447 238 q 1470 252 1468 252 q 1500 235 1490 252 q 1511 196 1511 218 q 1503 167 1511 180 q 1482 145 1495 154 q 1452 129 1469 136 q 1426 117 1435 121 q 1383 101 1409 109 q 1329 86 1358 94 q 1268 72 1300 79 q 1206 60 1236 66 q 1148 49 1175 54 q 1099 41 1120 44 q 974 24 1004 24 q 925 26 947 24 q 885 34 903 28 q 849 53 866 41 q 815 86 832 65 q 791 126 802 102 q 772 177 781 149 q 755 237 763 205 q 741 302 748 269 q 628 288 675 291 q 549 286 581 286 q 516 286 537 286 q 471 286 494 286 q 425 286 447 286 q 391 286 404 286 q 374 281 384 286 q 350 265 363 277 q 318 235 336 254 q 278 187 300 216 q 199 90 237 137 q 117 -3 160 42 q 94 -25 105 -15 q 70 -43 83 -36 q 42 -54 58 -50 q 8 -58 27 -58 q -14 -52 -3 -58 q -34 -37 -25 -46 q -50 -17 -43 -28 q -56 5 -56 -5 q -51 22 -56 12 q -38 42 -45 33 q -21 57 -30 51 q -4 64 -12 64 q 45 87 16 64 q 90 131 64 104 q 143 189 115 158 q 198 254 170 220 q 251 319 226 288 q 296 375 276 350 q 329 416 317 401 q 413 524 374 471 q 487 627 452 576 q 553 728 522 677 q 613 831 585 779 q 640 881 627 857 q 662 925 652 905 q 682 958 673 945 q 697 975 690 971 q 722 988 709 982 q 746 999 735 994 q 766 1007 758 1004 q 779 1010 775 1010 q 797 1008 783 1010 q 828 1004 810 1006 q 867 998 846 1001 q 905 992 887 995 q 937 988 923 989 q 955 986 950 986 q 1003 985 981 986 q 1048 983 1025 984 q 1096 982 1070 982 q 1154 983 1121 981 q 1195 988 1173 984 q 1240 997 1217 991 q 1284 1007 1263 1002 q 1325 1017 1306 1013 q 1381 1027 1364 1027 q 1405 1023 1391 1027 q 1431 1011 1419 1019 q 1453 994 1444 1004 q 1462 972 1462 984 q 1454 960 1462 970 q 1436 939 1446 950 q 1417 919 1426 928 q 1407 909 1409 909 q 1388 905 1399 906 q 1361 903 1377 904 q 1322 900 1343 903 q 1279 895 1301 898 q 1236 888 1257 891 q 1196 882 1215 884 q 1155 876 1171 878 q 1127 871 1139 873 q 1105 868 1115 869 q 1080 866 1095 867 q 1045 865 1066 865 q 992 865 1025 865 q 969 866 987 865 q 930 869 951 867 q 891 871 909 870 q 868 873 873 873 q 859 799 859 854 q 859 775 859 791 q 861 738 860 759 q 864 694 863 717 q 866 650 865 671 q 868 612 867 629 q 868 587 868 595 q 1002 578 880 578 q 1101 589 1053 578 q 1191 613 1149 600 q 1270 638 1234 627 q 1334 649 1306 649 q 1386 631 1371 649 q 1400 572 1400 613 m 749 433 q 751 487 748 458 q 753 545 754 515 q 752 611 753 574 q 750 687 751 649 q 746 759 749 725 q 739 814 743 792 q 723 791 732 804 q 705 766 714 779 q 687 741 696 753 q 671 716 677 728 q 643 672 655 691 q 618 635 631 652 q 593 599 606 617 q 564 559 581 581 q 527 511 549 538 q 486 459 506 485 q 453 414 467 434 q 439 385 439 393 q 449 381 439 382 q 471 380 458 380 q 501 381 485 380 q 532 384 517 382 q 556 386 546 385 q 567 387 566 387 q 669 401 601 387 q 749 433 735 415 z "},"":{"ha":1183,"x_min":66,"x_max":1157,"o":"m 1157 578 q 1139 478 1157 528 q 1092 380 1122 427 q 1025 291 1063 332 q 946 219 987 250 q 880 172 915 195 q 810 126 846 148 q 739 86 774 104 q 669 53 703 67 q 612 36 646 43 q 540 22 577 28 q 468 11 503 16 q 408 -1 433 5 q 382 -22 393 -12 q 366 -45 372 -33 q 350 -75 359 -56 q 333 -112 341 -93 q 317 -148 324 -131 q 306 -174 309 -165 q 289 -213 298 -195 q 273 -244 280 -232 q 195 -268 254 -268 q 143 -210 143 -268 q 185 -148 164 -180 q 223 -86 206 -115 q 253 -32 241 -56 q 271 7 266 -7 q 258 29 266 18 q 237 49 250 39 q 165 114 197 78 q 112 189 134 150 q 78 269 90 229 q 66 347 66 309 q 73 400 66 370 q 89 460 79 430 q 111 520 98 491 q 135 570 123 549 q 273 764 197 675 q 439 921 349 853 q 689 1002 548 1002 q 731 989 710 1002 q 765 958 751 977 q 795 1004 780 979 q 825 1060 810 1029 q 840 1091 833 1075 q 853 1122 847 1107 q 866 1149 860 1137 q 879 1170 873 1162 q 902 1188 890 1183 q 935 1194 914 1194 q 951 1192 943 1194 q 967 1186 960 1190 q 979 1177 974 1182 q 983 1166 983 1172 q 981 1150 983 1160 q 975 1127 979 1140 q 964 1100 970 1115 q 947 1072 957 1086 q 916 1023 931 1046 q 888 979 901 1001 q 863 935 875 958 q 840 887 851 913 q 980 843 920 878 q 1090 745 1040 808 q 1112 710 1100 732 q 1133 664 1123 688 q 1150 617 1143 640 q 1157 578 1157 594 m 1048 539 q 1038 608 1048 575 q 1010 668 1028 640 q 967 718 992 696 q 912 755 942 740 q 795 792 840 792 q 782 780 791 792 q 762 746 774 767 q 736 696 751 724 q 707 635 722 667 q 675 567 689 598 q 647 507 661 536 q 618 446 633 477 q 582 378 602 415 q 556 330 568 352 q 534 287 545 307 q 512 245 523 266 q 487 201 500 224 q 458 149 470 173 q 446 115 446 125 q 471 106 446 106 q 512 111 487 106 q 564 122 537 115 q 615 137 591 129 q 654 153 640 145 q 696 175 674 161 q 742 202 719 188 q 788 231 766 216 q 831 257 811 245 q 907 315 868 279 q 977 391 945 351 q 1028 470 1008 431 q 1048 539 1048 509 m 695 850 q 709 868 702 857 q 718 885 715 880 q 679 895 699 895 q 604 881 643 895 q 525 844 564 867 q 449 791 486 821 q 382 728 412 761 q 341 679 363 707 q 298 618 319 650 q 257 551 277 586 q 222 483 237 517 q 198 416 207 448 q 189 357 189 384 q 190 323 189 338 q 196 293 192 308 q 206 263 199 278 q 222 231 212 248 q 270 174 241 195 q 332 153 299 153 q 352 187 341 168 q 377 229 363 205 q 404 272 391 251 q 427 312 416 292 q 450 353 439 332 q 473 396 461 374 q 516 483 497 441 q 552 567 534 525 q 589 651 570 609 q 632 739 608 694 l 695 850 z "},"":{"ha":990,"x_min":20,"x_max":966,"o":"m 323 622 q 375 615 353 622 q 418 594 398 608 q 458 562 439 581 q 498 519 477 543 q 507 502 503 509 q 517 495 511 495 q 523 500 517 495 q 535 511 528 505 q 547 522 542 517 q 554 528 553 528 q 655 601 601 577 q 763 624 710 624 q 843 604 806 624 q 907 552 880 583 q 950 482 935 520 q 966 410 966 444 q 956 366 966 390 q 928 317 946 342 q 883 268 909 292 q 824 225 857 244 q 750 196 790 207 q 665 184 710 184 q 594 201 625 184 q 541 239 564 217 q 502 281 517 260 q 477 311 486 302 q 417 238 448 265 q 354 195 387 210 q 288 176 322 180 q 220 172 254 172 q 174 180 197 172 q 129 203 151 189 q 86 236 106 218 q 52 274 66 254 q 28 314 37 294 q 20 351 20 334 q 32 437 20 399 q 67 506 45 476 q 119 558 89 536 q 182 594 149 580 q 252 615 216 608 q 323 622 288 622 m 744 542 q 705 535 726 542 q 664 519 684 528 q 629 499 644 510 q 606 482 613 489 q 583 460 595 471 q 562 439 571 450 q 547 418 553 429 q 541 396 541 407 q 555 364 541 385 q 590 324 568 344 q 637 290 611 304 q 688 276 663 276 q 767 294 732 276 q 827 336 802 312 q 864 386 851 361 q 877 425 877 411 q 868 459 877 439 q 842 498 859 479 q 800 529 825 516 q 744 542 775 542 m 288 534 q 220 516 250 534 q 170 472 191 498 q 140 415 150 446 q 130 359 130 385 q 139 332 130 350 q 164 297 149 315 q 200 268 180 280 q 241 255 220 255 q 325 274 288 255 q 389 319 363 294 q 430 369 416 345 q 445 405 445 394 q 433 437 445 415 q 401 480 422 458 q 352 518 380 502 q 288 534 323 534 z "},"":{"ha":793,"x_min":50,"x_max":729,"o":"m 729 514 q 719 482 729 500 q 697 464 709 464 q 684 465 694 464 q 659 467 674 466 q 630 470 643 469 q 608 471 618 471 q 558 471 580 471 q 518 470 536 471 q 481 470 500 470 q 441 469 463 470 q 432 407 432 433 q 433 387 432 400 q 434 359 433 374 q 435 330 435 344 q 436 310 436 317 q 436 290 436 300 q 437 271 437 281 q 437 251 437 262 q 437 225 437 239 q 432 208 437 216 q 417 192 426 199 q 398 181 408 185 q 379 176 388 176 q 355 188 368 176 q 342 211 342 199 q 343 229 342 217 q 345 254 344 241 q 348 278 347 267 q 350 296 349 290 q 355 355 353 328 q 357 408 357 383 q 356 444 357 429 q 354 469 355 459 q 341 471 349 471 l 328 471 q 285 470 309 471 q 231 466 261 469 q 180 462 200 463 q 150 461 161 461 l 113 461 q 80 464 92 462 q 62 473 68 466 q 53 496 56 481 q 50 539 51 511 q 113 557 64 557 q 142 557 128 557 q 170 557 157 557 q 200 558 183 558 q 237 558 216 558 q 270 559 252 559 q 301 561 287 560 q 314 561 309 561 q 326 562 320 562 q 338 562 331 562 q 354 562 345 562 q 368 650 368 589 q 368 666 368 656 q 366 686 367 675 q 365 707 366 697 q 364 722 364 717 q 366 743 365 732 q 367 764 366 753 q 368 780 368 774 q 368 799 368 786 q 375 832 368 822 q 407 842 382 842 q 453 830 443 842 q 464 782 464 819 q 456 667 464 741 q 446 554 448 592 q 479 552 459 553 q 526 549 499 551 q 607 547 580 547 q 641 553 615 547 q 682 559 666 559 q 715 546 701 559 q 729 514 729 533 m 718 37 q 708 12 717 21 q 683 -2 699 3 q 647 -8 667 -7 q 602 -9 626 -9 q 513 -3 578 -9 q 410 3 448 3 q 373 2 395 3 q 320 1 351 2 q 268 0 290 1 q 231 0 245 0 l 184 0 q 86 4 111 0 q 71 20 80 5 q 62 41 62 35 q 75 75 62 58 q 104 92 88 92 q 125 93 112 92 q 156 98 138 95 q 189 104 174 102 q 214 106 203 106 q 256 104 229 106 q 313 101 283 102 q 370 97 342 99 q 412 96 397 96 q 430 95 420 96 q 454 93 440 94 q 477 91 467 92 q 494 90 488 90 q 518 91 504 90 q 552 92 533 91 q 586 93 571 92 q 610 93 600 93 q 623 93 614 93 q 639 92 631 92 q 655 91 647 91 q 668 90 663 90 q 718 37 718 90 z "},"":{"ha":793,"x_min":66,"x_max":721,"o":"m 686 233 q 667 194 686 216 q 628 174 647 174 q 585 197 621 174 q 477 258 533 228 q 370 307 420 288 q 273 347 319 327 q 184 386 227 366 q 100 454 100 426 q 160 542 100 503 q 264 612 218 579 q 345 675 310 645 q 412 726 373 700 q 507 786 452 751 q 556 819 534 805 q 591 842 577 833 q 627 852 611 852 q 654 835 646 852 q 663 794 663 817 q 654 772 663 785 q 632 746 646 760 q 597 717 617 732 q 555 686 578 702 q 507 655 532 671 q 457 625 483 640 q 416 600 431 609 q 395 586 400 590 q 372 571 385 580 q 340 552 358 563 q 280 513 305 530 q 233 475 255 495 q 276 456 252 467 q 328 433 299 446 q 375 413 356 420 q 403 401 393 405 q 511 355 450 382 q 648 290 572 327 q 676 267 666 282 q 686 233 686 252 m 721 32 q 712 -2 721 6 q 677 -9 703 -9 q 635 -5 663 -9 q 591 0 608 0 q 480 -4 535 0 q 368 -8 425 -8 q 289 -4 342 -8 q 210 0 236 0 q 185 -1 199 0 q 155 -3 172 -2 q 127 -6 138 -5 q 114 -7 117 -7 q 80 8 93 -7 q 66 43 66 22 q 79 66 66 50 q 98 83 91 82 q 127 86 114 85 q 153 87 141 86 q 206 92 183 90 q 244 93 229 93 q 281 92 258 93 q 330 91 304 92 q 378 90 355 90 q 415 89 401 89 q 452 90 430 89 q 505 94 474 92 q 557 98 535 97 q 595 100 579 100 q 684 87 648 100 q 721 32 721 73 z "},"":{"ha":796,"x_min":69,"x_max":724,"o":"m 701 509 q 683 483 701 498 q 629 446 664 467 q 566 407 595 424 q 529 383 538 391 q 479 347 506 366 q 422 307 453 328 q 371 273 391 287 q 339 252 350 259 q 322 239 332 247 q 298 220 312 231 q 274 200 284 208 q 256 187 263 193 q 224 178 241 178 q 204 182 214 178 q 187 192 195 186 q 174 208 179 199 q 170 227 170 216 q 180 254 170 241 q 202 278 190 269 q 233 300 214 287 q 260 317 246 309 q 289 335 274 326 q 317 351 304 344 q 340 364 330 359 q 363 377 351 370 q 389 393 375 385 q 411 407 398 399 q 441 425 424 415 q 498 464 475 446 q 543 504 522 481 q 494 550 523 530 q 428 588 465 571 q 390 606 410 597 q 347 625 370 615 q 309 641 325 634 q 283 653 293 648 q 267 660 277 656 q 241 669 256 664 q 196 692 211 679 q 170 713 181 703 q 152 729 159 722 q 128 763 138 743 q 118 810 118 783 q 127 833 118 824 q 151 843 137 843 q 168 838 160 843 q 177 830 172 835 q 188 822 182 826 q 197 814 193 818 q 204 808 202 810 q 271 775 225 795 q 339 742 317 755 q 415 699 370 722 q 519 647 460 675 q 564 625 541 637 q 611 599 587 613 q 653 573 635 585 q 685 550 672 561 q 696 532 692 545 q 701 509 701 519 m 724 32 q 714 -2 724 6 q 681 -9 705 -9 q 638 -5 666 -9 q 595 0 610 0 q 563 0 576 0 q 539 -1 549 0 q 464 -5 519 -2 q 413 -7 435 -6 q 371 -8 390 -8 q 292 -4 345 -8 q 212 0 239 0 q 188 -1 201 0 q 157 -3 174 -2 q 130 -6 140 -5 q 117 -7 120 -7 q 82 8 96 -7 q 69 43 69 22 q 81 67 69 52 q 102 83 94 82 q 171 91 135 88 q 248 93 207 93 q 285 92 262 93 q 333 91 308 92 q 381 90 358 90 q 418 89 404 89 q 455 90 433 89 q 508 94 477 92 q 561 98 538 97 q 597 100 583 100 q 687 87 651 100 q 724 32 724 73 z "},"":{"ha":899,"x_min":47,"x_max":869,"o":"m 869 885 q 850 850 869 865 q 768 788 808 819 q 690 726 729 758 q 564 613 614 665 q 497 529 513 562 q 491 518 494 525 q 484 503 488 512 q 476 482 476 486 q 547 490 499 482 q 642 511 597 500 q 708 532 690 523 q 729 541 726 541 q 761 513 744 541 q 778 469 778 486 q 736 441 778 453 q 686 430 715 436 q 621 418 658 425 q 529 400 546 406 q 482 392 500 392 q 475 328 475 376 l 475 311 q 484 261 475 286 q 532 271 501 262 q 586 279 561 279 q 639 290 595 279 q 703 300 682 300 q 723 297 713 300 q 740 290 732 294 q 753 277 748 285 q 758 261 758 270 q 756 248 758 255 q 752 235 755 241 q 745 223 749 228 q 737 216 741 218 q 669 202 722 212 q 573 188 616 193 q 510 182 530 182 q 479 154 479 182 l 479 131 q 504 47 479 78 q 477 11 493 22 q 428 0 460 0 q 398 16 410 0 q 382 61 385 33 q 380 80 380 68 q 378 105 379 91 q 375 145 377 134 q 366 157 373 157 q 305 149 355 157 q 240 136 256 141 q 151 121 193 121 q 115 139 132 121 q 100 179 100 159 q 119 211 100 200 q 160 222 138 222 q 270 231 199 222 q 361 249 340 239 q 367 257 364 250 q 371 275 370 264 q 374 298 373 286 q 375 325 375 311 q 370 371 375 361 q 349 380 364 380 q 309 378 333 380 q 252 373 285 376 q 197 368 218 370 q 165 366 176 366 q 113 378 130 366 q 96 427 96 391 q 110 463 96 453 q 151 472 124 472 q 170 470 157 472 q 203 465 183 469 q 237 460 224 462 q 256 458 250 458 q 364 469 336 458 q 355 492 363 475 q 348 507 351 501 q 342 517 345 513 q 326 539 334 528 q 308 562 317 551 q 288 586 298 574 q 264 612 277 599 q 228 650 242 639 q 192 687 209 667 q 159 730 175 708 q 126 772 142 751 q 92 810 110 793 q 59 853 71 829 q 47 903 47 878 q 66 938 47 928 q 110 949 85 949 q 134 931 121 949 q 164 889 148 913 q 190 849 180 864 q 204 828 199 833 q 340 667 265 746 q 373 632 352 653 q 424 581 393 611 q 460 613 437 585 q 486 642 473 627 q 513 673 499 657 q 538 699 528 689 q 555 714 549 709 q 613 764 584 732 q 644 797 628 779 q 679 834 661 814 q 742 895 717 875 q 787 918 758 907 q 832 930 816 930 q 857 913 844 930 q 869 885 869 897 z "},"":{"ha":686,"x_min":38,"x_max":692,"o":"m 289 772 q 260 749 278 751 q 227 755 243 747 q 202 780 212 764 q 197 812 192 795 q 217 861 205 838 q 245 903 230 884 q 278 938 260 922 q 311 965 295 954 q 346 987 328 977 q 381 1007 363 998 q 417 1020 399 1015 q 451 1025 435 1025 q 479 1023 464 1025 q 511 1016 495 1021 q 541 1006 526 1012 q 566 994 555 1000 q 602 959 587 980 q 629 920 618 938 q 676 795 661 867 q 692 628 692 724 q 633 280 692 433 q 601 207 618 242 q 564 140 584 171 q 522 84 545 109 q 475 40 500 58 q 425 9 450 22 q 373 -13 400 -4 q 315 -26 347 -22 q 247 -30 284 -30 q 162 -8 200 -30 q 96 45 125 14 q 38 218 38 106 q 142 481 38 372 q 582 627 275 621 q 566 800 578 741 q 520 892 552 860 q 443 924 488 924 q 361 890 401 924 q 342 870 351 882 q 326 843 334 858 q 309 811 318 829 q 289 772 300 793 m 579 540 q 436 524 496 535 q 336 494 376 513 q 210 374 260 456 q 189 334 197 353 q 177 296 181 315 q 171 258 172 277 q 169 217 169 239 q 203 124 169 161 q 284 87 238 87 q 309 88 297 87 q 332 91 320 88 q 357 99 344 94 q 384 113 370 104 q 513 271 464 165 q 579 540 563 378 z "},"":{"ha":1080,"x_min":43,"x_max":1065,"o":"m 1065 937 q 1062 926 1065 934 q 1053 910 1059 918 q 1038 895 1046 902 q 1018 888 1029 888 q 888 881 950 882 q 771 879 826 879 q 699 879 731 879 q 635 880 667 879 q 570 883 604 881 q 496 888 537 884 q 474 890 488 888 q 446 893 461 892 q 414 897 430 895 q 386 899 398 898 q 399 874 387 890 q 425 840 410 858 q 455 805 439 821 q 479 781 470 789 q 513 751 490 772 q 564 705 536 731 q 622 650 592 679 q 675 594 651 621 q 715 547 699 568 q 730 517 730 526 q 723 496 730 505 q 706 480 716 487 q 687 467 696 473 q 671 457 677 462 q 615 410 640 431 q 566 367 590 388 q 517 326 543 347 q 460 282 492 305 q 409 244 435 264 q 361 207 382 224 q 321 177 344 194 q 275 144 298 161 q 236 111 253 127 q 212 85 218 96 q 231 80 220 81 q 248 79 242 79 q 284 82 267 79 q 320 89 302 85 q 362 97 339 93 q 414 106 385 102 q 482 113 444 110 q 572 115 521 115 q 628 114 608 115 q 663 110 648 113 q 693 105 677 108 q 737 100 709 102 q 804 97 770 96 q 871 94 838 98 q 903 79 894 90 q 913 56 913 67 q 908 31 913 43 q 896 9 903 18 q 878 -5 888 0 q 856 -11 867 -11 l 838 -9 q 791 -6 819 -8 q 728 -1 762 -4 q 661 3 694 1 q 602 7 629 5 q 564 8 576 8 q 492 2 528 8 q 418 -4 456 -4 q 393 -8 409 -4 q 352 -18 376 -13 q 293 -27 327 -23 q 216 -32 260 -32 l 104 -32 q 82 -29 94 -32 q 62 -20 71 -26 q 48 -5 54 -14 q 43 16 43 3 q 58 72 43 43 q 99 127 74 100 q 155 181 123 155 q 217 230 186 207 q 276 273 248 254 q 323 307 304 292 q 405 372 374 346 q 459 419 437 399 q 500 455 482 439 q 542 489 518 471 q 562 506 552 496 q 572 529 572 515 q 554 556 572 535 q 507 606 536 577 q 442 669 478 635 q 371 734 406 703 q 306 791 336 766 q 257 831 275 817 q 250 844 253 834 q 248 861 248 854 q 251 884 248 876 q 261 896 255 891 q 276 907 268 901 q 293 924 284 912 q 297 969 292 952 q 315 996 303 987 q 343 1008 327 1005 q 379 1011 359 1011 q 393 1010 381 1011 q 420 1006 404 1008 q 455 1001 437 1004 q 489 997 473 999 q 516 993 505 994 q 530 991 528 991 q 588 990 555 991 q 655 990 620 990 q 726 989 690 989 q 797 990 763 989 q 861 990 831 990 q 914 991 891 991 q 930 991 918 991 q 959 990 943 991 q 995 987 976 989 q 1029 978 1014 984 q 1055 962 1045 972 q 1065 937 1065 952 z "},"":{"ha":1472,"x_min":44,"x_max":1475,"o":"m 1475 952 q 1470 931 1475 941 q 1455 914 1464 922 q 1432 901 1445 906 q 1404 897 1419 897 q 1376 899 1390 897 q 1339 906 1363 902 q 1276 912 1316 909 q 1168 915 1236 915 q 1152 910 1158 915 q 1143 890 1146 906 q 1131 814 1137 862 q 1117 707 1124 767 q 1110 653 1114 680 q 1103 603 1106 627 q 1096 558 1099 578 q 1090 524 1093 538 q 1085 492 1088 511 q 1080 451 1082 473 q 1074 405 1077 429 q 1067 359 1071 382 q 1062 323 1065 340 q 1058 289 1060 307 q 1054 254 1056 272 q 1051 214 1053 235 q 1049 175 1050 194 q 1049 141 1049 157 q 1051 97 1049 119 q 1053 58 1053 75 q 1045 25 1053 39 q 1026 2 1038 12 q 999 -13 1014 -7 q 967 -18 983 -18 q 924 2 937 -18 q 911 60 911 21 q 914 124 911 94 q 919 182 917 153 q 923 224 920 198 q 931 279 926 250 q 940 339 935 309 q 947 393 944 369 q 956 455 951 429 q 964 502 960 480 q 973 547 968 524 q 982 598 977 569 q 989 641 985 615 q 998 697 994 667 q 1008 759 1003 728 q 1017 818 1013 791 q 1024 864 1021 844 q 1026 890 1026 884 q 1009 909 1026 909 q 970 906 994 909 q 916 899 945 903 q 853 890 886 895 q 789 882 821 886 q 717 873 753 878 q 648 865 680 869 q 589 859 615 862 q 549 855 564 857 q 535 845 539 852 q 528 823 531 839 q 512 743 520 783 q 495 650 504 702 q 478 554 486 598 q 463 470 471 511 q 449 389 456 429 q 437 302 443 348 q 430 255 434 282 q 422 199 426 228 q 417 143 419 170 q 414 94 414 115 q 416 59 414 75 q 418 33 418 44 q 412 2 418 17 q 393 -23 405 -12 q 367 -41 382 -35 q 334 -47 351 -47 q 304 -40 316 -47 q 286 -21 293 -33 q 277 5 279 -9 q 275 34 275 20 q 277 69 275 49 q 283 113 279 90 q 291 162 287 136 q 298 214 295 188 q 319 340 307 275 q 341 464 331 406 q 353 528 347 500 q 364 583 359 557 q 374 633 369 608 q 384 686 378 658 q 393 731 389 709 q 401 771 397 753 q 407 802 405 789 q 410 821 410 814 q 392 838 410 838 q 363 837 383 838 q 319 834 342 836 q 271 832 295 833 q 231 831 247 831 q 189 827 208 831 q 154 818 170 823 q 129 808 139 812 q 114 804 118 804 q 64 817 84 804 q 44 858 44 829 q 55 900 44 884 q 86 927 66 917 q 132 941 106 937 q 189 945 158 945 q 291 946 245 945 q 376 948 336 947 q 450 952 415 950 q 519 957 485 954 q 578 962 545 959 q 647 970 611 966 q 718 978 682 974 q 782 985 753 982 q 838 991 802 987 q 918 1001 873 996 q 1014 1012 962 1006 q 1119 1023 1066 1018 q 1225 1031 1173 1028 q 1322 1034 1277 1034 q 1391 1029 1363 1034 q 1442 1014 1419 1024 q 1456 1003 1450 1010 q 1466 987 1462 996 q 1473 969 1470 979 q 1475 952 1475 960 z "},"":{"ha":380,"x_min":-248,"x_max":626,"o":"m 233 342 q 229 309 231 325 q 224 279 227 294 q 220 234 222 256 q 217 191 218 212 q 211 84 214 138 q 205 -22 209 31 q 193 -127 201 -75 q 171 -229 185 -179 q 138 -307 159 -271 q 89 -371 117 -344 q 25 -415 60 -399 q -50 -431 -10 -431 q -130 -413 -94 -431 q -192 -369 -166 -395 q -233 -313 -218 -342 q -248 -262 -248 -284 q -245 -248 -248 -255 q -238 -235 -242 -241 q -230 -225 -234 -229 q -224 -222 -226 -222 q -203 -236 -219 -222 q -161 -271 -187 -250 q -117 -302 -138 -290 q -66 -314 -96 -314 q 3 -288 -27 -314 q 51 -214 33 -262 q 70 -133 61 -186 q 87 -12 79 -79 q 101 133 95 56 q 111 282 107 209 q 122 400 115 338 q 140 518 130 463 q 144 562 140 537 q 152 613 147 587 q 161 667 156 640 q 172 719 167 694 q 184 793 178 754 q 199 871 191 831 q 222 953 208 911 q 256 1035 235 994 q 298 1100 275 1072 q 348 1148 320 1128 q 408 1179 375 1168 q 481 1189 441 1189 q 537 1178 511 1189 q 583 1149 564 1168 q 614 1103 603 1130 q 626 1046 626 1077 q 616 972 626 1009 q 583 895 606 935 q 565 875 576 881 q 546 871 555 869 q 531 880 536 872 q 528 900 526 887 q 532 959 532 929 q 526 1019 532 994 q 510 1059 520 1044 q 487 1082 500 1075 q 458 1090 473 1090 q 423 1081 439 1090 q 393 1058 407 1072 q 367 1023 378 1043 q 345 981 355 1003 q 318 904 330 947 q 298 819 307 861 q 284 739 290 776 q 275 681 278 702 q 269 645 272 665 q 263 606 266 626 q 258 567 260 587 q 254 530 256 547 l 233 342 z "},"":{"ha":725,"x_min":87,"x_max":714,"o":"m 714 754 q 693 694 714 732 q 612 612 665 646 q 509 578 560 578 q 441 615 471 578 q 396 699 412 652 q 370 656 392 693 q 283 543 332 593 q 184 493 236 493 q 111 531 136 493 q 87 619 87 569 q 119 764 87 679 q 205 917 152 848 q 317 1000 258 985 q 332 1004 323 1002 q 348 1008 340 1006 q 363 1012 356 1010 q 374 1014 370 1014 q 428 978 406 1014 q 449 985 444 985 q 482 930 482 985 q 475 871 482 911 q 469 815 469 831 q 476 733 469 758 q 498 688 484 712 q 526 667 511 667 q 664 757 604 667 q 690 779 680 779 q 706 771 697 779 q 714 754 714 762 m 386 914 q 377 932 386 929 q 349 936 368 936 q 267 876 307 936 q 230 810 247 845 q 201 736 214 776 q 175 616 175 657 q 177 609 175 613 q 181 600 178 604 q 187 592 184 595 q 193 589 190 589 q 230 599 213 589 q 261 625 247 609 q 288 659 275 640 q 310 694 300 677 q 380 876 357 766 q 386 914 386 903 z "},"":{"ha":607,"x_min":81,"x_max":538,"o":"m 538 770 q 524 689 538 740 q 493 619 510 638 q 459 586 479 602 q 413 553 439 570 q 360 524 387 537 q 306 502 333 511 q 254 488 279 493 q 208 484 229 484 q 81 632 81 484 q 110 760 81 687 q 136 811 117 779 q 152 838 146 827 q 161 857 158 850 q 201 924 180 895 q 250 972 223 953 q 309 1000 276 991 q 383 1010 342 1010 q 419 1000 410 1010 q 443 964 430 991 q 472 935 451 950 q 501 909 494 920 q 538 770 538 855 m 444 764 q 435 824 444 806 q 410 852 426 842 q 392 868 393 864 q 388 884 390 874 q 385 904 387 895 q 379 919 382 913 q 368 924 375 925 q 290 892 326 924 q 227 811 254 861 q 184 708 200 763 q 170 618 170 655 q 196 584 170 603 q 239 566 222 566 q 334 608 257 566 q 422 667 412 650 q 437 712 431 681 q 444 764 444 741 z "},"":{"ha":1013,"x_min":57,"x_max":1197,"o":"m 1197 406 q 1121 286 1197 358 q 1046 218 1082 250 q 972 161 1009 187 q 913 122 945 142 q 847 83 882 103 q 773 49 806 62 q 711 36 741 36 q 582 62 625 36 q 501 142 527 96 q 475 253 475 189 q 476 276 475 265 q 476 302 476 286 q 473 322 476 322 q 464 306 470 322 q 458 291 460 298 q 453 277 456 283 q 419 208 437 242 q 377 137 400 173 q 272 13 333 66 q 149 -40 212 -40 q 107 -20 132 -40 q 75 17 82 1 q 62 64 66 35 q 58 94 59 80 q 57 121 57 108 q 92 315 57 210 q 178 503 127 420 q 284 623 217 568 q 415 679 351 679 q 526 663 476 679 q 575 599 575 648 q 573 569 575 591 q 568 510 572 547 q 618 578 589 541 q 650 614 633 597 q 684 646 667 631 q 746 676 720 676 q 771 675 756 676 q 806 671 787 673 q 841 665 826 668 q 864 660 855 663 q 883 646 871 659 q 908 615 896 633 q 929 581 920 598 q 937 557 938 564 q 921 483 937 518 q 875 424 905 448 q 825 390 852 406 q 768 357 799 373 q 709 333 736 342 q 657 318 682 323 q 632 310 654 317 q 599 302 608 302 q 579 293 587 302 q 572 269 572 283 q 583 211 572 235 q 621 168 593 187 q 644 156 631 161 q 671 144 656 150 q 720 135 701 135 q 866 177 783 135 q 1007 269 949 220 q 1052 310 1028 288 q 1101 361 1075 333 q 1116 377 1105 366 q 1142 406 1126 389 q 1181 441 1175 441 q 1192 428 1186 441 q 1197 406 1197 414 m 836 533 q 830 552 837 543 q 812 568 823 561 q 789 579 801 575 q 768 583 777 583 q 732 571 749 583 q 647 488 695 546 q 599 393 599 428 q 703 416 646 393 q 794 472 760 439 q 836 533 836 511 m 472 521 q 464 574 472 562 q 435 589 453 589 q 367 575 399 589 q 311 534 334 562 q 300 520 308 531 q 281 493 293 510 q 260 461 270 477 q 241 432 250 445 q 228 408 233 418 q 222 393 223 398 q 212 360 218 378 q 197 320 205 342 q 183 282 189 298 q 174 257 178 267 q 162 208 168 238 q 157 134 157 177 q 180 66 157 66 q 260 128 207 66 q 307 184 288 159 q 336 227 326 209 q 375 298 354 257 q 421 391 396 339 q 472 521 472 493 z "},"":{"ha":810,"x_min":61,"x_max":775,"o":"m 775 454 q 761 373 775 419 q 718 282 747 328 q 655 197 691 237 q 574 129 618 157 q 519 102 552 115 q 444 75 487 88 q 311 47 360 47 q 270 15 298 47 q 218 -56 242 -17 q 192 -104 193 -95 q 189 -118 191 -111 q 184 -133 187 -125 q 178 -146 182 -140 q 172 -155 175 -153 q 142 -182 160 -169 q 114 -196 123 -196 q 80 -179 99 -196 q 61 -150 61 -163 q 71 -106 61 -135 q 90 -69 80 -81 q 146 0 111 -49 q 183 49 182 48 q 151 77 174 62 q 121 102 129 94 q 98 143 110 113 q 77 206 86 172 q 69 256 69 239 q 96 379 69 317 q 125 438 109 410 q 160 491 141 466 q 202 543 179 516 q 253 599 225 570 q 274 615 260 606 q 307 632 287 623 q 346 648 326 641 q 385 660 366 655 q 420 668 404 665 q 449 671 437 671 q 498 667 484 671 q 522 656 511 664 q 547 647 534 649 q 557 666 550 651 q 577 708 565 682 q 622 794 602 762 q 657 827 642 827 q 698 823 684 827 q 724 804 713 819 q 719 780 724 800 q 714 762 714 761 q 701 745 714 758 q 686 726 689 733 q 675 709 684 721 q 654 679 667 696 q 624 628 627 643 q 730 555 685 604 q 775 454 775 505 m 675 460 q 667 487 675 473 q 648 511 660 500 q 622 529 636 522 q 593 541 607 537 q 564 493 577 515 q 538 452 550 471 q 508 404 526 433 q 464 333 489 374 q 419 260 439 292 q 384 202 399 227 q 354 147 354 152 q 361 144 354 144 q 444 165 383 144 q 517 199 505 186 q 556 241 538 220 q 592 283 575 262 q 650 370 627 325 q 675 460 675 418 m 498 564 q 441 576 479 576 q 408 569 435 576 q 372 558 380 562 q 315 526 342 546 q 267 480 289 505 q 227 426 245 454 q 198 371 210 398 q 179 320 186 345 q 174 279 173 296 q 187 187 174 236 q 236 140 201 140 q 272 180 244 140 q 335 276 300 220 q 361 319 353 304 q 371 334 370 333 q 402 384 385 355 q 439 448 419 412 q 474 512 458 483 q 498 564 489 541 z "},"":{"ha":669,"x_min":43,"x_max":657,"o":"m 526 772 q 508 745 526 764 q 476 717 490 727 q 463 713 471 713 q 447 717 454 713 q 401 779 401 747 q 417 854 401 821 q 471 886 432 886 q 517 853 508 886 q 526 772 526 819 m 657 -119 q 609 -188 657 -144 q 499 -271 561 -232 q 410 -318 438 -311 q 374 -325 394 -321 q 329 -331 353 -328 q 283 -335 304 -334 q 244 -336 262 -336 q 231 -334 242 -336 q 214 -332 220 -332 q 151 -316 182 -332 q 96 -276 120 -301 q 58 -220 72 -251 q 45 -157 43 -189 q 68 -2 45 -75 q 97 67 79 35 q 140 128 115 100 q 195 175 164 155 q 262 207 226 195 q 275 211 267 208 q 294 217 283 214 q 334 228 318 224 q 366 232 351 232 l 370 248 q 354 368 354 298 q 373 477 354 431 q 446 526 392 526 q 478 510 469 526 q 488 469 488 494 q 485 450 488 459 q 476 432 481 441 q 466 413 471 423 q 457 392 460 404 q 452 319 452 367 q 475 252 452 315 q 500 168 500 191 q 477 127 500 146 q 429 109 455 109 q 378 135 410 109 q 269 93 323 130 q 177 1 212 56 q 142 -109 142 -55 q 175 -194 142 -166 q 267 -222 209 -222 q 338 -215 314 -222 q 463 -170 407 -195 q 562 -104 518 -144 q 589 -86 576 -92 q 623 -81 603 -81 q 646 -94 634 -81 q 657 -119 657 -108 z "},"":{"ha":397,"x_min":82,"x_max":325,"o":"m 325 818 q 321 804 325 810 q 318 796 318 798 q 319 783 318 791 q 321 768 321 774 q 288 715 321 739 q 224 693 255 693 q 190 720 199 693 q 180 775 180 747 q 180 786 180 782 q 179 796 180 791 q 222 850 179 802 q 269 860 231 860 q 311 852 298 860 q 325 818 325 845 m 282 435 q 281 401 282 418 q 277 369 280 385 q 272 333 275 353 q 264 289 269 313 q 257 247 260 265 q 253 216 254 229 q 245 171 250 194 q 236 126 240 149 q 228 84 231 104 q 225 47 225 64 q 224 23 225 38 q 222 -14 224 7 q 220 -50 221 -35 q 220 -75 220 -65 q 218 -99 220 -84 q 213 -138 216 -115 q 195 -225 205 -184 q 174 -275 184 -267 q 143 -289 157 -289 q 121 -275 132 -289 q 95 -243 108 -260 q 82 -208 82 -226 q 88 -150 82 -186 q 94 -118 92 -132 q 100 -90 97 -103 q 107 -52 107 -62 q 109 -1 107 -28 q 113 56 110 26 q 119 114 115 86 q 125 171 122 142 q 134 233 130 199 q 144 306 139 267 q 149 327 146 313 q 159 362 153 340 q 184 440 172 406 q 204 489 196 475 q 226 506 211 500 q 256 513 241 513 q 273 504 271 513 q 282 435 282 484 z "},"":{"ha":1000,"x_min":66,"x_max":875,"o":"m 873 431 q 875 414 875 427 q 874 386 875 404 q 872 344 873 369 q 870 306 871 319 q 869 293 869 294 q 869 242 869 272 q 867 172 868 212 q 861 87 863 92 q 841 66 857 78 q 812 56 826 56 q 785 70 800 56 q 768 96 769 85 q 768 104 768 99 q 768 117 768 110 q 770 157 768 131 q 775 222 772 183 q 783 322 783 302 q 777 352 783 340 q 766 363 771 363 q 602 353 677 363 q 471 345 536 345 q 422 344 449 345 q 363 343 395 344 q 304 342 330 342 q 256 342 277 342 q 233 342 237 342 q 198 345 229 343 q 175 346 183 345 q 164 346 167 346 l 92 346 q 71 359 75 346 q 66 396 66 372 q 79 420 66 404 q 98 436 92 435 q 166 442 135 441 q 228 444 197 443 q 237 445 231 445 q 250 445 242 445 q 315 439 275 445 q 351 435 335 436 q 379 433 367 433 q 412 435 393 433 q 456 440 431 437 q 500 445 481 444 q 532 447 519 447 q 644 455 572 447 q 708 462 680 460 q 760 464 737 464 q 790 462 774 464 q 823 457 806 460 q 858 448 847 452 q 873 431 866 445 z "},"":{"ha":1040,"x_min":68,"x_max":978,"o":"m 239 574 q 226 572 237 575 q 198 563 214 568 q 165 550 182 557 q 132 538 147 543 q 107 531 117 533 q 97 532 97 529 q 78 543 85 534 q 70 564 71 551 q 73 589 68 576 q 89 614 78 603 q 161 645 124 629 q 231 671 199 660 q 288 689 264 683 q 320 691 311 694 q 336 677 331 687 q 344 655 342 667 q 347 632 347 644 q 350 614 348 621 q 363 573 357 589 q 373 546 368 557 q 381 524 377 534 q 388 503 385 515 q 397 475 392 491 q 408 434 401 458 q 420 373 413 404 q 435 317 428 343 q 446 271 440 298 q 458 217 452 243 q 472 170 465 191 q 487 138 479 148 q 499 153 494 144 q 507 168 505 163 q 520 202 515 186 q 529 238 525 219 q 539 278 534 256 q 553 329 544 300 q 575 393 562 357 q 611 476 589 429 q 643 549 626 509 q 677 629 660 589 q 710 706 694 669 q 741 767 727 742 q 759 797 747 777 q 783 843 770 817 q 812 898 797 869 q 840 953 827 927 q 865 1000 854 979 q 882 1029 876 1020 q 910 1052 895 1048 q 937 1053 924 1057 q 958 1040 949 1048 q 971 1020 966 1031 q 977 998 977 1009 q 973 976 978 986 q 956 945 967 965 q 931 900 945 925 q 902 848 917 875 q 873 796 887 821 q 849 751 860 771 q 832 722 838 732 q 812 681 824 707 q 787 625 800 655 q 761 562 774 594 q 737 502 748 530 q 718 455 726 475 q 707 430 710 435 q 683 362 692 397 q 657 293 673 328 q 650 268 653 285 q 642 228 648 252 q 626 172 636 203 q 597 100 616 140 l 551 -1 q 538 -20 546 -11 q 522 -34 531 -28 q 502 -42 513 -40 q 480 -39 492 -43 q 435 -6 454 -30 q 399 51 415 18 q 373 121 384 83 q 353 195 361 159 q 338 264 344 232 q 326 319 332 297 q 309 385 316 359 q 296 430 302 412 q 287 459 291 448 q 280 481 283 471 q 273 504 277 492 q 265 534 269 516 q 262 546 264 539 q 258 557 260 552 q 251 568 255 563 q 239 574 246 572 z "},"":{"ha":708,"x_min":-25,"x_max":701,"o":"m 700 547 q 673 508 700 526 q 624 490 645 490 l 592 490 q 551 489 570 490 q 517 485 532 488 q 505 484 512 484 q 489 482 498 483 q 456 478 471 481 q 431 468 441 475 q 412 419 421 447 q 393 356 402 391 q 376 295 383 321 q 363 252 368 269 q 333 175 353 217 q 277 96 312 132 q 216 37 244 63 q 163 -8 188 10 q 115 -37 138 -27 q 69 -47 92 -47 q 33 -43 50 -47 q 3 -29 16 -39 q -18 -6 -10 -20 q -25 28 -25 8 q -12 68 -25 53 q 25 83 1 83 q 52 72 31 83 q 79 61 72 61 q 132 100 93 61 q 170 142 151 120 q 208 188 189 164 q 254 254 245 235 q 293 361 277 308 q 318 467 309 414 q 278 472 305 472 q 260 471 271 472 q 239 469 250 470 q 220 466 227 467 q 210 465 212 465 q 183 469 196 465 q 160 478 170 472 q 144 495 150 485 q 138 518 138 505 q 142 538 138 529 q 155 554 147 547 q 173 564 163 560 q 193 567 183 567 q 204 565 199 567 q 212 564 210 564 q 349 574 266 564 q 362 595 357 574 q 367 632 367 614 q 381 756 370 700 q 416 861 391 813 q 488 939 441 909 q 603 968 534 968 q 633 964 618 968 q 661 952 648 960 q 681 931 673 944 q 689 901 689 919 q 670 869 689 886 q 637 852 652 852 q 609 865 632 852 q 579 878 586 878 q 515 823 551 878 q 487 773 498 796 q 472 732 475 751 q 467 696 469 710 q 465 676 465 682 q 460 631 465 657 q 456 595 456 606 q 470 591 461 593 q 486 589 479 589 q 517 590 499 589 q 559 594 536 591 q 637 600 607 600 q 656 595 645 600 q 677 582 667 590 q 694 564 688 574 q 700 547 701 555 z "},"":{"ha":1010,"x_min":51,"x_max":964,"o":"m 964 357 q 934 300 964 334 q 861 230 905 265 q 825 208 844 216 q 784 194 805 199 q 744 187 764 189 q 707 185 724 185 q 631 191 665 185 q 570 208 597 196 q 539 222 557 213 q 500 244 522 231 q 469 264 479 257 q 454 272 458 271 q 422 292 437 283 q 393 306 408 300 q 364 315 379 312 q 331 317 349 317 q 302 315 314 317 q 278 307 290 313 q 252 288 266 300 q 219 256 239 276 q 186 222 201 237 q 157 198 171 208 q 131 184 144 189 q 102 180 117 180 q 72 191 83 180 q 61 220 61 202 q 108 307 61 254 q 131 329 120 319 q 152 348 141 339 q 175 364 163 356 q 202 382 186 372 q 306 422 263 422 q 399 411 368 422 q 417 406 407 408 q 440 401 428 404 q 464 394 452 398 q 487 382 476 389 q 528 355 509 366 q 563 335 547 343 q 596 319 578 328 q 630 302 613 310 q 662 289 646 294 q 689 284 677 284 q 754 294 720 284 q 813 328 788 304 q 839 353 827 340 q 864 376 851 365 q 908 399 891 399 q 950 388 936 399 q 964 357 964 376 m 52 569 q 85 626 54 591 q 119 658 100 642 q 162 692 138 674 q 204 719 184 708 q 237 734 224 729 q 266 741 250 739 q 301 742 281 743 q 377 734 343 741 q 437 713 410 727 q 466 696 450 706 q 505 673 483 687 q 549 643 543 645 q 581 622 566 631 q 609 606 595 612 q 637 596 623 600 q 670 591 652 592 q 699 591 687 590 q 724 598 711 593 q 750 616 736 604 q 785 646 764 627 q 820 678 804 665 q 849 701 836 692 q 877 713 863 709 q 905 717 890 718 q 935 704 925 715 q 945 675 945 692 q 931 636 943 657 q 893 590 918 614 q 869 568 880 578 q 847 551 859 559 q 824 535 836 543 q 795 518 811 528 q 690 484 732 481 q 634 490 657 486 q 596 500 612 494 q 578 506 589 503 q 556 513 568 509 q 533 522 545 516 q 511 535 521 527 q 471 564 489 551 q 437 586 453 576 q 405 604 422 594 q 372 622 389 613 q 341 636 356 630 q 314 643 326 642 q 257 629 283 644 q 203 591 230 614 q 177 567 190 579 q 151 545 164 555 q 125 529 137 534 q 105 524 113 524 q 64 538 77 526 q 52 569 51 550 z "},"":{"ha":1015,"x_min":60,"x_max":989,"o":"m 989 624 q 978 597 989 612 q 958 578 967 581 q 925 568 947 572 q 885 557 904 564 q 846 542 878 554 q 756 508 814 530 q 636 461 642 464 q 629 449 629 456 q 645 435 631 448 q 685 398 659 422 q 771 318 738 350 q 803 286 788 302 q 833 254 819 270 q 863 210 863 222 q 850 183 863 193 q 822 172 838 172 q 797 184 810 172 q 772 208 784 197 q 685 290 739 242 q 558 401 632 338 q 549 410 555 405 q 534 422 543 415 q 520 434 526 429 q 511 443 515 439 q 500 467 500 454 q 511 494 500 488 q 602 541 549 521 q 707 577 653 560 q 828 614 761 593 q 883 644 843 618 q 949 669 922 669 q 964 665 957 669 q 977 655 971 661 q 985 640 982 648 q 989 624 989 632 m 492 660 q 483 633 493 645 q 458 610 473 621 q 425 590 443 599 q 395 574 408 581 q 345 541 375 563 q 315 521 329 530 q 288 505 300 512 q 245 491 279 500 q 205 475 214 481 q 200 464 203 473 q 286 399 222 451 q 402 297 353 347 q 453 227 453 247 q 450 214 453 220 q 442 202 447 208 q 430 194 437 197 q 418 191 424 191 q 401 196 409 191 q 359 232 384 212 q 304 275 335 252 q 251 318 274 299 q 212 350 228 336 q 170 382 195 366 q 114 418 145 399 q 92 430 102 424 q 77 440 81 436 q 64 459 68 446 q 60 479 60 472 q 65 507 60 498 q 80 520 71 516 q 103 527 90 525 q 135 532 117 528 q 282 602 201 550 q 458 708 450 708 q 472 704 466 708 q 483 692 478 699 q 489 677 487 686 q 492 660 492 668 z "},"":{"ha":1013,"x_min":102,"x_max":971,"o":"m 971 408 q 949 370 971 386 q 891 341 928 356 q 844 318 854 326 q 807 293 827 306 q 761 264 786 279 q 716 238 736 250 q 680 215 696 226 q 647 191 664 204 q 612 163 630 178 q 587 139 600 150 q 558 127 575 127 q 526 143 538 127 q 513 180 513 159 q 549 230 513 200 q 590 261 568 245 q 642 294 613 277 q 747 355 697 329 q 825 396 796 381 q 743 475 823 406 q 676 535 703 511 q 636 572 650 559 q 608 610 608 597 q 626 644 608 623 q 654 667 644 667 q 724 607 676 667 q 810 517 764 557 q 911 450 856 477 q 927 443 917 447 q 947 434 937 439 q 964 423 957 429 q 971 408 971 416 m 500 393 q 498 386 500 391 q 495 376 497 381 q 491 368 493 372 q 486 363 488 364 q 404 312 463 345 q 355 284 374 295 q 328 268 336 273 q 281 236 305 255 q 221 192 256 218 q 216 187 220 191 q 201 176 211 183 q 173 154 182 160 q 158 147 163 147 q 131 149 142 148 q 115 154 121 150 q 105 167 109 158 q 102 192 102 176 q 115 239 102 202 q 196 286 138 256 q 304 340 253 315 q 370 380 353 365 q 380 401 380 391 q 355 437 380 411 q 274 515 329 464 q 197 592 220 568 q 175 629 175 616 q 190 659 175 646 q 222 672 204 672 q 266 649 241 672 q 332 576 290 626 q 369 534 353 552 q 397 504 385 515 q 443 469 420 480 q 477 435 456 464 q 500 393 500 406 z "},"":{"ha":1128,"x_min":115,"x_max":977,"o":"m 977 77 q 952 26 977 46 q 899 5 928 5 q 848 28 871 5 q 825 78 825 51 q 852 125 825 102 q 903 149 880 149 q 951 130 926 149 q 977 77 977 110 m 595 102 q 582 32 595 64 q 539 -1 570 -1 q 493 9 515 -1 q 471 40 471 20 q 525 143 471 121 q 554 150 541 150 q 569 145 562 150 q 582 133 576 140 q 591 117 588 125 q 595 102 595 109 m 264 135 q 235 54 264 97 q 170 11 205 11 q 140 19 155 11 q 122 41 125 27 q 117 76 119 63 q 115 93 115 88 q 136 131 115 119 q 181 145 151 140 q 232 151 210 151 q 264 135 264 151 z "},"":{"ha":555,"x_min":0,"x_max":0,"o":""},"":{"ha":1162,"x_min":14,"x_max":1131,"o":"m 1131 45 q 1113 -2 1131 18 q 1068 -21 1096 -21 q 1048 -16 1056 -21 q 1027 4 1039 -8 q 1003 36 1016 17 q 957 117 978 75 q 924 192 937 159 q 917 209 920 201 q 909 225 913 217 q 901 244 905 234 q 892 268 897 254 q 864 345 873 326 q 846 330 854 335 q 827 322 837 325 q 807 320 817 320 q 784 319 796 319 q 767 317 777 319 q 745 311 757 314 q 722 303 733 307 q 700 296 710 299 q 631 279 666 287 q 560 265 597 272 q 484 251 524 258 q 399 237 444 245 q 360 211 378 234 q 287 109 342 187 q 195 -4 233 32 q 122 -40 157 -40 q 47 -22 77 -40 q 14 24 14 -1 q 28 42 14 37 q 68 53 43 48 q 105 86 76 54 q 147 138 133 117 q 205 217 176 175 q 271 313 235 260 q 302 359 289 340 q 325 393 316 379 q 346 423 334 406 q 374 461 358 440 q 390 484 380 471 q 412 515 399 498 q 436 546 425 532 q 454 570 446 559 q 474 597 462 581 q 504 636 487 614 q 525 668 509 643 q 568 737 541 693 q 618 829 606 800 q 737 1022 697 1022 q 766 1019 755 1022 q 783 1009 777 1016 q 791 990 789 1002 q 793 961 793 978 q 793 941 793 949 q 792 926 793 932 q 791 899 791 916 q 789 859 790 882 q 853 705 823 787 q 886 615 869 664 q 923 507 903 566 q 958 407 943 448 q 982 340 972 366 q 1005 281 991 314 q 1036 205 1018 248 q 1087 130 1043 190 q 1131 45 1131 71 m 830 446 q 804 526 818 483 q 774 612 789 569 q 743 695 759 655 q 711 766 727 735 q 640 667 673 715 q 574 572 606 620 q 512 474 543 524 q 449 367 481 424 q 463 364 456 364 q 489 366 473 364 q 521 370 505 368 q 553 375 538 372 q 578 380 568 378 q 606 387 594 384 q 629 392 618 389 q 652 398 640 395 q 682 405 665 401 q 760 426 722 415 q 830 446 799 436 m 850 1160 q 836 1127 850 1142 q 800 1113 821 1113 q 786 1118 797 1113 q 763 1133 775 1122 q 740 1151 755 1139 q 708 1178 725 1164 q 676 1204 692 1192 q 654 1221 661 1216 q 632 1237 650 1225 q 590 1265 614 1249 q 495 1359 495 1325 q 500 1372 495 1365 q 511 1385 505 1379 q 525 1395 517 1391 q 538 1399 532 1399 q 563 1393 548 1399 q 595 1375 577 1388 q 632 1345 616 1358 q 663 1320 648 1333 q 694 1293 677 1307 q 736 1263 711 1280 q 782 1231 762 1245 q 816 1208 802 1217 q 850 1160 850 1184 z "},"":{"ha":1162,"x_min":14,"x_max":1131,"o":"m 1131 45 q 1113 -2 1131 18 q 1068 -21 1096 -21 q 1048 -16 1056 -21 q 1027 4 1039 -8 q 1003 36 1016 17 q 957 117 978 75 q 924 192 937 159 q 917 209 920 201 q 909 225 913 217 q 901 244 905 234 q 892 268 897 254 q 864 345 873 326 q 846 330 854 335 q 827 322 837 325 q 807 320 817 320 q 784 319 796 319 q 767 317 777 319 q 745 311 757 314 q 722 303 733 307 q 700 296 710 299 q 631 279 666 287 q 560 265 597 272 q 484 251 524 258 q 399 237 444 245 q 360 211 378 234 q 287 109 342 187 q 195 -4 233 32 q 122 -40 157 -40 q 47 -22 77 -40 q 14 24 14 -1 q 28 42 14 37 q 68 53 43 48 q 105 86 76 54 q 147 138 133 117 q 205 217 176 175 q 271 313 235 260 q 302 359 289 340 q 325 393 316 379 q 346 423 334 406 q 374 461 358 440 q 390 484 380 471 q 412 515 399 498 q 436 546 425 532 q 454 570 446 559 q 474 597 462 581 q 504 636 487 614 q 525 668 509 643 q 568 737 541 693 q 618 829 606 800 q 737 1022 697 1022 q 766 1019 755 1022 q 783 1009 777 1016 q 791 990 789 1002 q 793 961 793 978 q 793 941 793 949 q 792 926 793 932 q 791 899 791 916 q 789 859 790 882 q 853 705 823 787 q 886 615 869 664 q 923 507 903 566 q 958 407 943 448 q 982 340 972 366 q 1005 281 991 314 q 1036 205 1018 248 q 1087 130 1043 190 q 1131 45 1131 71 m 830 446 q 804 526 818 483 q 774 612 789 569 q 743 695 759 655 q 711 766 727 735 q 640 667 673 715 q 574 572 606 620 q 512 474 543 524 q 449 367 481 424 q 463 364 456 364 q 489 366 473 364 q 521 370 505 368 q 553 375 538 372 q 578 380 568 378 q 606 387 594 384 q 629 392 618 389 q 652 398 640 395 q 682 405 665 401 q 760 426 722 415 q 830 446 799 436 m 1000 1284 q 983 1236 1000 1266 q 963 1207 974 1221 q 940 1178 953 1193 q 899 1139 914 1149 q 861 1130 883 1130 q 817 1134 837 1130 q 782 1148 798 1139 q 765 1160 774 1153 q 742 1179 755 1168 q 723 1195 730 1190 q 715 1202 717 1201 q 697 1220 705 1211 q 680 1236 688 1229 q 663 1246 672 1242 q 640 1251 653 1251 q 618 1246 628 1251 q 597 1234 608 1242 q 576 1214 587 1226 q 551 1185 565 1202 q 528 1157 538 1169 q 508 1137 517 1145 q 490 1125 499 1129 q 471 1122 481 1122 q 449 1131 457 1122 q 441 1155 441 1141 q 474 1227 441 1183 q 550 1305 508 1272 q 623 1338 593 1338 q 688 1329 667 1338 q 710 1315 699 1324 q 734 1293 721 1306 q 758 1271 747 1280 q 778 1255 768 1261 q 797 1241 787 1249 q 817 1227 807 1234 q 835 1216 826 1221 q 851 1212 844 1212 q 884 1226 869 1212 q 913 1260 899 1240 q 928 1280 920 1270 q 943 1300 935 1291 q 968 1320 958 1320 q 992 1310 983 1320 q 1000 1284 1000 1300 z "}}}
